<svg width="123" height="198" viewBox="0 0 123 198" fill="none" xmlns="http://www.w3.org/2000/svg">
<path d="M27.2311 2.48129L28.4853 6.74115L28.3266 8.35755L31.7716 10.4117L32.6448 8.91316L34.5976 9.31727L34.4864 10.3612L35.1691 10.4285L35.693 11.9944L37.7569 12.6848L40.821 10.9505L42.5832 11.3378L44.2025 12.87L45.9648 11.3041L45.9013 8.99736H46.3934L47.6953 10.698L46.33 12.3312L46.6633 14.8063L48.2827 15.4966L49.521 17.9717L50.8069 18.1737L51.8071 19.6386L53.5852 19.6218L55.1411 20.9183L57.8242 20.4805L58.8244 21.4571L58.1575 22.3494L58.5862 23.8985L58.2211 24.2352L59.5229 26.8955L60.4913 26.946L64.4603 24.4878L66.7465 25.0266L68.985 23.2755L70.3503 20.9014L72.8587 18.6789L75.2719 22.9724L75.4942 25.9358L76.5896 28.3099L78.4947 30.2967L83.448 31.8121L87.0995 29.9768L89.3698 30.364L92.1956 31.9804L95.7995 32.3677L95.2439 34.5566L98.4508 42.8069L103.325 44.3896L106.405 47.8244L111.009 47.5719L112.803 46.8815L114.533 44.4064L119.518 43.7666L120.471 44.3054L124.249 42.8237L124.313 44.558L125.916 46.8815L119.185 51.1077L118.661 56.0411L121.185 60.8229L124.487 63.298L127.139 66.3288L126.361 70.9927L128.552 73.3836L128.361 75.2357L127.536 75.7072L124.218 75.6904L120.979 80.2533L118.534 80.9436L113.723 89.1771L113.581 91.6186L110.421 91.0293L106.595 91.2145L104.531 92.9824L100.404 91.989L99.324 92.9319L99.9273 93.437L98.9113 96.5014L99.5621 97.2928L100.626 96.4172L101.88 97.4443L103.531 97.579L103.849 99.2964L105.563 101.687L104.77 102.95L105.785 104.112L106.214 103.758L107.151 104.516L107.675 106.385L108.627 105.089L109.072 105.897L112.644 105.442L114.454 107.395L116.518 107.833L117.153 104.954L118.772 103.59L120.026 104.348L121.074 107.648L115.692 114.349L106.182 110.19L105.77 110.645L106.04 111.588L105.436 111.638L105.071 112.733L105.246 114.416L104.357 115.612L104.436 116.689L102.817 116.757L102.833 118.626L102.15 118.929L102.071 120.091L101.039 120.579L101.435 121.185L100.991 121.842L101.769 122.077L101.959 123.694L100.896 124.957L101.388 125.226L101.34 126.169L100.372 126.674L100.515 127.566L98.7049 130.075L100.181 132.062L103.245 131.692L103.626 132.365L105.77 131.49L106.611 132.197L107.5 132.113L107.357 132.685L108.818 133.493L109.739 138.612L108.659 139.302L108.707 141.794L111.39 143.899L111.025 144.892L112.072 146.121L111.866 147.569L112.485 148.091L111.866 148.714L112.755 150.061L113.723 149.085L113.39 150.516L113.993 152.149L110.977 153.631L108.85 153.664L108.421 155.702L110.612 155.769L111.056 156.729L111.596 156.493L112.326 157.503L112.009 158.463L112.501 159.019L114.374 156.274L115.248 156.577L114.898 156.308L115.486 155.365L116.2 155.112L118.042 160.5L117.375 161.46L117.391 163.009L113.803 162.672L113.501 166.713L112.041 166.915L111.548 170.047L110.024 172.169L109.77 175.301L108.103 176.328L110.628 177.927L110.675 178.668L104.865 178.769L105.865 181.16L106.992 182.019L106.595 183.197L107.167 183.702V186.127L106.484 186.329L105.77 188.754L105.785 192.862L104.119 193.249L104.134 195.068L102.721 196.836L96.6092 195.825L93.4975 195.994L92.4338 196.953L91.7194 196.364L90.9256 196.802L88.7188 193.889L86.8772 194.462L86.3057 195.926L85.3531 196.482L83.8449 193.03L76.0657 193.367L75.6688 194.495L71.1441 194.815L70.9695 195.522L67.699 194.697V193.115L67.1116 193.098L66.6353 191.195L68.0959 187.238L67.0798 186.279L66.2066 186.514L65.2859 185.74L65.27 181.682L54.4267 180.891L53.1883 178.197L54.0457 176.681L53.9821 175.317L52.8709 174.644L53.4742 172.186L46.5839 169.727L46.7269 168.667L43.6627 168.599L42.0593 167.69L41.5354 166.629L42.2339 165.939L42.3451 164.844L41.1067 162.807L41.1385 160.5L39.1858 158.514L34.3594 159.12L32.105 157.857L32.2162 156.005L32.9147 155.146L32.6924 153.311L35.8518 151.206L34.423 149.809L33.4069 150.129L32.5813 144.151L29.8507 145.515L29.3902 144.471L27.8662 144.825L26.1833 143.394L26.5167 142.518L25.1355 141.508L25.707 141.491L25.4689 140.093L26.4214 138.544L24.1512 135.699L23.405 125.142L24.7386 124.67L24.8497 123.913L26.3421 123.542V121.926L25.7864 121.067L26.9136 120.613L26.5167 119.4L24.7703 119.198L23.5161 117.801L24.6115 115.864L24.3417 113.541L24.9132 112.699L26.2944 112.564L26.215 111.436L24.0718 111.621L23.1986 110.039L21.3887 110.241L21.4522 102.26L20.452 102.664L17.0863 102.142L16.4989 102.849L15.3876 102.782L13.9588 102.024L11.6726 102.075L11.4504 101.3L9.68815 101.233L10.9423 98.7408L12.2442 99.4985L12.2283 97.7474L14.7049 96.8718L12.1648 91.3828L12.6252 90.844L13.6571 83.7386L11.7997 83.3851L11.4028 85.4729L8.48156 85.3214L4.52845 83.4861L3.70287 82.6779L4.19502 82.1391L3.67108 81.4319L5.94144 79.8997L4.44909 78.0139L3.48058 78.2328L2.48038 75.9598L2.21052 75.1684L4.67128 73.9561L4.02041 73.0469L7.14793 71.7841L6.6082 70.2014L3.17893 69.41L2.87728 67.861L3.90926 61.2607L2.86149 60.0147L2.89318 57.5733L1.14686 57.5901L1.46439 54.0374L0.781738 53.364L1.38503 51.0067L3.32186 51.1583L5.33814 49.5419L5.56033 48.7673L3.30597 48.4138L4.09977 46.5111L6.76692 46.7468L6.17952 44.6758L6.46527 43.1941L8.03698 43.0763L8.1958 42.0997L9.30714 41.7293L8.57681 40.0287L11.8632 39.069L10.9106 38.6144L10.1644 35.8194L9.51354 35.3142L10.3867 34.8259L10.1962 34.1356L8.95782 33.9841L8.11644 34.5566L6.89396 32.5866L8.16402 29.4717L9.33883 30.7176L11.3233 28.0742L12.3235 27.9058L12.3394 27.2491L9.9739 25.4643L10.5613 23.3597L13.3714 23.3428L14.3398 22.3663L11.1646 17.7192L12.4347 15.6987L16.0385 14.1328L16.2132 15.9007L18.5946 14.1496L18.2136 13.1731L19.8646 12.3312L19.8964 11.6577L21.0871 10.8326L19.4518 7.06106L19.0073 1.8583L23.9765 2.54864L26.2468 1.16797L27.1359 1.47104L27.2311 2.48129Z" fill="#75B663" stroke="white" stroke-width="0.5"/>
</svg>
