<svg width="136" height="154" viewBox="0 0 136 154" fill="none" xmlns="http://www.w3.org/2000/svg">
<path d="M88.0145 1.96956L89.872 1.26239L93.968 4.22578L97.5084 4.98346L97.9688 5.6738H101.43L102.017 4.69723L103.351 5.48858L104.303 3.83852L107.59 5.18551L107.891 6.06106L109.749 7.37438L111.86 7.25651L113.734 7.98052L113.067 9.12546L111.463 10.1694L110.177 12.5098L110.924 14.5976L110.193 15.1364L109.812 16.5339L111.384 18.3692L110.828 19.7667L111.368 20.0361L112.035 19.4131L112.575 20.9117L111.543 23.1847L111.686 24.2286L110.86 25.0873L110.304 27.714L108.352 31.2835L107.431 30.9804L106.812 32.7989L106.224 32.6473L106.399 32.0243L104.399 32.2096V33.6239L105.558 32.8831L106.034 34.6847L107.066 34.55L108.209 36.5368L107.828 38.5741L106.891 39.0792L106.288 40.5609L107.748 41.2681L107.764 42.0931L105.399 43.0529L105.589 44.0126L108.352 43.6927L108.098 44.8376L109.304 44.8713L109.098 45.9489L110.289 45.8815L110.273 51.0001L112.622 52.8691L112.987 54.0645L113.48 54.014L113.384 55.462L113.956 54.8559L114.829 55.159L114.289 54.3676L114.924 53.29L116.671 53.2732L116.464 54.9401L117.703 55.6472L118.211 55.2768L119.1 55.6304L120.497 54.4855L121.148 55.7651L120.036 56.2702L120.449 56.6406L120.306 59.1999L121.592 60.6648L123.466 61.5908L123.878 63.544L124.847 63.6113L126.228 64.79L125.879 65.9517L126.561 66.8946L126.625 68.4268L129.562 69.134L132.896 73.0403L133.325 75.6164L132.372 75.6332L132.356 76.6098L130.07 77.6706L129.848 76.9297L129.102 76.8455L129.086 78.3609L127.244 78.0915L125.974 78.7482L126.688 80.0446L126.276 81.7621L128.276 82.3851L130.515 82.082L134.293 84.7591L135.214 89.0863L134.071 89.5241L133.88 92.1676L129.435 92.6222L127.625 93.3799L129.737 95.1815L129.133 101.428L130.245 101.58L131.594 102.91L131.642 103.769L130.705 105.739L124.688 104.728L123.513 107.709L123.482 110.487L122.672 112.625L123.021 115.673L122.624 117.441L120.179 121.33L121.195 122.761L120.703 123.401L120.052 123.148L118.496 119.377L117.465 118.619L115.639 119.259L113.956 119.057L114.718 118.08L113.019 116.11L112.987 114.258L109.781 115.269L107.891 115.184L108.082 116.902L107.399 116.481L103.414 118.013L100.684 119.343L100.874 120.067L97.556 119.377L96.4447 117.727L96.9527 119.596L96.1748 120.926L95.4604 120.808L94.9047 121.7L95.4921 121.566L95.6668 122.576L97.429 124.462L94.9365 124.714L94.6983 124.159L93.3489 124.024L92.4281 122.829L91.2056 122.812L92.2058 125.809L91.7454 127.644L92.8885 127.105L93.3171 128.671L92.5709 129.277L91.8248 131.23L89.2529 131.517L88.7131 130.91L86.4111 130.607L86.0935 129.883L82.5691 129.951L82.4579 131.719L84.0614 133.049L84.4583 134.042L83.9503 137.241L80.5052 136.669L83.9026 138.74L83.2359 140.996L84.3313 140.676L84.9346 141.737L85.0616 143.757L86.3634 143.774L87.1414 145.172L86.4746 146.721L85.4744 146.923L84.8711 145.239L83.5693 146.115L83.8709 148.236L84.8076 149.6L82.6961 150.644L82.7437 151.368L81.7753 151.334L81.3149 152.311L81.9023 153.439L78.9493 152.159L79.124 149.903L78.6318 148.64L76.8696 148.573L72.7259 144.481L72.1068 145.441L72.4243 148.337L69.7413 148.32L69.773 147.142L68.7411 147.041L68.2648 147.731L64.5498 148.186L63.7719 148.825L60.3585 148.354L60.8031 145.475L57.1675 143.151V142.545L54.0558 142.259L54.1987 138.302L53.7065 137.932L54.278 137.494L53.7541 135.204L54.151 134.699L53.5954 134.379L53.4207 135.204L52.3253 135.49L51.8014 134.985L51.8966 132.645L50.4202 129.732L49.4994 129.395L47.1815 130.759L46.1654 130.725L43.9428 129.075L43.5935 127.745L44.1333 126.651L42.5457 124.849L41.7995 125.775L39.7515 125.758L39.0053 127.796L35.2427 127.072L33.163 125.522L32.6073 123.973L31.6071 123.67L29.6067 119.764L26.8284 119.949L26.5586 118.771L25.5266 118.434L25.9711 114.73L24.4788 115.066L23.0658 114.393L22.9388 112.255L23.3516 111.884L22.7642 111.682L23.3675 110.621L22.7801 110.049L20.9861 110.419L20.3987 109.78L19.7954 108.113L20.0653 106.277L21.3353 104.375L22.3038 103.819L24.4947 103.937L24.4788 104.408L27.8127 103.971L29.6067 102.472L29.956 101.361L28.4002 101.176L26.7967 99.5087L24.971 99.273L20.5098 93.9187L19.7636 90.4165L17.4298 88.5307L18.5888 88.194L17.922 88.0256L17.541 86.9817L18.3507 86.0556L17.4457 85.7189L17.2393 82.8397L15.9216 82.0988L15.4136 82.5703L15.112 81.0044L14.4452 80.4993L14.6198 79.3712L13.9213 78.5461L14.1911 77.7211L14.9532 77.6874L15.112 75.869L13.6355 74.623L12.5877 74.7914L11.7304 72.7709L10.5238 72.3836L8.96795 70.2621L8.09477 70.1611L8.25353 68.9993L7.39622 68.0396L7.36447 65.7834L5.8245 63.8471L5.79275 63.0725L5.57049 63.4766L3.98289 63.0389L3.68124 63.5271L3.0462 63.0725L3.39547 62.3149L2.76043 61.4393L2.56992 59.3346L3.55423 58.6106L3.23671 58.2739L4.04639 56.2197L5.11008 56.1018L4.76081 55.1421L5.25296 54.3002L4.64968 53.8288L6.04676 53.0374L6.01501 52.1619L5.4911 51.8757L6.06264 51.5052L5.44348 51.4884L4.72905 50.394L5.12595 49.3669L3.22083 49.0301L3.09383 47.8852L4.55442 46.7402L4.3004 45.6963L3.76062 45.0228L2.6493 45.4101L1.61736 44.3998L1.50623 43.036L1.74437 43.7264L4.04639 44.1978L4.66555 43.5916L2.53817 39.3823L3.76062 37.9174L3.96701 36.621L2.28415 35.6107L0.934692 32.7652L3.98289 31.1825L4.72905 30.0544L6.42779 30.3911L10.2698 28.8421L10.8254 29.5156L10.8889 31.3677L12.7623 30.7615L17.3187 32.058L15.5247 34.2469L15.6835 35.7791L17.8903 35.1224L21.8751 36.7388L23.2246 34.8699L26.114 33.0851L28.5748 28.9263L36.5604 24.2623L39.1006 21.2989L37.8781 16.4834L40.4342 12.2067L40.1801 11.1628L42.7997 9.10863L47.6419 9.15914L52.6904 8.38462L55.8656 7.25651L58.1518 8.18257L60.5491 7.82898L61.9461 9.02444H62.7717L66.3597 6.31362L66.9947 6.44832L67.3916 7.77847L71.4082 6.48199L72.1068 7.79531H73.9008L75.663 5.97687L76.8696 5.79166L80.9338 2.77776L83.2835 2.76092L86.2364 1.14453L88.0145 1.96956Z" fill="#75B663" stroke="white" stroke-width="0.5"/>
</svg>
