<svg width="139" height="203" viewBox="0 0 139 203" fill="none" xmlns="http://www.w3.org/2000/svg">
<path d="M72.4755 0.958984L73.4757 3.23205L74.4442 3.01315L75.9366 4.89893L73.6821 6.43114L74.2061 7.15514L73.7139 7.67712L74.5395 8.48531L78.4926 10.3206L81.4296 10.4721L81.8265 8.38429L83.6841 8.73786L82.6521 15.8264L82.1917 16.3652L84.7319 21.8542L82.2552 22.7297L82.2711 24.4809L80.9693 23.7232L79.7151 26.2151L81.4773 26.2824L81.6996 27.057L83.9856 27.0065L85.4145 27.781L86.5259 27.8315L87.1133 27.1243L90.479 27.6463L91.4792 27.2422L91.4157 35.2231L93.2255 35.0211L94.0987 36.6038L96.2261 36.4017L96.3054 37.5467L94.9242 37.6814L94.3527 38.5233L94.6226 40.8468L93.5271 42.8L94.7814 44.1806L96.5277 44.3827L96.9246 45.595L95.7974 46.0496L96.369 46.9251L96.3531 48.5415L94.8766 48.9119L94.7655 49.6696L93.4319 50.1411L94.1781 60.6981L96.4484 63.5605L95.5116 65.0927L95.7498 66.4902L95.1783 66.507L96.5595 67.5341L96.2261 68.3928L97.9089 69.824L99.4489 69.4704L99.8934 70.5143L102.64 69.1505L103.466 75.1278L104.482 74.8079L105.91 76.2054L102.751 78.3101L102.973 80.1453L102.275 81.004L102.18 82.8562L104.434 84.119L109.26 83.5128L111.213 85.5165L111.181 87.8232L112.404 89.8605L112.293 90.955L111.61 91.6621L112.134 92.7229L113.737 93.6321L116.801 93.6995L116.658 94.7602L123.549 97.2353L122.945 99.6936L124.073 100.367L124.12 101.714L123.263 103.229L124.501 105.923L135.345 106.715L135.376 110.773L136.297 111.547L137.17 111.311L138.186 112.254L136.726 116.211L137.202 118.131L130.947 118.265L126.692 117.676L126.438 118.45L124.358 118.754L123.787 120.892L123.977 122.795L121.913 122.879L121.469 125.084L122.231 126.566L121.913 129.344L120.85 130.338L121.008 133.874L119.04 134.244L118.961 132.678L115.261 132.695L115.373 135.204L113.325 135.221L113.34 136.45L112.689 137.325L104.259 137.393L104.053 139.514L98.417 139.682L98.4011 142.983L96.1467 143.016L95.8926 145.677L94.7337 145.778L94.7814 148.775L95.2577 149.28L94.956 151.317L95.7816 151.738L95.7021 158.625L94.8608 158.658L94.9242 160.005L93.0033 160.477L91.3521 164.08L91.4633 165.663L97.6232 165.865L97.0992 167.969L97.3215 169.35L96.8453 169.956L95.0354 170.023L94.9242 171.286L91.9872 172.027L92.654 173.492L92.2412 179.621L91.0505 182.247L88.3199 185.75L86.7323 186.036L84.7953 182.635L82.8108 181.961L81.0804 183.847L79.08 183.173L77.7147 183.409L73.7139 182.062L68.205 184.15L63.5691 184.672L59.4255 183.426L54.6627 184.554L53.5514 185.548L53.8848 186.996L52.1226 187.753L43.883 200.398L41.7873 202.385H41.3586L43.1367 200.482L42.8351 198.748L41.1047 196.845L38.3898 195.482L35.7862 197.081L34.5002 198.546L32.3887 199.085L29.1818 201.055L26.9274 197.266L30.7535 193.983L31.0869 194.37L33.3095 192.99L30.6106 190.767L32.4522 188.006L31.1504 186.44L30.0867 187.349L24.9429 184.773L26.3717 183.847L25.7684 180.631L24.7682 180.9L22.8948 177.971L22.4662 178.156L22.2439 177.482L21.5772 177.937L21.4025 176.944L20.8151 177.651L20.3229 176.792L19.7355 177.011L17.878 174.704L19.7355 174.586L19.5133 174.132L23.7204 174.536L21.7518 164.753L22.7043 164.585L22.9584 165.343L27.2131 165.056L27.7688 166.185L30.0708 165.09L29.9597 164.45L32.1982 162.935L31.4838 159.988L33.0396 159.567L34.4049 162.817L36.5323 161.672L36.0878 160.19L38.1517 154.853L38.5962 154.819L38.7391 152.159L35.9132 152.024L36.0878 151.199L35.3099 150.829L34.0398 153.321L30.2137 149.718L29.8168 150.122L26.9274 144.986L25.8319 146.232L24.673 144.262L23.895 144.852L22.7996 143.185L20.0054 145.559L16.5127 139.16L13.0518 140.928L12.0674 140.44L11.9245 139.262L13.0518 139.009L13.0041 138.184L10.9244 138.538L10.5751 136.197L12.4008 135.894L12.5278 135.322L13.5756 135.625L14.4965 133.958L10.3211 134.429L9.68605 130.321L8.90809 130.27L8.08256 124.748L3.6373 125.404L3.58963 122.778L4.24055 122.626L4.66923 120.673L4.46283 119.865L3.4309 120.117L3.04985 117.491L1.57339 117.592L1.19238 115.285L3.78018 114.746V113.972L6.4156 113.989L5.78052 110.503L3.46264 110.789L3.034 107.573L3.81191 107.338L2.57359 106.277L3.68493 105.553L2.76409 103.852L3.44675 102.842L3.1451 100.468L4.4311 100.047L4.35169 99.5757L5.4154 100.317L6.89186 99.4747H6.33619L7.1141 98.8685L7.59041 99.862L8.33658 99.6768L10.2417 100.603L10.5751 100.064L11.8293 101.327L12.1627 102.876L12.893 102.371L13.5915 103.314L15.1632 102.825L15.5601 103.836L17.8304 104.475L18.1003 102.809L19.0529 102.825L20.1007 100.552L18.8782 91.7126L19.5927 92.2514L19.9737 91.0392L20.6246 91.3759L20.9262 90.8203L22.3233 90.8539L20.9262 80.9367L18.91 81.2229L18.7353 80.3137L15.9729 80.6505L15.4808 77.6871L15.7189 76.2391L16.4492 75.5992L16.1317 72.7032L16.7667 72.4001L16.2428 72.0129L17.0049 71.5246L17.7828 71.7603L17.5446 69.5209L16.9255 69.4704L16.6715 66.0019L17.9415 65.6315L17.7193 63.2237L20.6881 62.6681L20.4182 60.7318L18.8147 60.2099L18.1797 58.6608L15.6395 58.6271L15.3855 56.253L13.8932 55.8826L12.1309 56.2362L11.7816 53.6938L10.8767 51.4544L10.464 48.0364L11.1307 47.9017L11.5911 46.942L10.4163 43.7092L10.194 41.5035L9.22563 41.5203L9.05097 40.9815L10.6545 38.3885L12.2421 38.759L12.3056 39.7861L13.5121 40.4596L15.8142 40.5942L16.1475 41.1667L17.0684 41.0489L17.9574 38.6748L23.9744 39.3146L27.4036 43.1199L28.0387 41.7392L26.9909 41.6213L26.9274 40.9478L25.4826 39.685L26.1494 38.5906L26.7051 38.6411L26.975 37.3278L29.3246 37.6814L29.6263 35.9808L30.3248 36.1155L30.9757 34.4823L33.5794 35.2063L33.3413 36.0313L35.9925 37.6477L36.0561 32.0745L37.1674 31.2663L37.9136 29.6331L40.0092 29.6836L40.1362 28.303L43.2956 28.4208L43.5495 26.8886L42.3588 26.5855L42.9144 25.289L41.5809 24.0431L42.2001 23.2686L42.6764 23.5885L43.0415 22.9992L42.4382 22.6456L43.9146 21.9384L44.1369 21.1639L44.9942 22.2078L45.6927 22.1068L45.8516 19.3454L46.6613 19.4296L46.4072 17.2913L47.4867 17.0892L48.1059 16.2137L49.8365 16.4326L49.9158 16.9377L50.6937 16.3652L51.4716 16.6683L51.3129 16.2305L52.9005 15.4728L52.6148 13.6376L51.8685 12.863L52.3131 12.4084L54.9644 11.9201L59.8224 9.1588L58.4094 7.4414L52.6464 5.15151L55.0437 2.65955L55.7582 1.80086L58.7746 1.34624L68.459 4.00655L70.0466 3.63613L70.0783 4.07392L71.1102 4.17494L71.4754 2.15445L72.4755 0.958984Z" fill="#75B663" stroke="white" stroke-width="0.5"/>
</svg>
