<svg width="168" height="174" viewBox="0 0 168 174" fill="none" xmlns="http://www.w3.org/2000/svg">
<path d="M0.956055 57.2828L5.51246 56.0873L10.5293 53.7301L17.3877 52.9556L25.6432 50.0427L29.0407 50.2953L32.7239 51.8443L40.2174 53.6796L42.7258 53.5786L44.7896 52.5178L45.2501 51.1035L44.8373 49.487L43.5831 49.7059L44.2022 48.8809L42.8845 48.2074L43.472 47.938L43.4084 47.0625L43.7418 47.5339L44.1705 46.7426L43.5037 43.9139L42.6623 43.9644L42.1384 40.9336L43.9006 40.3949L43.5037 37.5662L44.8214 37.3978L44.7261 35.1752L45.1866 34.99L44.8532 32.7507L41.4239 33.3905L40.7095 28.3729L41.932 27.43L41.7256 25.6116L40.2332 25.6789L39.6935 23.389L37.3597 24.534L36.55 20.2405L39.2172 19.8364L39.0902 18.7756L40.4238 18.2368L40.7571 19.1797L42.6782 18.7251L42.1066 14.4484L40.138 14.5999L39.6617 11.9565L39.0584 11.9228L38.6774 8.92572L40.5825 8.48795L39.5188 1.87083L40.7095 1.83718L40.8207 2.30862L42.6782 2.03922L42.6623 5.44038L46.3773 4.93526L46.663 5.50772L49.1238 4.83424L50.3621 2.84741L52.6324 1.95503L56.395 2.0729L59.0304 0.94477L60.4751 1.68562L62.8724 0.84375L65.2856 2.67905L75.0493 5.10361L75.2557 6.63583L85.0353 1.3152L87.0992 4.98577L90.5284 4.69953L90.9729 7.3935L99.0856 5.17098L100.022 5.87815L100.07 6.53481L99.3396 7.02308L99.419 8.10067L99.8476 7.73027L100.229 8.11753L99.6095 9.12776L103.737 8.11753L104.436 11.0641L102.737 11.7544L103.118 12.8152L104.293 13.1351L104.722 15.4755L103.61 16.0984L103.69 16.5362L104.833 16.1153L105.436 19.0955L106.738 18.1863L107.325 19.1124L106.754 19.6511L107.786 21.3854L107.119 24.6013H104.706L104.896 26.1336L109.151 26.0999L111.278 25.1402L110.866 26.8912L111.437 27.43L115.152 27.4469L115.771 28.7434L118.534 28.3224L118.486 26.6724L121.09 26.8912L121.248 27.6153L125.614 28.0867L128.932 27.6489L129.059 26.9417L132.314 26.0662L133.346 25.8136L133.552 26.6218L133.124 28.575L132.473 28.7265L132.52 31.3532L136.966 30.6965L137.791 36.2192L138.569 36.2697L139.204 40.378L143.38 39.9066L142.459 41.5735L141.411 41.2704L141.284 41.8429L139.458 42.1459L139.807 44.4863L141.887 44.1328L141.935 44.9578L140.808 45.2104L140.951 46.389L141.935 46.8773L145.396 45.1093L148.889 51.5076L151.683 49.1335L152.778 50.8004L153.556 50.2111L154.715 52.181L155.81 50.9351L158.7 56.0705L159.097 55.6664L162.923 59.2696L164.193 56.7777L164.971 57.1481L164.796 57.9731L167.622 58.1078L167.479 60.7681L167.035 60.8018L164.971 66.1393L165.415 67.621L163.288 68.7659L161.923 65.5163L160.367 65.9372L161.081 68.8838L158.843 70.3991L158.954 71.039L156.652 72.1334L156.096 71.0053L151.841 71.2915L151.587 70.5338L150.635 70.7022L152.604 80.4847L148.396 80.0807L148.619 80.5352L146.761 80.6531L148.619 82.9598L149.206 82.7409L149.698 83.5997L150.286 82.8925L150.46 83.8859L151.127 83.4313L151.349 84.1048L151.778 83.9196L153.651 86.8493L154.652 86.5799L155.255 89.7958L153.826 90.7219L158.97 93.298L160.033 92.3888L161.335 93.9547L159.494 96.716L162.193 98.9385L159.97 100.319L159.637 99.9319L155.81 103.215L158.065 107.004L156.446 108.132L154.048 108.57L149.587 112.627L147.333 117.039L145.015 123.572L142.078 127.764L140.982 127.714L142.57 126.552L142.84 125.424L145.015 123.302L145.459 122.09L144.364 119.531L142.316 117.376L139.315 115.574L133.79 115.776L131.584 117.056L123.122 120.07L121.058 121.568L117.264 126.451L111.516 136.941L110.04 138.692L108.929 138.422L107.087 139.651L106.611 139.601L106.722 138.843L107.579 139.18L108.468 138.523L109.072 136.907L110.088 136.823L112.342 134.987L114.628 130.845L114.676 128.303L113.279 126.148L110.786 124.582L108.945 124.683L106.611 125.676L102.038 124.818L96.9423 125.474L94.0687 126.737L86.226 131.586L79.0342 139.837L71.3184 143.793L66.3334 150.781L56.649 167.905L53.5691 170.481L46.5043 173.225V171.205L48.8222 169.336L48.6951 168.258L50.3304 167.349L54.4899 166.524L58.57 164.453L59.0939 161.708L62.7295 156.32L63.1741 153.98L64.2377 153.744L66.2699 150.31L65.8571 149.99L64.9998 150.461L64.2854 152.364L63.3011 150.714L61.3325 150.512L60.7133 146.858L61.6976 145.326L61.6499 143.945L61.1261 143.086L58.443 142.025L57.3793 139.971L56.6966 139.719L57.2364 138.119L55.7123 139.062L56.8871 142.716L58.189 143.928L58.2842 147.43L57.1571 149.518L53.9025 151.724L52.5371 155.074L50.9972 155.226L50.0287 140.173L48.2348 140.426L44.1229 137.732L41.2652 138.187L40.773 135.661L41.5033 135.442L41.2176 133.203L34.0257 134.415L33.5971 131.805L32.1841 131.856L31.692 128.875L33.9781 128.185L33.4701 123.454L30.1202 123.908L29.9615 122.797L27.4213 123.1L26.9927 120.036L28.7549 119.766L28.6596 118.672L32.8985 118.049L32.8827 117.308L33.6288 117.258L33.6447 115.473L34.4385 115.439L34.0098 111.87L37.2486 111.348L36.5976 106.852L33.8511 107.105L32.9303 100.269L30.3108 100.706L30.1044 98.9554L26.8022 99.3932L26.6116 97.7431L25.5797 97.6926L25.0875 95.1501L23.881 95.3185L23.1189 88.2973L21.3567 88.4657L19.8009 76.6795L21.8806 76.2754L21.6901 74.9116L21.2614 73.5814L19.7373 73.8339L19.1976 71.039L20.928 70.4833L21.1662 69.1026L15.7366 70.2308L15.943 72.1334L14.8634 72.3691L15.0222 73.2447L13.5774 73.5646L12.6725 72.7732L11.1325 72.9921L9.91009 74.3222L9.1957 73.6993L8.13199 66.9306L7.41755 66.9643L6.43324 60.8354L5.51246 59.7579L0.956055 57.2828Z" fill="#75B663" stroke="white" stroke-width="0.5"/>
</svg>
