<svg width="135" height="105" viewBox="0 0 135 105" fill="none" xmlns="http://www.w3.org/2000/svg">
<path d="M27.9418 5.1757L29.45 5.9502L30.4184 4.9568L33.2126 5.64714L34.0064 4.75476L36.4195 7.17933L37.388 7.11199L38.15 9.16616L40.4679 8.66103L40.6267 7.73497L39.6424 6.67423L39.9916 6.00071L43.0398 7.81916L41.1188 9.2335L41.992 12.0117L40.9124 12.0285L39.6265 13.0724L39.5789 14.5036L40.6902 17.3323L42.7382 19.1676L44.548 19.9421L44.9767 22.6193L45.7705 23.68L46.4532 23.9494L47.3898 22.6529L48.5805 22.1815L49.5331 22.5351L51.6446 21.1544L53.4862 22.2488L53.5656 23.6127L54.4864 23.8147L57.2171 30.0277L60.5828 29.893L61.71 28.7986L63.8691 30.6507L65.8378 29.2869L66.6474 31.5768L69.1082 32.8059L71.6642 33.6309L73.6488 32.4355L75.8714 32.9238L78.1893 33.5636L78.6497 34.6748L79.9515 34.7085L80.6342 35.3483L80.7136 36.7459L84.3333 40.5174L88.7786 40.77L89.0961 44.6763L91.9855 47.808L94.9861 47.1682L96.018 48.6499L95.0972 53.7685L95.8275 55.2165L98.4312 55.9237L99.0027 55.4354L98.8439 54.644L99.9711 51.9164L102.019 52.3205L103.67 51.024L104.258 51.4281L104.988 50.2663L106.639 49.5423L107.338 50.3168L106.83 51.226L106.909 53.297L107.719 54.2736L106.861 55.6038L107.004 57.2201L107.83 58.1799L107.607 60.2677L108.274 60.9749L108.131 62.103L109.751 63.2648L109.719 63.8709L113.164 64.6286L113.831 65.3695L115.545 62.726L115.45 61.5474L118.276 62.1703L119.197 63.0291L118.927 64.4265L119.705 65.4368L122.372 66.9185L123.833 69.2589L126.135 71.1279L126.548 71.9865L126.167 74.2764L128.373 75.253L129.421 76.5495L128.103 78.048L128.278 78.5868L127.548 79.294L128.024 80.2032L127.087 81.6512L128.58 84.5641L129.786 85.0524L130.136 86.2984L132.247 87.7127L133.723 90.996L131.04 93.4543L130.405 97.8993L129.77 98.6907L128.278 98.556L127.468 99.3474L123.42 97.731L121.166 99.1285L120.546 101.418L118.816 102.412L117.482 101.452L115.117 103.136L113.863 103.052L112.323 103.927L110.37 102.159L106.052 102.429L105.131 100.526L103.369 99.2463L101.781 99.5326L100.511 98.0172L99.1615 98.6907L98.8281 98.0845L97.5104 98.3876L96.923 99.6673L93.7319 100.122L92.8428 100.947L91.8426 100.273L90.5408 97.0743L88.1594 95.6768L86.5559 95.5084L82.1424 96.5692L79.3641 94.5319L76.7287 94.936L74.7601 93.5553L74.3632 95.5758L72.9343 97.9667L70.5688 97.2427L69.648 96.0977L68.6002 96.2324L67.7905 95.0707L66.5363 94.9191L65.1392 93.4879L64.1708 93.5048L64.3613 92.0062L62.0275 91.3327L61.3766 90.5582L61.964 89.026L60.7733 87.8811L60.6463 86.7361L59.9478 86.6351L59.535 87.3423L56.6297 86.9045L55.9788 85.1871L55.2961 84.985L54.3753 85.6754L53.8038 87.1234L52.4543 87.7632L52.9464 88.5882L51.978 89.5648L52.3114 90.6256L51.6287 91.5516L52.1368 92.1915L51.2001 93.5553L51.597 93.8752L51.2795 94.7171L48.136 94.8854L47.1676 96.0641L44.8497 94.2624L44.2623 94.5655L42.5 93.6226L42.0396 94.7002L43.0398 95.3906L43.5796 98.0677L40.7854 99.0106L40.3727 97.8657L37.7531 96.7712L37.5309 96.1146L39.1026 94.2624L39.944 90.6929L39.2455 90.9118L38.8803 89.0765L37.6102 88.302L36.8641 86.8203L36.9593 85.2544L36.4513 85.1366L35.9274 86.1131L35.6734 84.783L35.1336 85.1871L34.1334 84.8167L34.3398 85.5744L33.8794 85.9111L33.2602 85.0019L32.1489 84.9682L28.5927 87.3759L24.2903 85.9616L24.703 85.1366L24.1156 83.1498L24.6395 82.9477L23.8616 81.5839L23.4012 81.6849L22.8138 80.0348L23.1948 78.4016L21.0992 77.3409L20.1943 75.876L20.226 74.9163L19.2576 74.6974L19.4798 73.9734L18.7019 73.5019L17.0984 74.529L15.7807 73.6535L14.0661 73.8387L12.9866 75.0678L10.748 71.3299L10.5893 68.9727L9.33508 67.4573L9.63673 65.1506L6.89018 64.5107L5.47722 62.3724L6.76317 60.2677L5.25495 60.1667L3.68323 58.8534L0.365148 60.8402L0 57.9947L1.1907 46.7641L2.41315 43.6492L4.15951 42.0328L4.98506 42.0159L6.11226 39.8608L8.90643 37.3351L10.8592 36.6785L12.0499 32.4355L12.0023 31.7451L11.0497 30.9369L11.1926 29.9772L13.3993 26.6771L12.7961 23.68L13.1453 21.4575L13.9074 20.0936L15.1933 19.3023L15.7649 16.2547L15.4156 15.5307L18.0828 11.4392L18.3209 10.0754L19.5592 9.43556L20.607 9.68811L21.9406 8.82941L21.4961 7.58344L22.2264 6.87627L22.3216 2.66691L23.3853 1.37043L24.2109 1L26.2589 2.43119L27.9418 5.1757Z" fill="#75B663" stroke="white" stroke-width="0.5"/>
</svg>
