<svg width="157" height="211" viewBox="0 0 157 211" fill="none" xmlns="http://www.w3.org/2000/svg">
<path d="M67.7347 23.0497L64.8612 23.74L65.3374 20.7093L62.1622 20.4567L58.3996 16.4326L57.9868 15.6917L59.6538 14.1595L58.7647 10.5058L59.3204 10.1354L58.3996 9.89965L56.0182 6.54901L53.7321 4.54535L51.3348 3.66981L49.8266 2.1376L49.1598 4.15809L47.2705 2.49119L46.9213 2.6764L47.2864 4.00656L46.8419 4.27596L41.317 2.77743L41.063 4.10758L39.9358 4.86527L39.2055 4.61271L38.6181 5.825L36.5701 4.14126L34.8396 4.61271L34.2046 5.25253L34.5538 5.75765L33.8871 8.1654L31.9819 7.10464L30.5214 7.77814L29.934 6.86892L29.3148 7.08781V8.50215L26.7111 7.05413L25.7586 4.19177L26.7429 3.72032L26.6476 1.81769L26.2507 0.470703L25.1394 0.487538L24.7584 1.26206L22.8374 2.17128L22.5992 2.9458L21.9642 2.6764L21.2021 3.26571L20.6782 2.76059L20.0908 3.80451L19.3447 3.97288L19.3129 5.47141L18.0111 6.58269L15.6773 4.98313L14.4866 8.01386L14.6295 10.1354L13.6293 12.4084L8.78713 11.1793L7.24715 12.0212L6.0247 13.6207L6.04056 14.4626L7.91394 14.1595L8.15207 19.1939L5.83419 23.7568L4.45296 23.9757L4.48472 23.4201L1.11902 24.565L2.57961 32.2429L3.84969 37.0247L4.31009 37.1594L4.57997 34.4149L5.46903 34.1792L8.91411 36.688L11.3908 40.5101L14.0421 43.0694L11.5972 47.0935L11.7242 49.9053L12.264 50.5115L10.4065 49.737L8.89825 49.838L8.81886 53.1045L10.1207 53.5759L11.4384 54.9902L12.5815 58.0041L14.2643 59.4522L14.7089 60.4961L13.534 63.2911L15.0423 64.3687L15.7567 64.0151L16.1536 65.3789L13.9468 64.9243L13.2483 65.3284L13.407 66.5912L14.566 67.3489L13.8992 67.8709L14.1215 68.8138L12.0417 69.1L13.9627 69.5714L15.2804 68.7127L17.4554 69.0832L17.503 70.9353L18.8366 72.8547L17.7094 75.6329L15.2963 77.5019L15.2486 78.7142L13.9786 79.5055L13.0578 79.0341L12.5974 79.354L12.2957 79.7581L12.772 80.5158L11.8353 81.5429L12.01 82.048L11.1526 81.8796L11.3432 82.3847L10.6446 82.7046L13.2007 85.1124L13.8039 86.7961L13.6134 88.9345L12.899 90.1468L11.4384 90.0121L11.8353 90.9886L11.4543 92.0662L13.8674 93.3459L14.0897 95.8883L12.6609 97.0164L11.1844 96.023L10.8193 97.6057L13.3277 97.9256L13.534 98.8349L11.9306 100.973L10.4858 100.855L11.3273 102.253L12.4069 101.983L12.9625 101.091L16.9474 100.367L18.3921 102.606L18.4556 104.543L19.5193 104.829L19.9321 105.604L20.964 105.065L19.7892 107.675L20.329 108.668L22.7897 109.409L23.9646 109.106L23.0596 111.564L23.6947 113.079L22.4564 113.584L24.4091 117.508L23.6471 117.861L23.0279 119.848L21.3927 121.784L23.9487 124.36L22.1706 126.667L22.0753 127.425L23.0755 127.509L21.599 128.62L24.1233 131.752L23.9963 134.261L23.0755 135.035L24.2027 137.426L23.8058 138.117L25.314 139.952L25.06 140.491L26.2348 142.73L25.7586 143.858L22.8533 145.559L24.1075 146.3L21.7737 148.606L22.4881 148.977L21.7578 149.819L21.1704 149.448L20.075 150.997L19.1542 150.66L18.8366 151.654L16.1695 152.378L15.7567 153.792L13.9945 152.428L13.153 153.169L13.4229 153.994L12.645 155.24L11.9941 154.23L10.8986 155.24L10.2001 155.038L11.5337 158.827L10.2636 161.84L10.7399 163.204L13.2641 163.238L13.0578 166.976L14.3755 167.565L13.8198 168.761L15.3439 169.889L14.0421 171.219L13.6293 173.576L15.2328 176.809L15.8361 180.025L17.3443 181.507L18.1857 181.305L18.0746 182.197L16.1218 183.157L16.3123 184.184L18.6302 186.154L16.7569 189.555L13.8833 191.037L13.6293 192.855L14.6136 193.714L14.8676 196.222L15.7249 197.468L17.503 197.384L20.0432 198.933L19.6145 200.28L19.8368 201.56L20.4401 201.627L19.6622 202.604L21.218 204.069L22.4564 203.833L23.7423 204.826L24.2662 203.21L25.0124 202.806L25.4728 205.197L26.2189 205.651L27.362 205.921L26.7905 207.217L25.8062 207.588L27.8542 209.995L30.4896 209.44L30.9183 210.13L32.7281 209.271L34.2522 209.423L33.7759 208.16L34.9825 207.722L36.8083 203.934L38.1101 203.378L38.0466 200.971L37.3639 199.287L37.6814 198.327L38.3165 198.698L40.3327 198.108L41.19 196.829L42.0156 196.61L44.4605 197.351L45.1114 200.567L46.2069 201.964L47.0324 200.634L46.3021 199.001L47.4293 198.462L48.3184 196.441L48.4771 197.266L51.2554 196.963L50.6204 201.543L59.9396 203.244L60.0666 204.826L60.5587 204.911L61.8923 199.304L63.0037 198.967L62.8131 196.879L64.0832 196.475L64.1308 194.859L65.9089 193.697L68.3539 196.93H69.4017L71.1639 194.673L71.8624 194.96L73.1167 193.326L74.7678 194.488L76.6888 194.505L79.737 196.61L80.8006 195.482L82.5787 195.498L83.5789 194.673L87.0717 194.842L88.0083 194L89.3102 194.219L90.0087 192.299L90.5644 192.283L90.7866 189.993L89.9928 189.218L94.0254 188.578L94.6128 187.736L94.5175 186.389L95.8352 184.487L96.6766 185.75L96.4226 184.285L97.5975 183.847L99.2644 182.13L99.6613 178.089L100.296 177.045L100.868 176.758L101.725 177.701L102.011 176.876L102.503 176.944L101.82 175.411L102.344 174.839L101.312 174.671L101.598 172.734L105.297 166.757L105.139 165.359L105.853 165.73L106.123 165.023L104.996 164.349L105.567 161.857L106.139 161.47L105.393 159.786L105.805 157.665L104.456 156.503L106.059 152.849L105.535 151.014L107.377 149.768L108.25 150.593L109.949 148.253L114.505 146.72L114.632 146.064L113.172 143.723L112.394 143.471L112.362 142.797L113.029 142.309L111.029 141.147L109.838 141.72L111.124 140.154L110.203 140.036L110.663 138.824L115.061 138.436L117.061 138.807L117.966 139.682L118.189 140.373L117.061 143.791L117.109 146.72L118.03 148.791L119.427 149.128L119.887 150.357L120.951 150.155L121.269 151.721L121.919 151.536L122.189 149.229L124.269 148.892L124.841 147.175L125.682 146.906L125.952 146.081L127.159 146.165L127.413 150.694L132.731 151.199L134.779 147.495L135.795 147.411L135.684 145.121L137.129 143.74L138.161 140.962L142.05 141.248L142.749 143.151L143.654 141.08L142.669 136.298L146.194 134.109L147.035 134.244L147.273 133.419L144.178 132.628L143.019 132.931L143.225 128.94L146.559 126.97L145.797 125.64L145.194 125.859L144.606 124.057L146.146 124.529L147.94 120.757L147.702 120.134L148.782 119.781L151.052 121.313L152.64 118.299L153.735 118.434L154.259 117.693L152.814 115.992L153.64 113.012L153.322 112.608L155.577 111.008L154.989 110.015L156.148 108.247L155.767 107.22L155.64 106.614L156.561 105.334L156.37 104.627L154.37 104.24L152.576 104.795L152.147 103.162L153.338 101.192L150.671 102.505L149.306 97.3532L146.242 96.2419L146.813 95.2485L146.051 94.8107L147.099 94.9454L147.226 93.9184L148.035 93.8173L148.432 94.7434L150.369 94.0867L151.354 92.5714L150.814 91.5106L151.354 89.8942L145.432 89.6248L143.781 85.1124L141.685 84.0348L140.367 81.9133L137.811 82.6541L137.78 83.9843L136.398 84.2537L136.652 86.392L136.049 86.7624L136.192 88.2778L131.159 87.9916L130.111 89.1365L129.016 88.7829L129 90.5509L128.175 91.5779L124.936 91.1233L124.11 91.8979L122.348 90.9381L122.062 91.6116L120.697 91.5779L117.871 93.4974L116.68 93.3795L116.458 92.0326L114.124 90.5172L111.918 93.5142L111.346 91.2075L108.044 89.8774L108.076 88.3957L107.631 88.4462L107.425 87.4359L104.345 86.8298L104.329 85.6343L103.265 85.6175L103.297 83.8327L105.964 84.0348L106.44 83.4623L106.012 82.8393L106.377 82.2163L104.996 80.7515L106.186 78.3437L105.964 76.1717L105.361 75.9528L105.329 75.1951L104.488 75.4982L104.424 73.5114L103.17 73.4104L103.218 72.5854L100.868 71.0531L100.979 68.9148L98.3754 68.4602L97.8197 69.8745L91.9615 69.9419L91.5804 70.5143L88.9133 69.723L88.3259 69.0495L87.6115 69.5378L87.4209 71.4236L86.2302 71.6593L85.3412 71.6088L85.1189 70.6322L85.8175 70.7501L85.8651 69.8072L87.4209 68.4939L85.2618 70.2113L82.1184 68.6285L80.1339 69.1674L80.0068 68.0561L80.6895 66.6586L79.8481 65.2274L80.5784 64.9412L81.4039 65.6315L81.6103 64.4192L82.3565 63.7289L81.7056 59.8057L80.118 58.846L79.8322 58.0378L77.3556 57.3306L76.1013 53.357L75.1012 51.8922L75.0694 48.6594L72.9897 47.7333L72.7674 46.2685L67.4331 46.622L67.0838 43.9281L67.83 41.9749L66.5599 40.0891L68.0522 39.3315L68.2903 38.658L67.0044 36.6543L66.8139 33.472L67.4013 32.6133L68.7984 32.8154L69.4652 32.3608L68.1951 31.6873L68.973 30.1214L67.5601 28.1009L68.0205 27.5453L69.8938 27.7473L70.386 27.3264L70.3066 25.9625L69.4652 24.7502L67.7347 23.0497ZM84.6585 90.7192L83.6424 91.3927L82.5153 91.056L81.1817 91.7295L80.3561 93.9352L81.2769 98.1782L83.6266 100.047L83.9282 103.095L81.7849 106.142L78.7209 107.675L76.2601 105.974L74.9265 106.142L74.4185 106.816L74.2121 109.358L74.8313 109.863L75.0376 111.901L74.2121 113.416V115.117L74.8313 117.827L73.4024 119.511L71.7672 118.838L70.2272 116.295L69.0048 112.574L68.4967 108.331L66.8615 108.5L65.4327 107.136L64.5119 106.967L63.1783 102.724H61.543L60.7175 102.051L60.0031 98.6497L57.9551 98.3129L55.9071 98.9864L54.891 99.6599L54.4782 100.855L53.3511 101.024L52.9383 99.4915L54.6846 94.8949V93.1943L57.1454 90.1299L58.5742 90.4667L59.0823 89.4396L58.6695 88.4125L56.5263 86.8803L56.431 86.0216L56.939 85.6849L61.2414 85.3481L65.0199 86.0216L69.8303 91.4769L72.2911 89.9447H76.8951L77.9112 89.086L78.9273 86.8803L80.7689 86.2068L83.7377 87.2339L84.6585 88.261V90.7192Z" fill="#75B663" stroke="white" stroke-width="0.5"/>
</svg>
