<svg width="33" height="35" viewBox="0 0 33 35" fill="none" xmlns="http://www.w3.org/2000/svg">
<path d="M28.6617 7.77349L28.3601 10.1476L28.9793 11.0063V12.5385L31.6305 15.0809L31.9322 18.1285L29.7889 21.1929L26.7249 22.7083L24.2641 21.0245L22.9305 21.1929L22.4225 21.8664L22.2161 24.4089L22.8353 24.914L23.0416 26.9513L22.2161 28.4667V30.1672L22.8353 32.8781L21.4064 34.5618L19.7712 33.8883L18.2312 31.3459L17.0088 27.6248L16.4849 23.3986L14.8496 23.567L13.4208 22.2032L12.5 22.0348L11.1664 17.7917H9.53118L8.72149 17.1182L8.00705 13.7171L5.95908 13.3803L3.91106 14.0538L2.89503 14.7442L2.48223 15.9228L1.35505 16.0912L0.942261 14.5758L2.68863 9.97919V8.27861L3.49827 6.91478L5.1335 5.2142L6.56238 5.55095L7.08626 4.54071L6.67347 3.51363L4.53025 1.98142L4.41911 1.12272L4.92715 0.785962L9.22953 0.449219L13.008 1.12272L17.8185 6.57802L20.2792 5.04583H24.8832L25.8993 4.18713L26.9313 1.98142L28.7729 1.29109L31.7417 2.31817L32.6625 3.34526V5.71932L31.6305 6.40965L30.5034 6.07291L29.1698 6.74641L28.6617 7.77349Z" fill="#75B663" stroke="white" stroke-width="0.5"/>
</svg>
