<svg width="224" height="130" viewBox="0 0 224 130" fill="none" xmlns="http://www.w3.org/2000/svg">
<path d="M167.981 1.08594L169.791 2.012L171.934 2.26455L174.268 1.18696L175.03 1.92781L174.824 3.88095L175.364 4.77334L176.57 4.92487L177.57 6.32237L181.666 6.50759L183.953 10.3129L183.492 11.4578L184.095 12.468L184.302 15.2799L185.683 15.0105L186.524 15.9197L188.922 15.7177L188.89 10.0603L188.398 8.3092L188.763 8.24184L189.811 9.60567L189.97 10.9358L190.462 10.7001L191.906 12.1144L191.224 13.9666L189.938 14.438L190.827 15.2967L192.16 15.583L191.97 16.1386L192.938 17.0141L192.684 18.2601L193.494 20.1459L191.795 22.099L193.383 25.7696L192.573 26.0895L192.875 26.7293L194.605 26.4431L197.257 28.6319L197.558 26.14L198.511 26.1232L198.543 26.662L198.908 26.1737L200.972 26.4431L201.337 26.5441L201.178 29.6759L204.56 28.3794L205.147 29.9453L206.449 30.0126L206.115 29.4738L207.608 29.2886L208.576 27.7227L207.941 27.3523L209.799 25.6686L209.926 24.6415L211.418 24.2206L212.45 26.1232L214.053 27.5544L216.546 27.0829L219.515 27.7901L223.722 30.8208L222.738 36.0236L222.166 36.3267L221.356 39.5594L221.372 42.1187L219.594 41.8998L219.245 39.4416L218.372 39.6605L218.435 40.1656L217.245 40.3845L216.689 39.8794L215.212 40.6202L214.673 40.5023L214.307 38.8018L212.863 38.8691L212.386 38.263L210.973 40.3171L208.957 40.637L208.1 39.7615L207.036 39.9804L207.195 43.6509L207.56 44.2066L208.386 43.853L208.957 45.8735L210.672 46.5301L212.418 46.3617L214.958 48.9884L215.847 48.8705L216.038 49.8976L218.975 49.3757L218.737 51.6655L216.34 52.1538L216.657 54.6794L215.578 55.4708L211.116 58.1311L210.64 57.0198L208.56 57.0703L209.148 59.7475L207.37 60.3368L207.068 59.074L203.083 59.6296L203.131 60.5388L201.654 60.5894L201.702 61.3302L201.115 61.5996L202.464 74.6318L200.892 75.1032L201.019 76.9048L200.432 78.0161L201.226 78.5212L201.242 80.1881L203.432 80.0703L203.321 84.4817L204.258 84.6332L205.052 87.8491L202.67 88.5732L202.48 90.7452L201.543 91.1324L201.511 91.6544L198.781 92.1932L198.892 93.6412L192.7 94.6683L192.637 95.2913L191.446 95.4428L192.732 98.0021L192.033 97.9853L191.351 99.4838L190.573 99.2986L190.351 95.1061L188.922 95.2408L188.795 93.4223L187.207 93.5402L187.953 97.4296L185.493 98.0695L185.683 99.2312L188.334 98.5072L188.414 99.1134L187.747 99.2144L187.874 100.241L183.365 101.555L183.953 104.501L183.476 102.616L181.746 102.868L181.412 102.481L181.603 104.636L177.936 105.091L177.666 106.808L176.935 107.448L176.824 109.502L175.919 109.132L175.253 103.963L173.157 105.158L172.601 104.653L171.157 105.006L171.236 105.495H168.712L169.569 106.556L169.886 109.452L165.124 110.327L164.473 108.778L159.138 109.738L159.392 112.735L161.44 112.297L161.948 113.947L157.027 114.907L157.217 116.119L158.313 116.035L158.741 118.796L157.646 118.998L157.884 120.345L158.424 120.749L157.154 123.393L145.787 125.818L144.929 125.868L144.564 124.807L141.564 125.834L138.134 122.921L134.769 123.814L134.785 125.514L133.848 125.767L134.229 128.394L130.641 129.168L130.323 128.276L129.466 129.454L128.958 128.646L128.18 128.764L127.863 126.323L126.767 126.474L126.053 124.555L125.227 124.622L124.894 123.629L119.941 124.336L120.036 125.38L113.209 126.356L112.733 123.595L114.94 123.09L114.193 121.473L114.289 119.739L115.733 119.655L115.368 115.092L114.066 115.378L113.527 111.236L110.304 111.91L109.955 111.59L108.589 112.819L107.462 105.949L107.557 105.141L110.224 104.434L109.494 99.3828L105.605 100.14L105.065 97.9516L102.699 98.2884L102.223 96.6383L99.6034 97.1602L99.524 99.147L98.6826 99.6017L98.1746 98.844L97.349 98.9787L97.7618 102.296L95.6027 102.414L95.5074 103.188L94.7136 103.727L94.5231 102.515L93.6182 102.582L93.9992 101.033L95.0787 100.578L94.3961 97.1266L90.7446 97.8506L90.7763 98.5746L89.4428 98.8945L88.8077 96.8908L87.9028 97.9516L85.7119 98.4735L85.4103 96.5878L80.8856 98.1536L80.0283 93.5739L78.9488 93.7422L77.885 92.7993L78.536 91.6207L77.0436 89.4824L75.837 89.2635L75.71 88.489L71.2013 89.2298L70.9949 88.4048L67.137 89.2298L67.6926 92.2269L64.6604 92.4458L64.2952 93.9948L62.8981 94.601L62.1837 94.0116L60.5802 94.4831L60.1039 92.5804L59.0879 92.6646L58.4211 91.9575L58.3734 93.7086L57.2463 93.8769L56.7541 91.907L53.309 92.2269L53.0709 91.4187L49.2765 92.4121L49.6734 93.5739L48.0064 94.0453L47.7524 94.9377L44.2279 94.9882L42.6721 93.1193L41.4179 94.7862L40.9734 93.7591L34.3213 93.1361L30.781 95.8132L28.733 95.4596L27.4629 95.9985L23.986 94.7862L21.1125 94.7525L20.16 95.7122L17.3975 94.9714L16.1274 92.5131L14.7303 92.4626L14.9685 90.4253L13.9048 88.5226L13.0475 89.6676L10.7455 88.3543L8.50694 92.3953L6.22079 89.9875L3.47427 91.1493L2.75983 90.3579L2.29946 89.1793L2.83924 87.5292L2.23595 86.3506L2.34709 84.9868L1.10876 83.5051L1.1405 82.7811L1.80726 82.9495L2.44234 82.2423L2.93449 80.1544L3.98232 79.9019L4.42684 78.4538L3.125 76.6354L7.45916 72.6955L7.14162 71.921L11.7457 69.8499L12.7458 67.8968L17.08 67.1223L19.4296 69.53L20.5569 69.6479L22.3508 67.6274L22.6207 65.7585L23.2875 65.1018L26.3198 67.1223L26.9231 67.0213L28.3202 66.4656L28.2567 65.085L30.9397 64.4788L32.0034 63.5696L35.3691 63.0139L36.2265 59.1245L38.9095 58.3837L40.3542 60.0001L44.8788 59.7138L45.0217 57.7102L44.5614 57.2892L45.1805 56.481L43.0214 54.5447L44.3708 52.3222L46.5776 51.4972L47.2602 48.6516L45.4186 46.5806L47.2126 46.6817L48.0223 44.7117L48.6256 44.9474L48.7209 43.954L51.8325 42.5397L53.8329 43.23L54.8966 43.129L55.0554 42.405L57.6908 43.4657L58.1353 42.3545L59.2943 43.8361L61.9455 44.3244L62.5488 44.0719L62.6441 42.9943L65.3589 43.2468L65.216 42.2703L65.6288 42.2198L66.2956 42.9438L67.9943 42.6743L68.3753 43.2637L69.5184 42.9438L70.7726 43.8025L71.2965 43.5499L72.0585 45.1326L73.027 45.5704L73.3445 44.9811L74.4876 45.924L74.9798 44.7959L75.329 45.1158L75.8847 44.3413L76.5038 44.779L77.5517 43.0785L79.3774 43.4826L79.9648 42.3713L81.8223 42.6575L82.3779 44.1392L84.8864 43.3647L85.95 45.9745L87.2519 45.924L87.3948 44.9474L88.7283 45.8398L89.5063 44.1897L89.3951 45.3178L90.4589 44.3918V43.5331L91.3161 44.1055L91.6178 43.6173L91.0621 42.8764L92.618 41.4115L96.6346 39.4584L96.6663 38.263L98.3969 37.1012L97.9205 36.5792L98.7461 35.0133L98.3333 34.4409L99.4923 33.3801L98.8255 31.8816L99.2859 31.4101L98.6667 31.0229L99.5876 29.9958L100.223 30.5009L99.397 32.2352L101.636 30.6356L105.144 31.3428L105.954 28.3794L108.478 28.7498L111.05 27.6385L111.542 26.7967L112.638 28.0427L113.622 28.11L117.527 30.4504L117.496 32.5551L119.083 30.5009L122.274 29.8274L123.449 28.2952L124.672 29.4907L126.863 29.4401L126.688 30.5851L127.291 30.804L127.656 30.0968L129.768 29.9958L130.196 29.5748L130.26 27.4365L129.149 26.5441L129.212 25.4328L131.53 24.7088L131.975 22.6042L133.673 23.5976L134.483 17.3677L135.944 17.2835L136.007 15.6335L137.166 15.5998L137.277 15.1115L138.039 16.1218L140.818 15.4819L140.992 16.4417L141.675 16.2228L142.167 18.0749L141.849 19.1525L142.5 19.5734L144.723 19.9102L145.834 17.9402L146.326 19.0683L147.47 19.4724L147.089 19.9102L147.485 21.8465L148.803 21.2066L150.041 27.7059L151.454 27.6385L151.01 25.3318L152.867 26.0053L153.296 26.7293L154.55 25.5676L154.693 26.3589L158.472 26.0895L157.852 24.692L158.329 23.7996L159.361 23.968L159.519 24.6078L161.25 24.4058L161.44 25.4328L167.378 24.0859L167.394 23.244L168.886 23.0756L168.823 22.52L166.537 21.476L167.235 20.0954L166.552 16.7111L165.743 16.0207L169.871 14.1181L169.886 12.2155L163.631 9.94243L162.71 8.46073L163.536 6.37288L167.457 2.50027L167.981 1.08594Z" fill="#75B663" stroke="white" stroke-width="0.5"/>
</svg>
