<svg width="161" height="152" viewBox="0 0 161 152" fill="none" xmlns="http://www.w3.org/2000/svg">
<path d="M74.3327 142.648L78.3334 142.715L83.8106 141.873L86.4461 143.574L89.2561 144.382L88.6528 145.88L87.3827 145.948L86.5254 147.497L83.7789 146.722L82.0484 147.143L80.7783 148.557L80.5402 149.904L81.3498 150.898H80.9688L76.8252 146.2L72.7768 142.664L70.4589 139.095L71.8401 141.149L74.3327 142.648ZM5.78008 7.8135L9.32045 5.15318L15.9566 5.75933L16.4011 6.78642L17.6553 5.1195L19.1953 6.98846L22.7198 6.93795L22.9738 6.04557L24.6408 5.57412L24.2439 4.41233L28.0383 3.41893L28.2764 4.22712L31.7373 3.90721L32.2295 5.87718L33.3567 5.70882L33.4044 3.95772L34.0711 4.66489L35.0872 4.58069L35.5635 6.50018L37.167 6.01188L37.8972 6.61803L39.2784 5.99506L39.6595 4.46284L42.6918 4.24395L42.1362 1.24689L45.994 0.421875L46.2004 1.23006L50.7092 0.506042L50.8362 1.26375L52.0428 1.49947L53.5351 3.6378L52.8842 4.81644L53.9479 5.75933L55.0275 5.59095L55.8848 10.1707L60.4094 8.60486L60.6952 10.4906L62.886 9.96869L63.791 8.90792L64.426 10.9116L65.7755 10.5917L65.7437 9.86767L69.3794 9.14364L70.062 12.5953L68.9825 13.0499L68.6173 14.599L69.5222 14.5316L69.7286 15.7439L70.5224 15.2051L70.6177 14.4306L72.7768 14.3127L72.364 10.9958L73.1737 10.8611L73.6817 11.6187L74.5232 11.1641L74.6025 9.17733L77.2221 8.65537L77.6984 10.3054L80.048 9.96869L80.6037 12.1575L84.4933 11.4167L85.2077 16.4679L82.5405 17.1751L82.4453 17.9665L83.5725 24.853L84.9378 23.607L85.2871 23.9437L88.5099 23.2702L89.0497 27.4123L90.3515 27.126L90.7167 31.6889L89.272 31.7731L89.1767 33.5242L89.9229 35.1406L87.732 35.6626L88.1924 38.4239L95.0349 37.4473L94.9397 36.3866L99.893 35.6794L100.226 36.6728L101.052 36.6055L101.766 38.5249L102.878 38.3902L103.195 40.8317L103.973 40.7138L104.481 41.5388L105.338 40.3602L105.656 41.2526L109.26 40.4781L108.863 37.8346L109.815 37.582L109.784 35.8815L113.149 34.9891L116.579 37.902L119.579 36.8749L119.944 37.9356L120.786 37.8851L132.153 35.4605L133.439 32.8002L132.883 32.413L132.645 31.0491L133.741 30.8471L133.312 28.0857L132.217 28.1868L132.042 26.9576L136.963 25.9979L136.44 24.3478L134.392 24.7856L134.153 21.7885L139.472 20.8288L140.123 22.3779L144.886 21.5192L144.568 18.6231L143.711 17.5624H146.235L146.156 17.0741L147.6 16.7205L148.156 17.2256L150.236 16.0301L150.903 21.1992L150.347 22.2768L151.045 25.6106L150.299 25.9306L150.95 27.4123L151.649 27.7658L154.967 27.1092L155.253 29.9715L154.427 30.3419L155.046 34.1472L153.792 34.5345L154.3 38.3229L153.395 38.7775L153.728 40.3771L154.284 40.4781L154.506 42.3807L149.22 43.8287L150.506 52.5842L148.601 54.672L155.713 54.2511L155.634 55.8843L155.713 60.3967L158.126 58.8477L158.348 59.3528L158.602 61.2554L157.396 61.9458L158.094 69.27L154.554 69.8425L154.332 64.7576L153.49 65.1112L153.538 66.6434L152.347 67.0475L152.57 71.9977L152.839 72.6375L157.316 71.8799L157.983 76.5438L156.253 77.3688L156.348 80.8373L157.062 80.8037L158.142 81.7297L160.412 84.4742L157.793 84.8952L157.713 86.1917L158.412 86.8483L157.697 87.3535L156.808 87.2019L155.999 85.737L154.268 86.0064L154.237 87.6397L152.665 88.7004L152.744 89.4581L151.585 89.2561L150.982 87.9259L150.871 88.4647H148.458L147.997 90.5862L145.79 93.819L147.124 97.7253L154.411 102.457L151.966 106.514L148.108 104.258L147.029 105.285L148.029 108.703L149.49 108.535L149.728 109.831L146.632 110.252L146.822 111.599L142.06 112.744L142.218 114.209L142.901 114.529L146.219 113.923L146.473 115.371L147.839 115.118L147.981 116.061L140.694 117.459L140.631 118.082L138.488 118.351L138.265 119.227L137.694 118.671L134.487 119.21L134.074 115.927L128.406 116.364L127.755 114.832L126.279 115.085L126.136 114.041L125.549 114.125L125.977 116.768L125.279 116.937L125.612 119.041L122.294 119.496L121.929 117.442L116.722 118.351L117.118 121.247L115.674 121.399L109.053 116.937L110.371 119.361L108.403 120.422L108.736 123.318L106.164 123.924L105.862 124.834L103.148 125.322L102.655 124.867L100.036 125.558L100.322 126.921L101.036 126.804L101.544 130.491L97.9403 131.114L98.5594 132.04L96.305 132.175L96.0351 132.966L91.9074 132.612L90.6849 134.717L85.9856 136.738L84.8585 135.576L82.4929 135.239L79.2225 133.757L76.1901 133.69L74.3803 134.885L72.8562 137.529L71.1257 136.014L69.3952 135.391L65.8866 135.155L65.1087 135.896L62.9972 135.643L62.1081 137.495L58.8059 136.519L55.8054 136.637L52.8207 135.256L53.4557 133.589L52.7572 133.185L53.8368 132.528L52.6937 131.72L53.1065 128.622L51.1696 125.911L52.6937 123.537L51.3759 120.978L51.5982 118.216L50.1376 117.156L49.1057 117.257L48.0102 114.024L46.375 112.727L45.3431 112.643L44.1524 107.575L47.9309 106.498L47.9785 105.673L50.4234 105.218L50.8362 106.026L56.3293 105.05L55.5513 102.49L57.4406 102.036L58.8536 102.339L58.9329 100.52L59.5045 100.318L59.0123 97.6243L59.441 97.4054L57.647 90.0306L56.615 90.2158L56.2658 89.4918L54.059 89.9632L53.7891 91.2934L49.1692 91.3271L49.1216 88.5321L49.6296 88.431L49.8995 89.4918L51.6776 89.1719L51.0902 86.0907L52.6937 85.6865L52.4714 82.117L44.2635 84.3564L43.6285 81.8308L42.5489 81.9823L43.041 80.1807L38.2465 81.2078L37.4527 77.6551L36.5954 77.8235L36.2779 76.5102L38.2465 75.4494L37.802 74.3213L37.0558 74.3886L36.8177 73.6646L36.4049 70.937L37.4844 70.6676L37.0399 68.7481L35.0713 69.0849L34.992 67.2327L35.8968 67.0307L35.2142 62.232L36.8494 61.8447L36.2779 58.915L34.1346 59.2855L33.8647 58.3931L31.0071 58.4773L29.8323 57.467L29.6576 56.642L29.5147 55.8675L31.3404 55.4465L31.0706 52.2138L32.0866 51.052L31.8644 49.9407L27.5619 50.8331L28.1494 53.3082L25.7521 53.9985H24.8948L25.1329 51.2204L22.6881 51.9444L22.3388 51.1193L14.9564 52.5673L14.5437 50.6142L12.1623 51.0688L10.4476 41.0842L12.321 40.4107L11.8447 38.2724L12.9719 38.104L12.9402 37.1274L12.5115 37.0769L12.194 35.3763L7.24069 36.0835L5.58958 26.7892L6.01826 26.2673L4.71642 24.3647L2.74781 23.1355L2.95416 21.9737L1.76346 19.0946L3.38284 18.2022L2.22387 15.5082L0.795044 14.5653L2.03337 14.2959L3.00178 12.7637L4.73231 13.0668L5.00217 12.0902L6.89142 12.1407L6.30402 11.7871L6.47863 11.2652L7.19307 11.905L8.59016 11.5346V10.7095L6.31991 10.3896L5.78008 7.8135Z" fill="#75B663" stroke="white" stroke-width="0.5"/>
</svg>
