<svg width="225" height="150" viewBox="0 0 225 150" fill="none" xmlns="http://www.w3.org/2000/svg">
<path d="M224.453 69.6188L224.565 70.1071L223.723 70.6291L222.533 72.8179L219.389 72.8853L216.754 71.5551L215.547 72.2623L215.198 74.0639L217.151 75.4277L216.246 76.4212L213.959 77.1115L212.848 78.2059L213.309 80.159L213.642 78.8457L213.959 79.7886L212.038 84.099L213.055 90.3457L214.88 93.5784L210.419 96.7439L204.307 97.2658L202.306 99.2527L191.717 97.4006L189.844 97.7541L188.923 99.0843L187.51 99.8588L185.002 99.3705L181.303 101.021L180.842 99.8588L179.747 99.2022L179.763 97.7373L177.778 95.4306L173.269 92.282L167.586 90.413L162.998 91.4401L159.822 93.3091L156.933 96.7439L157.044 98.798L158.981 99.8252L155.393 101.778L155.155 102.805L155.742 103.816L157.076 104.523L156.79 104.994L153.393 103.31L150.138 103.681L149.471 104.573L149.693 105.87L148.915 107.469L146.391 108.126L144.756 109.187L143.47 112.234L143.153 115.029L140.596 117.504L138.802 116.831L138.898 115.686L137.866 114.558L136.278 114.12L135.659 114.575L134.405 113.699L131.833 114.507L131.817 115.198L130.579 115.619L129.34 115.164L121.704 115.972L118.529 117.892L115.227 119.003L107.051 124.071L104.764 127.102L102.367 133.635L101.224 134.258L101.129 137.019L98.9061 136.632L97.3344 137.676L95.8897 140.42L91.4603 141.397L89.3012 146.599L85.7132 147.29L84.2684 148.502L81.7283 148.687L80.8551 149.378L75.9494 148.418L76.013 147.037L76.5527 146.482H77.7117L78.4737 145L74.4095 137.945L73.7903 134.072L69.2657 131.682L68.8052 130.772L68.8847 127.826L70.7262 126.664L70.9485 126.007L70.5675 124.155L67.8845 122.455L64.0424 124.054L62.6771 122.69L62.5184 121.428L63.201 120.619L64.741 120.855L65.8047 120.283L65.2808 117.774L64.4394 116.982L60.9784 116.848L59.5972 115.939L58.2318 116.141L58.47 113.767L59.486 113.884L60.5815 113.194L61.2959 111.477L61.6452 108.143L60.9467 102.839L61.1848 101.138L58.978 94.0499L56.3744 90.1099L52.9134 86.7256L49.5159 85.0082L47.5155 86.8267L45.0707 86.9445L43.88 89.0155L42.6416 88.9819L40.9587 86.8772L38.6567 86.0521L36.7199 84.5368L32.1317 78.61L27.9881 74.6027L23.7015 71.7235L20.9709 71.151L15.6683 71.4204L9.95293 75.5456L1.52278 72.9189L2.52298 71.7572L2.58649 70.6627L0.744873 68.9116L4.07884 64.1467L6.55549 62.0251L10.8261 59.3143L12.2709 58.8597L12.9852 59.2133L13.1916 58.1357L17.4147 55.4417L18.1926 56.1489L18.9546 55.7111L19.3356 56.1489L20.3517 54.3136L20.0342 53.6906L19.0023 53.7243L19.161 53.2697L23.9079 49.094L33.8463 43.2009L36.1325 42.7968L37.0056 41.012L38.0852 35.7083L37.6883 37.1394L38.3551 38.3854L40.292 39.9513L41.5303 40.1702L47.4838 37.4425L51.4369 33.3679L52.707 34.2266L53.0721 33.452L54.0247 33.1658V32.1724L54.6756 31.7514L55.1995 31.7009L55.5329 32.8796L57.0729 32.2735L57.4222 33.3174L57.8508 33.3005L59.1209 30.5729L59.7877 30.6907L61.6452 28.8218L62.9312 30.2193L63.9155 30.4381L65.3602 32.7617L65.2014 27.4579L66.0269 27.5084L67.694 25.8584L69.2816 26.1951L69.5197 25.7237L68.7417 23.8884L64.233 23.5685L62.9788 24.0904L62.8835 24.6293L61.8357 24.242L62.5977 22.895L61.6928 15.5371L63.201 13.062L61.7405 8.8189L62.8517 8.39796L61.6928 1.25891L63.2645 0.972656L65.5189 3.32994L66.3603 3.54878L66.8684 6.12495L67.4399 5.55243L67.9479 5.77133L67.7416 7.23618L68.3766 8.16227L69.4403 8.5832L70.0277 8.02754L71.2978 9.94703L71.6471 10.0817L73.2982 7.53929L72.3932 7.16886L72.0281 5.35039L72.9489 4.69376L74.0285 5.53563L75.1556 7.35405V8.33065L73.7585 10.1491L74.1396 10.8731L72.9648 10.4353L72.8378 11.2603L74.4095 11.4287L76.3622 13.163L77.1401 16.0758L76.9179 16.5641L76.267 16.1937L76.0606 17.5744L76.5845 16.8335L77.283 17.5744L77.5688 17.305L77.5211 15.1498L78.2039 14.3079L79.0135 13.9711L79.4898 14.3584L78.9818 14.5942L79.1405 15.436L79.7756 17.1534L80.2518 17.2545L80.7281 16.9514L79.5851 15.2339L82.4427 14.712L81.7124 13.9038L80.5058 14.3416L78.8548 13.1125L79.5057 12.1191L83.6176 11.4792L86.0783 13.7186L86.8562 13.7354L87.4278 16.1263L89.4599 16.8504L91.4921 19.4265L92.4922 19.7464L90.095 22.3898L89.6663 22.3393L89.4281 21.2449L87.9358 21.3628L89.0312 23.6864L90.7618 23.7705L90.5712 24.8818L92.9368 24.1746L93.3971 23.4843L94.064 24.1578L94.2862 23.6021L93.5877 23.0802L93.1114 19.6285L92.1747 18.8708L92.5081 17.9448L91.3809 17.6417L91.9048 18.5004L91.3174 18.6856L89.6981 16.1432L88.7296 15.436L88.0787 15.8233L88.4756 14.19L90.2855 15.7222L91.3333 15.1498L93.413 16.2274L94.064 16.0085L95.4134 17.2376L95.3975 18.2647L94.6355 18.5004L95.4293 20.3189L95.7627 19.9653L95.2705 18.6183L97.001 15.6886L97.7789 16.3957L97.1756 18.1637L97.6043 19.5612L99.6999 20.1505L99.7634 20.8071L100.573 19.9653L100.176 19.1908L100.51 18.5509L99.2554 18.1468L99.3348 17.608L100.716 17.4734L101.542 16.7662L103.399 19.2918L104.399 22.2552L108.702 25.9594L108.098 28.3167L108.575 30.1856L110.099 29.2932L111.258 26.1446L113.052 27.2222L113.861 26.6666L112.305 22.4572L113.02 21.4807L112.369 20.8071L116.862 23.8884L117.433 25.0333L116.274 29.0575L112.29 31.0612L112.274 32.7617L110.226 34.6643L110.003 35.7083L107.32 35.8766L108.003 37.5099L111.924 36.6343L115.258 32.728L117.894 30.5897L121.847 29.2427L123.022 28.2829L123.863 29.8489L123.276 30.9096L121.974 29.7815L118.735 31.6336L117.878 36.1965L122.958 34.3108L123.165 35.944L123.768 35.7756L124.594 36.7522L123.514 38.4528L122.736 38.7895L122.53 40.1534L120.529 40.4396L118.64 42.6285L119.577 42.9484L119.847 43.8239L122.768 42.4264L123.53 42.5947L124.816 41.5677L129.674 40.1534L126.641 42.7631L127.435 43.0157L127.388 44.7836L129.563 43.2683L130.42 44.4469L129.753 44.8678L129.737 45.8107L130.642 46.7199L131.706 45.9117L134.421 45.373L134.135 47.0904L135.23 48.37L137.596 49.1445L140.835 55.7616L142.105 61.7052L140.803 63.389L138.501 64.3151L137.707 65.5105L139.295 69.5515L140.914 71.9761L143.565 73.9797L144.391 73.8955L144.994 73.121L146.645 73.4072L150.932 76.3538L155.06 78.088L155.647 78.9131L154.043 80.4621L155.329 81.4218L155.266 82.3648L156.298 80.3443L160.314 79.4182L160.838 79.9402L161.029 77.0273L158.536 76.7074L156.838 73.5251L154.79 72.1781L153.393 69.2653L152.551 69.5515L148.169 61.6547L145.772 58.1862L144.264 56.9065L140.311 50.6262L139.247 49.8685L138.04 46.9557L137.12 45.8612H136.453L134.5 39.5977L133.008 37.3752L133.897 36.8869L139.85 49.1782L152.535 67.8004L157.933 74.0302L160.918 76.4043L164.045 78.0207L168.76 75.5961L174.825 73.9629L175.206 72.599L176.921 70.8648L177.032 70.0903L176.381 69.2147L180.334 65.7799L180.207 63.6415L181.795 62.6481L183.049 63.2374L181.588 64.7023L182.779 66.9753L185.843 69.8377L188.51 71.0332L191.05 70.8143L192.892 69.4336L193.86 67.9856L193.733 65.3926L194.464 64.6686L198.512 63.069L205.228 62.042L207.085 62.9175L208.228 62.4461L209.8 63.069L212.023 64.837L214.15 63.9951L215.515 64.0962L218.278 66.4029L219.659 66.7564L220.389 66.4029L220.723 65.3926L221.897 65.5442L222.85 66.908L222.628 68.0866L224.453 69.6188Z" fill="#75B663" stroke="white" stroke-width="0.5"/>
</svg>
