<svg width="31" height="35" viewBox="0 0 31 35" fill="none" xmlns="http://www.w3.org/2000/svg">
<path d="M10.2258 1.13764L11.5911 0.935547L12.9723 1.84478L16.4333 1.97951L17.2747 2.77087L17.7986 5.27963L16.7349 5.85209L15.195 5.6164L14.5123 6.42456L14.6711 7.68737L16.0364 9.05119L19.8784 7.45167L22.5614 9.15221L22.9424 11.0043L22.7202 11.661L20.8786 12.8228L20.7992 15.7694L21.2596 16.6785L25.7843 19.0695L26.4034 22.9421L30.4677 29.9969L29.7056 31.4786H28.5467L28.0069 32.0342L27.9434 33.4149L25.8001 33.3813L22.6249 34.6609L20.2753 34.7956L18.5924 32.0342L16.4651 32.2531L15.5919 31.6807L14.7981 28.1785L13.7661 26.7978L13.0676 26.4443L10.5116 26.781L7.82852 25.5687L6.87595 26.057L5.14547 23.464L2.19251 21.1404L1.0177 19.3389L2.19251 18.699L2.2084 20.1639L2.6053 19.8103L2.65293 20.4502L3.04983 18.5812L3.92299 20.2649L3.38321 18.2445L3.9865 17.7056L8.1619 16.6617L12.4008 16.9311L10.8449 15.9377L8.14601 15.4494L9.3526 14.5571L10.0829 12.1156L9.46374 2.50147L10.2258 1.13764Z" fill="#75B663" stroke="white" stroke-width="0.5"/>
</svg>
