<svg width="152" height="172" viewBox="0 0 152 172" fill="none" xmlns="http://www.w3.org/2000/svg">
<path d="M78.825 0.950838L81.6033 0.765625L83.6036 4.67191L84.6038 4.97498L85.1595 6.52402L87.2392 8.07306L91.0019 8.79707L91.748 6.75974L93.796 6.77658L94.5422 5.85052L96.1298 7.65212L95.59 8.74656L95.9393 10.0767L98.1619 11.7268L99.178 11.7605L101.496 10.3966L102.417 10.7334L103.893 13.6462L103.798 15.9866L104.322 16.4918L105.417 16.2055L105.592 15.3805L106.148 15.7004L105.751 16.2055L106.275 18.4954L105.703 18.9332L106.195 19.3036L106.052 23.2604L109.164 23.5466V24.1528L112.8 26.4764L112.355 29.3555L115.768 29.827L116.546 29.1872L120.261 28.7326L120.738 28.0422L121.77 28.1433L121.738 29.3219L124.421 29.3387L124.103 26.4427L124.722 25.4829L128.866 29.5744L130.628 29.6418L131.12 30.9046L130.946 33.1608L133.899 34.4405L134.581 34.794L136.836 34.07L138.931 35.1139L138.852 38.01H138.074L137.312 39.2054L137.566 40.1315L136.868 40.6029L136.995 42.0846L139.44 43.9704L138.709 45.1322L138.408 48.4323L144.583 57.8445L146.568 59.5114L149.314 61.2456L149.838 62.66L149.441 64.31L150.616 65.1182L148.568 65.8422L147.981 67.6607L148.806 68.9908L147.806 71.7016L143.869 72.7961L143.297 75.1197L141.773 74.2272L141.107 74.4125V75.3217L140.217 75.4732L137.487 74.1767L137.042 74.7156L135.836 74.6314L135.105 76.1299L132.264 75.187L132.692 78.706L131.883 80.1372L134.089 82.5449L131.438 85.4241L130.231 83.6562L128.945 83.1679L127.787 86.5523L127.167 91.5193L125.993 91.9234L125.215 93.6576L124.278 93.5398L124.5 94.2133L123.008 93.6913L122.436 94.2469L122.754 95.1225L120.992 94.1796L120.404 95.0888L119.102 95.1057L119.229 96.621L118.594 95.6276L116.943 96.2843L116.657 97.4124L112.577 97.6144L113.181 99.6518L112.911 104.147L111.688 104.349L109.323 103.238L108.386 103.895L106.132 102.514L104.862 100.797L103.226 101.857L101.956 101.723L101.385 100.713L102.163 100.174L101.051 99.0456L99.6384 98.7257L99.8607 99.315L99.2097 99.0793L99.1621 99.6012L97.5269 100.696L98.0667 103.339L96.2727 103.491L95.7011 104.4L96.4314 106.303L96.098 108.66L94.574 108.946L93.9389 109.956L94.9073 113.172L97.4158 114.418L95.1455 116.573L95.5265 118.19L94.3041 120.311L93.3674 119.469L92.3831 120.463L90.2398 119.89L90.1763 121.136L90.3192 122.736L92.1449 122.382L93.5896 123.073L92.9546 125.48L92.2402 126.188L92.7641 127.13L94.7645 127.619L98.2572 127.366L97.638 128.663L98.0032 129.269L97.2887 130.666L97.3205 132.283L96.3521 132.72L94.5581 131.07L93.2721 131.289L89.0809 132.737L86.4931 134.892L85.2071 134.522L84.6673 135.414L83.3496 134.943L82.9527 136.374L82.143 136.239L81.5715 135.28L77.3009 134.606L75.0941 137.3L74.5702 136.206L72.5063 135.33L69.2994 137.738L68.8548 138.647L65.4733 137.502L63.33 138.176L62.4092 137.048L61.9647 137.3L61.1391 136.66L59.234 138.95L58.5831 138.496L57.5035 139.119L56.3763 144.422L55.3285 145.264L54.5347 144.726L53.979 145.197L53.7091 146.359L50.8356 149.693L51.9469 151.511L50.5657 155.198L51.1213 156.781L52.8518 157.438L53.0741 158.078L51.2642 158.97L51.1849 160.654L50.1688 162.624L51.4706 166.109L49.5496 169.712L49.8671 170.925L47.6445 170.436L45.66 171.632L43.104 170.807L40.6432 169.578L39.8335 167.288L37.8649 168.651L35.7058 166.799L34.5786 167.894L31.2128 168.029L28.4822 161.815L27.5614 161.613L27.482 160.25L25.6404 159.155L23.5289 160.536L22.5763 160.182L21.3856 160.654L20.4489 161.95L19.7663 161.681L18.9725 160.62L18.5438 157.943L16.7339 157.168L14.6859 155.333L13.5746 152.504L13.6222 151.073L14.9082 150.029L15.9878 150.012L15.1146 147.234L17.0356 145.82L13.9874 144.002L13.2095 143.951L13.6381 142.873L13.1301 141.594L14.4478 139.001L12.7649 138.496L12.4157 137.452L11.225 137.671L10.4153 136.088L9.27222 135.347L9.06583 133.68L7.06546 134.084L6.36691 133.596L7.25597 131.525L6.12877 131.542L5.28735 133.091L4.66818 132.182L6.08115 129.117L6.77969 128.679L5.3191 128.225L5.06508 127.349L5.41435 126.39L6.39867 125.868L7.00195 119.873L6.74794 115.934L4.1284 104.417L2.23915 103.743L1.06433 101.234L2.30266 100.426L4.08077 96.5537L8.68481 90.1891L8.93883 88.3707L9.76438 87.091L10.8757 86.7543L12.0188 85.4915L13.4159 82.9827L14.6542 81.9388L15.9401 79.1438L18.2104 77.157L18.7026 74.2104L20.1632 73.7727L26.4977 63.8891L31.8003 57.2215L32.0543 55.5714L33.3561 54.9989L35.3882 52.3218L35.3406 50.7896L36.1344 50.8569L37.3092 49.8972L45.7076 40.6366L51.5976 36.3262L54.5347 31.6623L57.1225 30.551L57.9163 26.8636L59.2975 25.5671L63.6158 24.0349L70.8235 23.1762L73.951 23.3783L74.3321 21.3073L75.8879 20.3475L78.6027 11.7268L79.4124 6.08624L78.9996 4.87396L79.3012 3.2744L78.7138 3.25756L78.3487 2.48304L78.825 0.950838Z" fill="#75B663" stroke="white" stroke-width="0.5"/>
</svg>
