<svg width="184" height="162" viewBox="0 0 184 162" fill="none" xmlns="http://www.w3.org/2000/svg">
<path d="M53.3987 3.62502L55.2561 3.89441L56.0499 4.92149L59.0188 3.3051L59.9872 4.61842L61.5748 5.0562L62.4639 4.55107L62.6861 1.95811L64.623 0.695312L65.8296 2.27802L66.6869 2.54743L66.8774 3.54083L69.7986 3.60818L69.9573 5.61183L71.8466 5.52764L72.2752 6.97566L73.0214 7.58181L73.069 6.77361L74.5772 6.15063L75.371 6.42002L75.6727 7.46395L76.6094 5.71285L77.8794 7.21138L78.6732 6.36951L80.4514 5.89807L88.183 8.18796L89.4054 9.16452L90.485 9.08034L92.2949 7.46395L95.1049 6.28532L95.4065 5.61183L94.962 4.972L93.5491 4.78679L93.3109 4.06278L96.6608 2.54743H97.6451L98.9469 4.06278L100.995 1.26778L105.043 4.5174L104.837 5.56131L106.853 4.09646L109.012 5.00569L108.06 6.38635L108.79 7.12719L109.806 6.21797L109.901 4.61842L112.759 3.15356L114.315 3.42297L115.267 2.39588L116.807 3.77655L117.395 11.286L124.253 17.297L123.793 18.0715L125.476 19.9236L124.92 21.6747L125.587 22.3987L127.603 24.2677L130.905 24.7391L131.302 28.0729L131.89 28.5275L132.017 27.8541L133.064 28.1066L134.207 29.8072L133.557 31.5414L131.556 33.8987L132.35 34.8079L131.969 36.1717L132.826 38.108L134.271 39.253L135.144 38.6637L137.383 40.0443L138.494 39.4719L138.97 40.1285L139.748 39.152L140.209 39.455L140.002 40.0107L141.129 40.0948L141.145 36.7947L142.908 35.6498L143.749 36.037L143.368 37.0641L146.448 36.2559L146.638 35.7676L148.432 35.9023L149.052 35.313L154.052 36.3738L153.513 38.2091L153.671 40.7852L155.243 43.0582L149.544 51.0392L151.004 55.4169L151.512 55.9389L152.624 55.6189L154.068 58.7002L155.592 60.0304L156.529 59.8283L157.704 61.2426L158.958 59.9967L160.133 60.0304L160.911 62.3876L163.88 62.8927L164.912 62.4213L168.865 64.8795L169.135 67.1357L168.039 67.5735L168.563 68.9373L168.468 72.0523L169.405 73.1467L170.865 73.3319L171.024 74.6116L170.23 75.1503L170.945 75.5208L170.246 76.8678L171.611 77.676L175.025 78.0801L176.152 79.4607L180.486 78.7704L180.041 80.0332L181.121 81.5654L183.328 87.5764L179.327 88.5024L178.978 89.1591L180.2 89.4453L180.264 91.5668L183.264 92.6949L183.09 95.2879L175.247 93.6883L174.167 97.7125L176.66 98.6217L175.961 102.376L177.406 103.016L172.326 109.768L172.754 111.906L172.103 113.472L169.881 112.041L170.5 111.519L170.119 111.199L165.626 111.755L164.134 111.132L162.07 111.267L161.213 109.835L159.165 108.741L158.53 109.263L156.196 115.863L158.18 124.433L157.752 124.652L157.736 123.709L154.545 120.645L153.386 121.537L152.735 123.777L151.719 124.467L149.972 123.457L150.131 122.834L151.29 122.952L151.782 122.144L149.877 121.521L149.639 120.965L147.623 121.285L147.877 121.925L147.146 122.565L145.686 121.874L144.606 122.447L144.575 125.023L143.273 124.787L141.479 125.999L140.637 125.764L139.812 126.976L139.081 127.127L138.431 126.269L137.192 126.622L136.271 127.734L135.224 127.649L135.303 129.283L134.398 128.98L133.826 130.242L134.223 131.909L133.064 132.549L131.159 131.202L130.143 132.01L128.984 131.067L128.349 131.64L125.095 129.148L125.841 132.616L123.047 134.485L122.459 136.034L121.046 137.381L122.459 138.829L120.332 142.332L119.713 146.238L120.125 147.299L121.57 148.41L121.523 149.774L122.189 149.875L122.158 150.784L120.919 150.919L120.84 151.811L122.078 152.586L119.284 152.838L119.475 155.886L120.872 155.296L121.681 155.936L120.173 157.519L120.443 159.321L119.3 161.307L119.379 160.011L118.855 159.573L116.982 159.539L115.871 158.378L114.204 157.889L112.902 156.475L111.822 156.795L110.521 156.222L109.981 155.28L110.282 153.394L109.933 152.703L107.155 152.35L105.393 150.936L104.488 149.033L102.614 149.067L99.7089 147.804L97.7244 145.817L93.5173 142.786L90.5485 142.079L88.056 142.551L86.4525 141.119L85.4205 139.217L83.9282 139.638L83.8012 140.665L81.9437 142.348L82.5788 142.719L81.6103 144.285L80.118 144.47L80.4514 145.009L79.1495 144.941L78.5621 143.376L75.1805 144.672L75.3393 141.54L74.9742 141.439L72.9103 141.17L72.5451 141.658L72.5134 141.119L71.5608 141.136L71.2592 143.628L68.6079 141.439L66.8774 141.725L66.5757 141.086L67.3854 140.766L65.7978 137.095L67.4966 135.142L66.6869 133.256L66.9409 132.01L65.9724 131.135L66.163 130.579L64.8294 130.293L63.9403 129.434L65.2263 128.963L65.909 127.111L64.4642 125.696L63.9721 125.932L63.8133 124.602L62.7655 123.238L62.4003 123.305L62.8925 125.056L62.9243 130.714L60.527 130.916L59.6856 130.007L58.3044 130.276L58.098 127.464L57.4947 126.454L57.9551 125.309L55.6689 121.504L51.5729 121.319L50.5728 119.921L49.3662 119.769L48.8264 118.877L49.0328 116.924L48.2707 116.183L45.9369 117.261L43.7937 117.008L41.9838 116.082L39.8247 115.846L36.967 117.395L35.9668 115.796L34.5221 115.156L31.204 115.964L29.8387 114.819L28.8385 115.51L27.7431 113.388L26.2824 112.782L25.4252 111.603L23.2343 110.846L21.091 108.943L21.726 107.832L20.9481 107.781L20.8211 107.276L21.7102 106.401L23.3454 102.04L25.06 104.313L28.0606 104.683L31.1882 106.569L35.7922 106.72L35.6493 104.885L34.4268 103.875L33.2203 103.925L32.49 102.562L32.6964 100.423L31.1247 99.312L32.2677 98.3186L32.4106 93.9409L34.2363 93.8735L36.3479 91.6342L36.2685 87.5595L36.6813 87.1049L33.5378 84.6972L34.3792 83.7543L33.5696 80.9424L34.1411 79.848L32.7916 79.5112L31.6803 77.878L26.9334 76.0764L26.8699 71.7155L25.9491 70.0486L23.8217 69.7287L23.1231 66.9842L20.2813 67.7756L19.5351 65.452L16.2012 60.9059L17.1061 60.0135L17.7253 60.8385L19.4717 59.6936L18.3762 58.3466L18.6303 56.3935L19.17 56.1577L18.535 55.5516L18.9954 53.3627L16.487 51.6285L15.7091 46.9982L14.6295 46.813L14.8041 45.6512L13.8516 44.843L13.3118 46.4594L12.7402 46.5436L9.78731 42.6373L10.6128 41.2735L9.53329 40.0612L12.3275 39.354L12.0258 37.1988L5.42141 35.1615L4.69113 33.3094L2.00808 31.0532L2.67485 30.0092L2.24621 29.6388L0.817383 27.9214L1.64292 24.9412L1.32543 24.5539L3.57979 22.9544L2.99239 21.961L4.15135 20.193L3.77029 19.1659L7.65993 18.2399L8.2156 18.9302L8.75538 18.4419L9.59681 19.1154L10.1842 17.7516L9.62854 16.775L11.613 16.1857L11.8035 14.7377L13.3753 13.98L12.9784 12.9024L13.3753 12.1953L15.7091 11.9595L15.9472 13.1381L17.1855 13.7948L17.5983 13.3907L19.8527 14.5357L22.4246 14.4851L22.0912 17.1118L24.2027 19.3175L26.1872 18.0378L29.9022 18.3241L30.0768 17.3138L32.1725 17.0108L32.0931 18.1725H35.7287L35.9192 18.644L36.2685 18.0378L37.0305 18.9302L37.3639 18.5093L38.4911 19.0818L38.9991 18.3241L38.2689 17.8358L38.4594 17.0276L40.9836 16.7582L45.2543 13.6601L45.0638 12.2963L46.572 11.7743L46.1592 11.1682L46.9054 10.4442L47.6833 10.5789L48.0167 9.14769L48.6041 8.89512L48.3025 7.80069L50.4616 7.88488L51.0332 5.27508L52.0651 5.15722L53.3987 3.62502Z" fill="#75B663" stroke="white" stroke-width="0.5"/>
</svg>
