<svg width="143" height="177" viewBox="0 0 143 177" fill="none" xmlns="http://www.w3.org/2000/svg">
<path d="M40.3861 3.26908L46.0062 4.14462L48.7845 2.59558L50.0228 2.49456L51.9756 3.15121L52.2137 4.09411L54.5475 4.51505L57.0559 7.61313L57.9132 7.44476L58.0085 8.67389L59.1198 8.43816L59.7231 8.96012L61.4059 8.0509L65.105 8.33714L65.9465 9.09482L69.201 8.87594L70.6934 7.76467L70.8522 11.4857L72.1698 11.2837L73.3129 13.1358L74.6783 13.5062L74.8529 14.769L78.679 14.9206L79.3458 13.4894L81.1557 12.8327L81.3462 12.0414L82.5369 12.5465L86.6329 12.4118L87.6013 13.5567L89.8398 14.4154L90.3003 15.1731L89.9986 16.8232L91.872 17.7998L92.2054 18.6753L95.063 17.8503L96.7776 19.4162L98.7621 19.534L100.429 20.6621L102.906 17.6146L114.146 17.1431L114.511 27.1614L116.718 26.9088L118.004 28.0706L116.464 31.0171L116.416 32.7682L121.624 32.5325L122.703 31.4549L124.354 32.3641L126.196 32.5999L126.275 31.859L127.609 31.1182L128.228 32.2968L129.228 31.5559L129.546 32.0779L129.022 33.3744L130.371 34.1994L131.61 32.3473L130.816 32.3978L130.625 30.3605L131.117 29.7207L132.181 30.9835L132.864 29.7207L136.674 32.583L138.008 31.5896L139.881 31.96L140.468 32.6335L142.12 32.6672L142.437 33.9974L141.945 36.3041L139.754 38.5435L139.627 40.3282L138.944 40.6481L139.278 42.3487L138.214 41.9783L136.801 43.7967L134.42 44.184L134.499 48.6291H135.515L136.277 51.1378L134.61 51.1547L133.959 49.8919L131.721 48.326L131.959 46.5244L130.451 46.5749L129.736 53.4446L131.181 54.1686L131.213 56.5427L129.8 58.7989L126.91 59.4387L128.117 63.5639L127.323 64.4226L128.593 65.1466L128.72 66.0558L125.64 69.2212L123.386 73.4643L123.624 74.3061L122.846 74.7271L122.91 78.7849L120.623 80.435L120.306 82.3039L120.893 83.6846L118.369 83.7688L118.099 84.577L115.226 84.8127L115.368 86.8163L113.924 87.5403L116.035 92.5074L116.067 93.3324L115.146 93.7197L114.956 94.9488L117.02 96.8851L116.496 97.8953L116.924 98.2658L116.496 99.3434L116.797 100.455L115.829 102.071L116.321 103.115L115.876 105.742L116.369 106.264L116.337 108.267L117.829 108.941L117.464 110.49L118.083 112.662L116.4 116.854L114.622 117.292L114.146 118.033L114.702 118.589L114.606 120.104L113.495 121.434L115.607 123.101L114.892 124.734L115.686 126.468L113.781 126.889L110.368 127.058L110.352 124.667L109.558 124.094L107.224 125.643L107.081 127.765L104.287 127.108L103.795 128.893L102.684 129.381L102.302 130.341L99.6671 129.6L97.9842 128.371L95.5393 131.638L94.4439 130.408L93.9358 130.577L93.5389 132.143L91.7132 132.193L91.2846 133.338L90.7924 133.355L90.586 135.056L92.0466 134.567L91.8561 135.274L89.4271 135.847L89.6493 134.247L89.1096 134.416L88.6809 136.167L89.1889 137.362L88.1252 137.194L87.8236 139.871L86.8551 139.602L86.2201 142.312L85.077 142.077L84.4102 144.518L81.9177 144.232L81.1239 146.724L79.314 147.566L79.5998 148.694L78.8378 148.711L78.8695 149.536L77.8852 149.3L77.6788 150.462L76.8533 151.152L77.2026 151.91L76.0436 151.994L76.1071 153.206L76.7104 153.543L70.8839 153.391L70.0425 154.52L68.9946 154.621L67.026 156.49L65.9941 157.803L65.9147 159.386L65.0257 160.834L62.0092 161.473L61.4059 160.867L59.2309 159.301L59.8818 157.634L59.5326 156.355L61.2313 156.456L61.4853 153.257L59.9771 153.425L58.326 156.557L52.8964 154.132L50.1498 156.456L49.7847 155.665L48.086 155.042L47.3557 154.065L45.8316 154.082L42.9421 157.416L41.8943 159.975L39.9575 160.783L38.6239 160.446L36.9569 161.036L34.9565 160.328L34.639 161.507L32.7021 161.12L29.6063 163.443L26.828 161.457L25.6532 163.679L22.7638 163.14L22.8114 162.399L21.3984 162.214L19.8902 163.578L19.9855 165.599L20.3506 166.457L21.8588 166.76L22.0811 167.821L20.1442 168.495L20.3347 169.572L19.3504 170.515L18.9694 172.182L15.3814 172.822L14.5717 176.509L12.5872 174.842L6.41149 165.43L6.71312 162.13L7.44342 160.968L4.99852 159.083L4.87151 157.601L5.57006 157.129L5.31604 156.203L6.07809 155.008H6.85601L6.93539 152.112L4.83976 151.068L2.58537 151.792L1.9027 151.438L1.31529 150.31L1.77569 149.334L2.74412 149.367L2.6965 148.643L4.80801 147.599L3.87132 146.236L3.56968 144.114L4.87151 143.238L5.4748 144.922L6.47499 144.72L7.14178 143.171L6.36386 141.774L5.06202 141.757L4.93502 139.736L4.33172 138.676L3.23629 138.995L3.90308 136.739L0.505615 134.668L3.9507 135.241L4.45873 132.042L4.06183 131.048L2.45836 129.718L2.56949 127.95L6.09396 127.883L6.41149 128.607L8.7135 128.91L9.25329 129.516L11.8252 129.23L12.5714 127.277L13.3175 126.67L12.8889 125.105L11.7458 125.643L12.2062 123.808L11.206 120.811L12.4285 120.828L13.3493 122.023L14.6988 122.158L14.9369 122.714L17.4294 122.461L15.6672 120.575L15.4926 119.565L14.9051 119.7L15.4608 118.807L16.1752 118.925L16.9531 117.595L16.4451 115.726L17.5564 117.376L20.8745 118.067L20.684 117.343L23.4147 116.012L27.3996 114.48L28.0822 114.901L27.8917 113.184L29.781 113.268L32.9879 112.258L33.0196 114.11L34.7184 116.08L33.9563 117.056L35.6392 117.258L37.4649 116.619L38.4969 117.376L40.0527 121.148L40.7036 121.4L41.1958 120.761L40.1797 119.329L42.6246 115.44L43.0215 113.672L42.6723 110.624L43.4819 108.486L43.5137 105.708L44.6885 102.728L50.7055 103.738L51.6422 101.768L51.5946 100.909L50.2451 99.5791L49.1338 99.4276L49.7371 93.1809L47.6256 91.3793L49.4354 90.6216L53.8807 90.167L54.0712 87.5235L55.2143 87.0857L54.2935 82.7585L50.515 80.0814L48.2765 80.3844L46.2761 79.7615L46.6889 78.044L45.9745 76.7476L47.2445 76.0909L49.0862 76.3603L49.102 74.8449L49.8482 74.9291L50.0705 75.67L52.3566 74.6092L52.3725 73.6326L53.325 73.6158L52.8964 71.0397L49.5624 67.1334L46.6254 66.4262L46.5619 64.894L45.8792 63.9511L46.2285 62.7893L44.8473 61.6107L43.8788 61.5434L43.4661 59.5902L41.5927 58.6642L40.3067 57.1993L40.4496 54.64L40.0368 54.2696L41.1482 53.7645L40.4972 52.4848L39.1002 53.6298L38.2111 53.2762L37.7031 53.6466L36.4647 52.9395L36.6711 51.2725L34.9248 51.2894L34.2897 52.367L34.8295 53.1583L33.9563 52.8553L33.3848 53.4614L33.4801 52.0134L32.9879 52.0639L32.6227 50.8685L30.2731 48.9995L30.289 43.8809L29.0983 43.9483L29.3047 42.8707L28.0981 42.837L28.3521 41.6921L25.5897 42.012L25.3992 41.0522L27.7647 40.0925L27.7488 39.2675L26.2882 38.5603L26.8915 37.0786L27.8282 36.5735L28.2092 34.5362L27.0661 32.5493L26.0342 32.684L25.5579 30.8824L24.399 31.6233V30.2089L26.3994 30.0237L26.2247 30.6467L26.8121 30.7982L27.4313 28.9798L28.3521 29.2829L30.3049 25.7133L30.8605 23.0867L31.6861 22.228L31.5432 21.1841L32.5751 18.911L32.0353 17.4125L31.3686 18.0355L30.8288 17.7661L31.3844 16.3686L29.8127 14.5333L30.1937 13.1358L30.924 12.597L30.1779 10.5092L31.4638 8.16877L33.0673 7.12485L33.7341 5.9799L31.8607 5.25589L29.7492 5.37376L27.8917 4.06044L27.5901 3.18489L33.9087 3.95941L36.6553 3.20173L37.7666 3.43745L37.068 1.06338L37.7348 0.861328L40.0845 1.51799L39.8781 2.81447L40.3861 3.26908Z" fill="#75B663" stroke="white" stroke-width="0.5"/>
</svg>
