<svg width="167" height="252" viewBox="0 0 167 252" fill="none" xmlns="http://www.w3.org/2000/svg">
<path d="M84.7599 2.35695L85.4744 3.16513L88.2209 2.00335L90.507 4.41111L92.7455 0.370117L95.0476 1.68346L95.9049 0.538502L96.9686 2.44114L96.7463 4.46162L98.1434 4.51213L99.3976 6.97041L102.16 7.72809L103.113 6.75151L105.986 6.80202L109.447 8.01432L110.717 7.45868L112.765 7.81228L113.321 10.3884L115.591 10.7083V11.5333L114.194 11.9038L113.48 11.2639L113.305 11.7859L113.892 12.1395L112.003 12.089L111.733 13.0655L110.003 12.7625L109.034 14.2947L107.796 14.5641L109.225 15.507L110.384 18.201L108.764 19.0933L109.955 21.9725L109.749 23.1343L111.717 24.3634L113.019 26.2661L112.591 26.788L114.242 36.0823L119.195 35.3751L119.512 37.0757L119.941 37.1262L119.973 38.1028L118.846 38.2712L119.322 40.4095L117.449 41.083L119.163 51.0676L121.545 50.613L121.957 52.5661L129.34 51.1181L129.689 51.9431L132.134 51.2191L131.896 53.9973H132.753L135.15 53.307L134.563 50.8319L138.865 49.9395L139.088 51.0508L138.072 52.2125L138.341 55.4453L136.516 55.8662L136.659 56.6408L136.833 57.4658L138.008 58.4761L140.866 58.3919L141.136 59.2842L143.279 58.9138L143.85 61.8435L142.215 62.2308L142.898 67.0295L141.993 67.2315L142.072 69.0836L144.041 68.7469L144.485 70.6664L143.406 70.9358L143.819 73.6634L144.057 74.3874L144.803 74.32L145.247 75.4482L143.279 76.5089L143.596 77.8223L144.454 77.6539L145.247 81.2065L150.042 80.1795L149.55 81.9811L150.629 81.8296L151.264 84.3552L159.472 82.1158L159.695 85.6853L158.091 86.0894L158.679 89.1707L156.9 89.4906L156.631 88.4298L156.123 88.5308L156.17 91.3258L160.79 91.2922L161.06 89.962L163.267 89.4906L163.616 90.2146L164.648 90.0294L166.442 97.4042L166.013 97.623L166.505 100.317L165.934 100.519L165.855 102.338L164.442 102.034L162.552 102.489L163.33 105.048L157.837 106.025L157.424 105.217L154.979 105.671L154.932 106.496L151.153 107.574L152.344 112.642L153.376 112.726L155.011 114.023L156.107 117.255L157.139 117.154L158.599 118.215L158.377 120.977L159.695 123.536L158.171 125.91L160.107 128.621L159.695 131.719L160.838 132.527L159.758 133.184L160.457 133.588L159.822 135.255L151.122 137.545L141.532 141.451L139.215 140.946L136.881 142.057L135.658 144.987L136.103 146.317L136.913 146.872L137.198 146.468L138.008 150.442L136.817 155.998L135.103 157.278L133.102 160.225L129.53 168.088L126.276 174.031L123.847 176.944L122.275 180.379L116.687 186.575L108.161 198.041L80.9021 221.328L76.7584 226.396L76.1551 228.837L75.3455 228.601L75.2343 229.157L77.4411 231.447L78.1714 230.79L77.7586 230.1L78.2508 229.308L79.1081 230.15L79.0922 231.211L79.5526 230.336L81.7276 229.982L83.093 230.773L83.5057 230.201L83.8232 230.554L83.1088 231.834L83.6645 233.568L82.8389 235.656L83.6645 241.566L82.2992 246.499L82.5849 249.547L81.2513 249.699L81.0767 250.86L79.4573 251.214L78.9811 250.726L78.0761 247.729L79.0446 246.163L78.5524 242.997L77.8221 240.842L74.8057 236.852L72.1385 234.915L68.3441 233.804L65.6135 232.154L61.5968 232.659L60.2474 231.716L58.2153 233.45L55.5481 232.979L54.5003 234.04L52.7539 234.595L52.2935 235.673L50.8488 236.599L47.2132 237.811L42.0694 241.078L40.8469 241.246L39.9261 242.778L40.1642 244.479L39.5133 245.388L38.0845 244.833L35.8619 242.408L34.3219 242.341L32.9883 240.893L31.7817 240.943L30.8927 241.886L32.1628 242.879L31.9246 243.805L29.3051 245.186L29.9401 246.617L31.4325 247.628L31.4801 248.419L27.527 249.833L23.3039 248.318L19.1762 247.897L7.52321 241.937L4.1575 235.875L4.0146 231.935L0.410767 230.352L2.15711 227.12L5.47521 223.87L9.79349 225.621L11.905 225.183L11.6192 226.278L12.1908 228.686L16.5725 227.541L15.3501 221.833L18.3824 221.075L16.8424 214.138L14.8897 214.104L16.6837 210.03L18.1284 208.464L20.8114 208.851L21.0654 207.874L20.4939 205.534L22.5736 206.039L27.1301 204.759L26.6379 201.847L31.1784 200.466L29.7178 192.973L30.0671 191.98L29.7337 190.33L30.9403 190.044L30.6387 189.235L41.6407 186.609L43.0378 182.955L40.0531 178.965L46.1654 170.883L40.1484 165.596L42.4822 159.686L39.0212 149.297L44.1333 148.893L44.0221 147.546L42.2123 147.58L42.117 146.788L44.3873 146.519L44.8318 145.374L46.2289 144.818L51.4045 144.583L51.4997 142.209L55.3576 140.996L55.564 145.812L56.0879 145.845L56.4213 147.041L54.532 148.826L55.8656 152.681L53.8017 155.325L55.5957 155.982L57.0404 154.534L56.9611 153.624L58.6915 152.665L59.1678 153.355L60.1204 152.9L59.1678 150.509L59.914 149.92L59.4218 148.674L60.8824 147.933L60.6443 146.115L61.454 145.509L64.0894 151.957L63.6131 150.173L67.0582 146.216L69.8206 149.162L68.5982 150.779L69.8682 152.058L72.9641 152.648L73.8214 157.228L74.9803 157.009L75.2502 157.766L78.9969 157.194L78.3302 151.166L79.0763 150.711L79.6955 151.907L82.2197 151.301L82.6802 150.459L81.807 148.607L82.569 148.169L84.4742 149.533L85.2521 152.883L87.0143 154.315L86.2523 155.274L90.38 157.935L90.3007 156.268L93.0948 153.911L95.7143 155.443L96.397 154.82L97.683 155.325L99.7469 154.079L101.461 155.577L105.161 152.968L104.907 151.604L103.7 153.136L103.224 151.924L102.652 151.469L102.176 151.755L101.668 150.728L101.747 151.873L100.938 151.132L100.699 152.058L99.5881 151.755L99.985 150.509L97.7941 150.543L97.8894 149.634L96.2224 149.061L97.7465 148.304L96.4288 148.135L95.9843 147.495L96.5717 146.115L95.8096 146.249L95.8414 144.987L95.5715 145.829L94.9841 145.559L94.4443 146.452H93.9521L94.349 144.903L93.1742 146.182L93.3647 145.492L92.555 145.509L92.5391 144.667L91.4755 144.532L91.793 143.892L90.9039 143.404L91.2056 142.966L90.507 141.855L89.8244 141.889L93.7934 140.845L93.079 140.036L93.0472 138.925L94.3808 137.427L93.7457 133.621L95.1428 130.035L95.1111 124.849L93.079 120.404L94.4443 119.411L95.3016 119.495L94.7777 118.165L93.6505 117.491L91.4279 119.192L90.3007 116.7L90.7134 116.363L90.2689 113.77L88.3796 114.107L88.0622 114.814L83.2358 115.858L81.5371 110.049L81.0132 110.622L77.6634 110.807L77.1553 108.079L73.615 109.14L72.7894 107.759L74.8851 107.338L75.1867 101.108L76.5203 100.502L75.7265 96.0066L72.202 96.3266L72.2814 97.8588L71.3765 98.1113L70.5668 94.8449L69.5666 95.0806L69.4714 94.0198L74.0595 92.8075L72.4878 83.3112L75.0121 82.6209L73.615 73.1583L69.9635 73.8149L68.9792 74.4884L68.9951 75.7344L69.519 76.0206L68.7728 76.5089L68.7887 78.5126L65.9151 79.9269L65.5817 78.5968L64.2164 78.984L63.4385 75.2798L64.1846 74.6568L63.756 72.3332L60.9459 73.1583L59.8822 66.7095L57.4691 67.8376L56.1038 69.4372L55.8339 65.6488L53.0556 68.6795L52.5158 66.5412L53.3572 65.4973L53.1349 65.0258L51.7061 66.2381L51.3568 65.8003L52.9286 64.386L52.9921 61.1532L52.7222 60.7491L50.9758 61.591L48.9754 57.6847L52.6904 56.2198L52.7857 55.2264L54.4844 52.9029L54.1193 51.5727L55.31 50.3941L53.9129 50.4614L54.6749 48.8956L54.6432 47.0098L55.2147 46.8414L53.897 43.7265L54.3892 42.1943L56.1831 41.0157L57.5485 36.7558L56.1673 36.1328L54.7225 37.3451L53.6112 35.6614L53.6271 34.7521L54.8813 32.4117L57.4691 30.3407L57.7549 29.3641L54.5003 29.7009L54.532 28.8927L54.2463 29.8524H53.7224L52.2776 20.7266L49.7057 20.6424L49.9121 21.619L47.8324 21.6526L47.4037 22.0904L48.0388 22.444L48.1658 23.4711L47.1021 22.6797L47.4831 24.4981L46.34 24.9696L44.3238 24.717L40.9898 21.8042L38.6878 23.5216L36.3381 20.1036L36.354 18.9755L34.1631 17.1402L34.814 14.9345L34.6553 13.9579L33.8774 13.7727L34.6712 13.1329L35.7666 14.1263L35.9095 13.0824L38.9894 12.0048L39.9579 6.75151L42.0535 7.72809L42.6092 7.17245L43.5141 7.37449L44.1809 10.1358L44.9906 9.58019L44.6254 8.67098L45.6097 7.27347L45.3716 5.32032L46.1654 4.47845L45.959 3.80496L46.5623 3.56924L49.9756 6.98724L50.6583 6.76834L51.2298 7.30715L50.4519 8.09851L52.5634 7.96381L53.7224 8.60364L54.278 7.89644L55.5481 8.03115L56.326 7.45868L56.8182 8.94038L55.818 9.10874L55.5799 9.71489L53.77 9.91695L54.5955 11.2303L56.7388 10.5062L57.1357 11.9543L57.993 12.4426L59.66 12.6614L61.6762 11.8701L61.835 12.4594L62.6288 11.9711L62.8511 12.3415L63.6449 11.9206L63.4385 11.2303L64.0259 10.2874L68.0266 9.52968L68.5664 10.8093L69.8047 11.3313L73.5038 11.7017L73.7102 11.2303L74.5358 11.2808L74.2024 10.4389L74.9486 10.0516L75.2185 8.78883L77.2506 9.49602L77.1553 10.5231L78.5842 10.8262L78.8064 10.2537L78.1714 9.84959L78.8858 9.61387L79.251 5.99383L78.1714 3.53556L79.6002 4.07437L81.7276 2.77788L84.4106 2.81156L84.7599 2.35695Z" fill="#75B663" stroke="white" stroke-width="0.5"/>
</svg>
