<svg width="175" height="171" viewBox="0 0 175 171" fill="none" xmlns="http://www.w3.org/2000/svg">
<path d="M141.387 1.20117L141.911 1.43689L141.625 3.45738L140.593 3.94567L140.641 7.90246L141.705 10.2597L142.752 10.7143L143.705 12.1792L145.547 12.8358L146.547 14.6374L147.976 13.8292L149.897 14.3512L149.341 16.0686L149.357 20.7494L148.69 22.5847L150.119 24.9419L150.198 26.4405L153.739 30.5151L156.263 34.9433L158.501 34.4887L161.454 36.7786L163.502 37.3006L165.28 38.5802L167.583 43.8335L169.202 45.0626L169.662 44.8101L171.742 47.8745L170.662 48.5311L170.567 49.7939L171.155 50.72L174.33 55.3671L173.361 56.3437L170.551 56.3605L169.964 58.4652L172.329 60.25L172.314 60.9067L171.313 61.075L169.329 63.7185L168.154 62.4725L166.884 65.5874L168.106 67.5574L168.948 66.9849L170.186 67.1365L170.377 67.8268L169.504 68.3151L170.154 68.8202L170.901 71.6152L171.853 72.0698L168.567 73.0296L169.297 74.7302L168.186 75.1006L168.027 76.0771L166.455 76.195L166.17 77.6767L166.757 79.7477L164.09 79.512L163.296 81.4146L165.55 81.7682L165.328 82.5427L163.312 84.1591L161.375 84.0076L160.772 86.3648L161.454 87.0383L161.137 90.591L162.883 90.5742L162.851 93.0156L163.899 94.2616L162.867 100.862L163.169 102.411L166.598 103.202L167.138 104.785L164.01 106.048L164.661 106.957L162.201 108.169L162.47 108.961L161.47 110.139L161.105 112.16L160.073 112.059L160.041 111.621L158.454 111.991L148.769 109.331L145.753 109.786L145.039 110.644L142.641 113.136L148.388 115.409L149.801 117.144L144.943 119.905L142.308 120.376L141.847 120.848L142.61 121.622L142.879 123.458L141.308 124.215L141.451 124.636L140.673 124.333L139.911 124.906L139.831 124.417L138.101 124.182L137.482 125.057L136.402 125.276L136.656 127.414L135.831 127.33L135.688 130.092L134.973 130.176L134.116 129.149L133.894 129.923L132.417 130.63L133.005 130.984L132.639 131.573L132.163 131.27L131.544 132.045L132.878 133.274L132.322 134.57L133.513 134.873L133.259 136.406L130.083 136.288L129.956 137.652L127.861 137.601L127.115 139.234L126.003 140.059L125.94 145.616L123.304 144.016L123.527 143.191L120.939 142.467L120.272 144.1L119.589 143.949L119.288 145.649L116.938 145.296L116.668 146.626L116.113 146.575L115.446 147.67L116.89 148.933L116.954 149.606L118.002 149.724L117.367 151.121L113.922 147.299L107.905 146.66L107.016 149.05L106.095 149.152L105.761 148.579L103.459 148.444L102.253 147.771L102.189 146.727L100.602 146.357L98.9982 148.966L99.1728 149.488H100.125L100.348 151.694L101.522 154.927L101.062 155.886L100.395 156.021L100.808 159.439L101.713 161.679L98.1885 161.847L98.2203 162.453L97.1089 162.655L97.236 163.244L93.7115 163.851L93.0129 162.638L92.2668 162.588L87.8691 158.58L85.837 161.089L85.0591 160.955L84.8368 161.342L85.6941 161.679L85.1385 162.537L85.9957 162.706L84.5987 163.211L82.3919 166.545L83.0587 167.033L80.979 169.676L80.9313 169.087L79.3755 167.875L77.899 169.895L76.5178 168.818L79.0421 164.945L75.5335 162.167L77.1528 158.85L69.6276 153.209L70.6278 151.121L69.4053 149.64L71.374 149.455L71.882 148.124L71.2787 147.636L70.4373 147.889L68.5163 145.902H65.3728L65.9285 143.612L62.9914 142.029L64.0551 140.346L62.6263 139.083L64.2139 136.608L60.5941 132.853L61.1816 132.045L58.6414 129.452L57.3079 131.961L55.6726 131.54L55.371 132.516L54.1327 132.937L53.6722 133.712L52.4815 133.796L51.402 135.631L50.8622 135.277L50.4494 133.425L49.1158 133.055L48.0045 133.409L47.7505 132.533L47.0361 132.55L46.2423 133.829L44.8293 132.095L42.0034 132.297L41.8764 130.816L40.1141 130.799L38.4154 131.826L35.7641 131.371L35.4466 130.664L35.272 131.472L34.1924 131.893L34.367 131.001L33.8114 131.085L32.7001 129.805L29.6836 128.054V126.96L29.0644 127.347L26.6037 125.276L26.7148 124.603L24.3334 123.373L24.8732 122.734L24.7144 121.858L22.9046 121.302L21.952 119.602L20.8407 119.417L20.4279 120.41L18.3799 119.888L18.3164 118.945L20.4755 118.491L18.5545 117.043L18.6181 116.504L19.4436 116.218L18.5545 115.527L16.9669 115.392L15.8398 116.369L14.776 115.022L13.1884 115.797L12.7439 116.925L12.4423 115.376L11.0452 114.264L10.4895 115.847L9.17182 116.436L7.18732 107.866L9.5211 101.266L10.1561 100.744L12.2041 101.838L13.0615 103.27L15.1253 103.135L16.6177 103.758L21.1106 103.202L21.4916 103.522L20.8724 104.044L23.0951 105.475L23.746 103.909L23.3173 101.771L28.3976 95.0192L26.953 94.3794L27.6515 90.6247L25.159 89.7154L26.2385 85.6913L34.0813 87.2909L34.2559 84.6979L31.2553 83.5698L31.1918 81.4483L29.9694 81.1621L30.3187 80.5054L34.3194 79.5793L32.1127 73.5684L31.0331 72.0362L31.4776 70.7734L27.1435 71.4637L26.0162 70.083L22.6029 69.6789L21.2376 68.8707L21.9361 67.5237L21.2217 67.1533L22.0155 66.6145L21.8567 65.3349L20.3962 65.1497L19.4595 64.0552L19.5547 60.9403L19.0308 59.5765L20.1263 59.1387L19.8564 56.8825L15.9032 54.4242L14.8713 54.8957L11.9025 54.3906L11.1246 52.0333L9.94973 51.9996L8.69556 53.2456L7.52071 51.8313L6.58403 52.0333L5.05995 50.7032L3.61523 47.6219L2.50389 47.9418L1.99589 47.4199L0.535278 43.0422L6.23475 35.0612L4.66305 32.7882L4.50428 30.212L5.04405 28.3768L6.69517 27.7706L6.10777 25.4976L8.10811 25.6996L8.45738 26.2216L8.64789 25.6491L9.75923 25.9858L9.82275 27.0466L10.5213 27.215L12.0454 24.9924L11.966 23.7128L14.2363 22.6689L16.2525 20.379L18.4751 21.5576L18.7609 20.7494L20.7772 21.7597L21.0153 21.0356L22.0472 21.0693L22.5077 18.4427L24.4604 18.5437L25.8892 17.5166L24.1429 16.2538L25.921 13.6272L28.6517 15.7319L28.5564 13.6272L29.9852 13.5935L30.9854 12.3981L31.8586 13.9134L32.8429 14.0144L34.7798 15.9002L35.2879 15.3951L36.3515 16.136L36.9072 15.1594L35.9705 13.8461L38.9552 13.6272L40.0665 12.7348L41.9716 13.2231L41.7493 13.6609L42.5114 14.2502H43.464L43.6862 13.2736L44.48 13.021L44.7658 11.6067L43.5116 11.2699L43.7974 10.6638L47.9251 10.3439L51.3544 6.55547L51.529 5.49472L51.0051 4.93908L53.0054 3.5079L53.2912 4.23191L54.085 3.8278L54.9582 4.38344L56.0219 2.75021L58.0381 3.47422L65.4999 1.8915L70.5643 3.65943L71.4057 6.2524L72.1995 5.86513L74.6762 9.88927L77.01 11.8424L76.5019 13.1389L77.899 15.9676L81.6775 16.3548L82.3125 15.9339L82.0109 15.3278L83.7573 14.4522L85.1861 12.718L85.7418 14.3175H87.9644L88.774 15.4961L90.2188 15.7824L90.2823 16.5569L91.4412 16.9273L93.4416 16.5906L93.7909 17.4493L92.8701 17.5503L93.0923 18.6279L92.1715 19.7055L94.7911 21.9449L96.8708 22.4163L98.3473 20.8168L98.9982 18.1901L99.6015 18.409L100.427 17.3314L102.126 16.9442L103.301 15.092L106.698 14.0313L108.254 12.3981L112.001 11.0005L116.906 10.8827L118.176 11.4383L121.272 10.8827L121.209 10.1923L122.907 9.95662L123.701 10.4954L131.274 6.48812L132.385 4.13088L133.592 3.17115L137.847 3.55841L141.387 1.20117Z" fill="#75B663" stroke="white" stroke-width="0.5"/>
</svg>
