<svg width="195" height="152" viewBox="0 0 195 152" fill="none" xmlns="http://www.w3.org/2000/svg">
<path d="M173.237 134.198L175.555 133.845L175.19 135.966L173.38 135.411L171.015 132.801L172.142 133.003L173.237 134.198ZM57.1043 128.373L62.4704 129.383L67.9634 131.269L70.6465 130.713L73.5042 128.844L75.441 130.545L76.9652 130.814L77.6319 129.989L79.4735 131.386L82.6011 131.673L84.0617 132.599L82.0613 133.205L73.7741 132.548L56.4533 128.474L57.1043 128.373ZM159.584 123.725L158.647 124.416L158.33 125.594L156.488 126.638L156.71 128.928H156.313L155.678 125.965L157.774 123.81L159.584 123.725ZM178.778 122.597L180.794 136.135L185.89 150.884L185.017 151.372L183.795 146.995L182.604 145.277L181.652 145.496L181.159 147.331L180.096 148.426L178.857 148.611L178.429 147.5L179.54 144.722L180.191 139.738L179.492 138.845L179.461 137.381L181.223 139.25L179.857 135.562L178.826 135.108L179.095 133.356L178.476 133.424L177.984 130.662L177 129.568L176 129.72L175.142 133.104L173.967 130.629L172.412 129.753L172.967 128.356L172.523 127.16L170.459 126.285L170.443 125.477L173.158 125.982L175.285 125.14L176.143 127.632L176.73 127.884L177.714 126.386L177.238 122.614L178.318 121.638L178.778 122.597ZM6.9361 113.791L9.50801 113.421L9.82555 113.842L8.7301 114.195L8.57133 114.785L24.5902 118.977L10.7622 115.711L5.39613 113.572L2.5702 111.097L1.07786 108.336L0.87146 105.171L1.52238 103.756L2.03043 103.874L1.95106 108.1L2.52258 110.256L3.87205 112.124L6.9361 113.791ZM85.6493 2.78231L89.7929 3.82625L93.2222 2.96752L93.4127 4.44922L92.4284 5.50999L92.2379 6.73911L93.7302 6.85696L95.6353 5.62784L96.0322 5.93092L95.8893 8.32181L97.4293 9.23104L97.5246 10.8979L99.5408 9.98875L98.3978 8.49019L98.2866 7.44628L106.812 5.72886L106.336 2.12565L111.765 0.963867L112.591 3.0854L113.416 3.28744L113.242 4.38186L112.432 4.68495L112.4 9.14688L114.798 8.28815L115.258 10.6959L130.705 8.06926L132.88 11.5883L134.357 12.9016L141.962 11.2852L146.55 13.8277L147.47 14.9052L148.455 21.0341L149.169 21.0004L150.233 27.7691L150.947 28.392L152.17 27.0619L153.71 26.843L154.615 27.6343L156.059 27.3144L155.901 26.4389L156.98 26.2031L156.774 24.3005L162.203 23.1724L161.965 24.5531L160.235 25.1087L160.775 27.9037L162.299 27.6512L162.727 28.9813L162.918 30.3452L160.838 30.7493L162.394 42.5354L164.156 42.3671L164.918 49.3883L166.125 49.2199L166.617 51.7624L167.649 51.8129L167.839 53.4629L171.142 53.0252L171.348 54.7762L173.967 54.3385L174.888 61.1745L177.635 60.9219L178.286 65.4175L175.047 65.9394L175.476 69.509L174.682 69.5427L174.666 71.3274L173.92 71.3779L173.936 72.1188L169.697 72.7418L169.792 73.8362L168.03 74.1056L168.459 77.17L170.999 76.867L171.157 77.9782L174.507 77.5236L175.015 82.2549L172.729 82.9452L173.221 85.9254L174.634 85.8749L175.063 88.4848L182.255 87.2725L182.541 89.5118L181.81 89.7307L182.302 92.2563L185.16 91.8017L189.272 94.4957L191.066 94.2431L192.034 109.296L193.574 109.144L192.209 110.996L190.002 112.444L182.541 114.128L179.143 117.075L178.048 120.611L176 120.712L175.19 119.6L173.698 120.038L171.189 118.758L168.141 119.634L167.823 121.621L168.982 126.015L166.998 131.285L165.966 133.104L163.68 135.326L163.204 134.383L162.473 134.03L161.949 134.434L161.092 135.259L160.282 137.599L159.758 134.855L160.235 133.744L159.489 132.986L156.837 132.279L156.933 131.269L157.774 129.955L160.219 130.359V129.837L158.361 129.484L157.885 126.773L159.108 125.763L159.885 124.18L159.631 123.507L160.267 123.608L160.838 126.487L161.505 124.163L163.743 123.203L164.839 125.359L164.775 125.813L164.061 125.679L164.14 126.419L165.045 126.773L166.045 124.365L166.157 120.307L164.886 119.466L163.696 117.664L162.95 117.714L162.378 118.573V119.785L163.267 121.621L161.791 122.025L161.568 122.698L160.028 122.345L158.758 121.099H158.044L157.631 119.937L156.996 119.92L154.821 117.529L153.249 117.95L152.329 116.435L152.44 114.818L151.535 112.747L150.677 112.512L151.503 114.953L150.725 117.917L151.376 120.021L152.408 119.617L152.821 120.274L151.789 122.143L151.551 125.005L150.455 125.291L150.281 120.863L148.439 118.641L147.185 114.768L145.994 113.724L145.295 111.754L143.755 109.885L142.962 109.936L142.184 112.276L140.914 111.097L140.231 111.939L142.581 112.663L144.2 117.9L145.724 119.365L145.486 120.392L143.136 122.345L142.581 121.621L143.597 118.96L142.803 116.671L141.819 116.351L141.136 118.708L139.755 119.196L139.977 119.6L141.072 119.045L141.819 119.752L142.311 120.745L142.104 121.941L143.374 122.867L142.597 124.483L141.819 122.884L140.961 122.328L139.929 123.742L139.167 123.624L139.072 121.89L137.913 120.745L136.802 122.564L136.849 124.113L133.119 116.94L131.547 115.627L130.277 115.273L128.769 115.846L127.943 114.482L127.34 115.357L125.752 115.644L122.386 112.798L121.926 113.892L119.608 113.96L119.275 115.122L120.465 117.395L119.402 117.613L117.957 116.822L117.1 116.064L116.941 115.122L116.369 115.408L115.036 114.027L115.274 115.02L113.718 115.307L114.877 122.429L113.766 122.85L113.337 121.654L111.972 120.897L110.94 122.715H110.098L109.622 124.197L108.892 124.399L108.177 123.826L108.447 125.796L110.908 127.699L108.527 127.177L107.479 127.716L107.209 129.501L108.511 131.454L107.098 131.336L105.463 129.905L103.684 130.595L103.494 131.471L98.7947 124.753L98.3501 124.567L97.5881 125.325L97.2864 127.682L95.937 127.446L95.8259 126.352H96.826L97.2864 123.978L96.0322 122.985L94.4288 122.496L92.476 123.052L91.9997 123.372L91.9838 125.291L91.4758 124.988L91.7139 122.9L92.9046 121.318L91.7774 119.583L92.8094 116.064L91.6187 118.287L90.7455 118.001L91.19 119.196L90.5074 121.149L87.5862 123.709L85.0619 122.715L84.2999 121.267L82.4106 121.065L81.8867 121.688L82.3789 122.547L81.5692 123.81L82.2201 124.635L81.458 124.955L78.8226 124.803L77.2509 125.325L73.012 124.416L71.5514 124.904L68.281 123.877L66.9474 124.365L66.6616 125.056L63.3594 125.813L62.0735 125.19L59.4221 125.83L56.2787 127.43L55.9929 128.204L56.4057 128.541L53.6592 127.867L37.9578 122.665L39.1644 122.9L39.8153 121.857L39.339 120.105L39.5454 119.701L39.7836 120.274L40.2599 120.072L39.8153 118.843L38.1007 118.304L37.3545 119.028L37.9896 119.55L37.4021 119.482L35.3383 117.193L33.9412 117.209L31.8614 115.559L31.1153 113.387L29.6547 112.714L28.9244 113.455L25.5904 112.848L24.5108 111.72L23.9234 109.986L21.5261 109.43L20.4942 111.72L15.7473 111.468L15.1758 112.108L14.9217 109.734L13.9692 109.532L14.2867 108.589L15.7314 107.376L17.9858 106.433L22.7804 106.299L24.9077 105.608L27.178 104.447L27.9877 102.898L29.4006 102.813L30.3056 102.022L28.6227 97.7621L27.7337 96.7519L26.9875 96.5667L25.5904 97.7453L24.5108 97.7958L16.6046 94.5294L17.4619 92.9803L18.732 92.913L19.3353 91.4144L20.4307 91.869L21.7802 91.2966L22.0818 91.9364L26.2413 93.536L29.5277 93.7212L31.2264 93.0308L33.83 92.9635L37.8785 94.5294L41.1648 94.7146L45.5624 95.9101L48.7376 95.2197L49.9124 94.0411L50.0553 93.3339L48.8011 93.1318L46.7849 93.5696L45.3878 94.3778L45.2608 95.0008H44.3082L42.4507 93.7044L43.6414 93.3171L43.562 92.7278L41.8951 92.391L43.8637 92.2563L42.9111 91.8354L42.6413 90.7746L43.4668 89.9327L42.5936 89.1582L43.3398 89.0067L43.4033 87.3566L42.8952 86.6831L40.2599 85.2519L34.4492 88.0133L32.5441 83.484L29.9087 83.2988L26.162 79.9482L26.4318 79.1568L28.6862 79.0221L28.0671 78.096L31.6709 77.4731L31.1629 73.7857L30.4485 73.9035L30.1627 72.5397L32.7822 71.8494L33.2744 72.304L35.9892 71.8157L36.2909 70.9065L38.8628 70.3003L38.5293 67.4043L40.498 66.3436L39.1803 63.919L45.8006 68.3809L47.2453 68.2293L46.8484 65.3333L52.0557 64.4241L52.4208 66.4782L55.739 66.0237L55.4055 63.919L56.1041 63.7506L55.6754 61.1071L56.2628 61.0229L56.4057 62.0668L57.8822 61.8143L58.5331 63.3465L64.2008 62.9087L64.6136 66.192L67.8206 65.6532L68.3921 66.2088L68.6144 65.3333L70.7576 65.0639L70.8212 64.4409L78.1082 63.0434L77.9654 62.1005L76.6 62.3531L76.346 60.9051L73.0279 61.5112L72.3452 61.1913L72.1865 59.7264L76.9493 58.5815L76.7588 57.2345L79.8546 56.8136L79.6164 55.5171L78.1559 55.6855L77.1557 52.2675L78.2352 51.2404L82.0931 53.4966L84.538 49.4388L77.2509 44.7075L75.9173 40.8012L78.1241 37.5684L78.5845 35.4469H80.9976L81.1088 34.9081L81.7121 36.2383L82.871 36.4403L82.7916 35.6826L84.3634 34.6218L84.3951 32.9887L86.1256 32.7193L86.9353 34.1841L87.8243 34.3356L88.5387 33.8305L87.8402 33.1738L87.9196 31.8774L90.5391 31.4564L88.2689 28.7119L87.1893 27.7859L86.4749 27.8196L86.3796 24.3511L88.1101 23.526L87.4433 18.862L82.9663 19.6197L82.6964 18.9799L82.4741 14.0297L83.6648 13.6256L83.6172 12.0934L84.4586 11.7398L84.6809 16.8247L88.2212 16.2523L87.5227 8.92798L88.7293 8.23764L88.4753 6.33501L88.253 5.82988L85.8398 7.37894L85.6493 2.78231Z" fill="#75B663" stroke="white" stroke-width="0.5"/>
</svg>
