<svg width="178" height="156" viewBox="0 0 178 156" fill="none" xmlns="http://www.w3.org/2000/svg">
<path d="M135.243 0.640625L135.672 1.01105L135.005 2.05496L137.688 4.31118L138.418 6.16329L145.023 8.20062L145.324 10.3558L142.53 11.063L143.61 12.2753L142.784 13.6391L145.737 17.5454L146.309 17.4612L146.848 15.8448L147.801 16.653L147.626 17.8148L148.706 18L149.484 22.6303L151.992 24.3645L151.532 26.5534L152.167 27.1596L151.627 27.3953L151.373 29.3484L152.468 30.6954L150.722 31.8404L150.103 31.0153L149.198 31.9077L152.532 36.4538L153.278 38.7774L156.12 37.986L156.818 40.7305L158.946 41.0504L159.867 42.7173L159.93 47.0782L164.677 48.8798L165.788 50.513L167.138 50.8498L166.566 51.9442L167.376 54.7561L166.535 55.699L169.678 58.1067L169.265 58.5613L169.345 62.636L167.233 64.8754L165.407 64.9427L165.264 69.3204L164.121 70.3139L165.693 71.4251L165.487 73.5635L166.217 74.9273L167.424 74.8768L168.646 75.887L168.789 77.7223L164.185 77.5708L161.057 75.685L158.057 75.3146L156.342 73.0415L154.707 77.4024L153.818 78.2779L153.945 78.7831L154.723 78.8336L154.088 79.9449L156.231 81.8475L158.422 82.6051L159.279 83.7838L160.74 84.3899L161.835 86.5114L162.835 85.8211L164.201 86.9661L167.519 86.1578L168.964 86.7977L169.964 88.3972L172.821 86.8482L174.981 87.0839L174.457 88.4982L170.535 92.3708L169.71 94.4587L170.631 95.9404L176.886 98.2134L176.87 100.116L172.742 102.019L173.552 102.709L174.234 106.093L173.536 107.474L175.822 108.518L175.886 109.074L174.393 109.242L174.377 110.084L168.44 111.431L168.249 110.404L166.519 110.606L166.36 109.966L165.328 109.798L164.852 110.69L165.471 112.087L161.692 112.357L161.549 111.566L160.295 112.727L159.867 112.003L158.009 111.33L158.454 113.637L157.041 113.704L155.802 107.205L154.485 107.844L154.088 105.908L154.469 105.47L153.326 105.066L152.834 103.938L151.722 105.908L149.5 105.571L148.849 105.15L149.166 104.073L148.674 102.221L147.991 102.44L147.817 101.48L145.038 102.12L144.276 101.109L144.165 101.598L143.006 101.631L142.943 103.282L141.482 103.366L140.673 109.596L138.974 108.602L138.529 110.707L136.211 111.431L136.148 112.542L137.259 113.434L137.196 115.573L136.767 115.994L134.656 116.095L134.29 116.802L133.687 116.583L133.862 115.438L131.671 115.489L130.448 114.293L129.274 115.825L126.083 116.499L124.495 118.553L124.527 116.448L120.621 114.108L119.637 114.041L118.541 112.795L118.049 113.637L115.477 114.748L112.953 114.377L112.143 117.341L108.635 116.634L106.396 118.233L107.222 116.499L106.587 115.994L105.666 117.021L106.285 117.408L105.825 117.88L106.491 119.378L105.333 120.439L105.745 121.011L104.92 122.577L105.396 123.099L103.666 124.261L103.634 125.456L99.6172 127.41L98.0613 128.874L98.617 129.615L98.3154 130.104L97.4581 129.531V130.39L96.3944 131.316L96.5055 130.188L95.7276 131.838L94.394 130.945L94.2511 131.922L92.9493 131.972L91.8856 129.363L89.3772 130.137L88.8215 128.655L86.964 128.369L86.3766 129.481L84.5509 129.076L83.5031 130.777L82.8839 130.339L82.3283 131.114L81.979 130.794L81.4868 131.922L80.3438 130.979L80.0262 131.568L79.0578 131.131L78.2957 129.548L77.7718 129.8L76.5176 128.942L75.3746 129.262L74.9935 128.672L73.2948 128.942L72.628 128.218L72.2152 128.268L72.3581 129.245L69.6433 128.992L69.5481 130.07L68.9448 130.322L66.2935 129.834L65.1345 128.352L64.69 129.464L62.0546 128.403L61.8958 129.127L60.8321 129.228L58.8318 128.538L55.7201 129.952L55.6248 130.945L55.0215 130.71L54.2118 132.68L52.4178 132.579L54.2595 134.65L53.5768 137.495L51.3701 138.32L50.0206 140.543L52.1797 142.479L51.5606 143.287L52.0209 143.708L51.8781 145.712L47.3534 145.998L45.9087 144.382L43.2257 145.122L42.3684 149.012L39.0027 149.568L37.9389 150.477L35.2559 151.083L35.3194 152.464L33.9223 153.019L33.319 153.12L30.2867 151.1L29.6199 151.756L29.35 153.625L27.5561 155.646L26.4288 155.528L24.0792 153.12L19.7451 153.895L19.7133 152.363L21.6184 151.857L21.8089 150.359L21.0627 149.871L22.5551 149.921L21.7296 145.274L19.2212 144.466L18.6496 143.422L18.8243 142.193L20.7294 141.923L21.1263 140.021L20.2689 139.97L20.0943 138.707L18.4591 138.152L18.5702 136.788L17.1732 136.737L14.9823 134.38L14.0456 134.33L14.3313 133.623L13.6804 133.101L14.2678 131.72L15.3156 131.518L14.0932 129.514L14.3472 128.942L9.02876 127.106L8.50487 121.819L7.17125 120.91L6.64736 118.284L6.0758 117.661L7.06015 116.533L5.42492 115.64L4.64699 116.112L2.77361 113.94L3.37691 112.963L2.75774 112.29L5.10739 108.467L4.56761 108.114L4.51998 106.531L2.2497 107.541L0.392212 103.904L0.868497 103.702V102.844L1.55115 104.006L2.78948 100.352L4.72635 101.025L4.40884 98.8533L7.20303 97.9777L7.13951 96.9843H6.48859L6.05996 96.0246L6.74261 91.2596L5.58365 89.1044L6.71088 89.3738L7.21887 88.6498L8.3461 88.9192L7.79043 90.2325L6.79024 90.5861L8.83825 92.9939L11.4737 92.4382L11.8864 93.1285L13.6963 92.2698L15.2363 92.4382L14.76 91.1586L15.9666 90.7208L17.7923 86.9324L19.0941 86.3767L19.0306 83.969L18.348 82.2684L18.6496 81.3087L19.3005 81.6791L21.3168 81.073L22.19 79.8102L23.0155 79.5913L25.4604 80.3321L26.1113 83.5312L27.2068 84.9456L28.0323 83.6154L27.302 81.9822L28.4292 81.4434L29.3183 79.4397L29.4771 80.2479L32.2554 79.9617L31.6203 84.5415L40.9236 86.2589L41.0507 87.8416L41.5428 87.9258L42.8764 82.3021L43.9877 81.9822L43.7972 79.8943L45.0673 79.4902L45.1149 77.857L46.893 76.6952L49.3379 79.9449H50.3857L52.148 77.6718L52.8465 77.958L54.1007 76.3248L55.7518 77.5034L57.6728 77.5203L60.7369 79.6249L61.7847 78.4968L63.5628 78.5137L64.563 77.6718L68.0716 77.857L68.9924 77.0151L70.2942 77.234L70.9769 75.3146L71.5484 75.2977L71.7707 73.0078L70.9769 72.2333L74.9935 71.6103L75.581 70.7684L75.4857 69.4046L76.7875 67.5188L77.6289 68.7648L77.3908 67.3168L78.5656 66.8622L80.2326 65.1448L80.6295 61.1038L81.2646 60.0598L81.8361 59.7568L82.6934 60.6997L82.9633 59.8746L83.4713 59.942L82.7728 58.4098L83.3126 57.8373L82.2806 57.6689L82.5505 55.7326L86.2496 49.7554L86.075 48.341L86.8053 48.7114L87.0752 48.0043L85.948 47.3308L86.5036 44.8388L87.0752 44.4516L86.3925 42.7847L86.8053 40.6632L85.4558 39.5014L87.0593 35.8477L86.5195 34.0124L88.3611 32.7496L89.2343 33.5915L90.933 31.2342L95.4894 29.702L95.6165 29.0453L94.1559 26.7049L93.3779 26.4524L93.3462 25.7789L94.013 25.2738L92.0126 24.112L90.8219 24.6845L92.1078 23.1186L91.1712 23.0007L91.6475 21.7884L96.0451 21.3843L98.0455 21.7716L98.9504 22.6303L99.1727 23.3206L98.0296 26.7386L98.0931 29.6852L99.0139 31.7562L100.411 32.0929L100.856 33.3221L101.919 33.1368L102.253 34.7027L102.904 34.5175L103.173 32.1939L105.253 31.8572L105.825 30.1398L106.666 29.8704L106.936 29.0453L108.143 29.1295L108.397 33.6588L113.715 34.1639L115.763 30.4597L116.779 30.3587L116.668 28.0856L118.113 26.7049L119.161 23.9268L123.034 24.213L123.733 26.1156L124.638 24.0446L123.653 19.2628L127.194 17.0739L128.019 17.2086L128.258 16.3836L125.162 15.5922L124.003 15.8953L124.193 11.9049L127.527 9.93487L126.765 8.58789L126.162 8.80677L125.574 7.00517L127.114 7.47661L128.908 3.70503L128.67 3.08205L129.766 2.72846L132.036 4.26067L133.624 1.24677L134.719 1.38148L135.243 0.640625Z" fill="#75B663" stroke="white" stroke-width="0.5"/>
</svg>
