<svg width="143" height="82" viewBox="0 0 143 82" fill="none" xmlns="http://www.w3.org/2000/svg">
<path d="M39.6016 0.637134L44.1263 1.58003L45.3805 4.10564L46.5553 1.52952L47.4126 0.485578L48.0317 0.46875L49.0637 1.10858L51.7944 5.01485L51.5562 7.15321L52.8898 6.93431L54.6679 8.04559L56.065 7.62465L58.24 5.08221L60.7008 6.07561L61.2564 3.29745L62.3043 2.89334L62.7964 3.48266L63.1298 6.41236L61.955 8.33182L64.6539 12.3223L66.3844 11.0426L66.2891 9.79669L64.7015 7.03536L64.9715 5.80621L65.8446 5.25057L67.2893 7.00168L67.464 11.4131L68.5912 13.1305L70.147 13.3999L73.9731 12.1371L75.7671 14.7974L77.0531 14.1407L78.5295 14.8984L80.6093 12.5412L83.3717 12.3055L85.6737 11.7162L89.2617 19.0909L91.8177 19.6466L93.2466 18.771L92.2623 16.0097L92.4369 14.9153L93.6752 14.9994L94.9453 16.7842L97.1044 16.7337L97.9935 16.0434L97.676 14.8984L96.1043 13.383L95.8185 12.0529L93.199 12.4738L92.6909 11.7667L92.9132 10.8743L93.707 10.2345L94.9612 10.2513L97.3743 12.7264L98.692 12.7769L99.343 12.1876L99.5176 10.9921L99.2795 9.74616L98.2793 8.70224L98.7556 7.96139L99.8351 8.7191L100.391 11.3794L101.47 11.5478L102.375 9.81352L101.423 7.30474L102.788 6.05878L103.947 6.53023L103.629 8.44969L104.693 10.5039L106.805 12.0024L108.027 11.4131L109.408 9.14003L111.536 9.02216L112.758 7.94457L113.266 9.45992L117.854 10.6217L119.601 10.5375L120.807 9.02216L122.093 8.44969L126.475 9.94822L127.491 8.41601L126.046 6.31134L126.475 5.01485L128.364 4.98119L130.476 7.00168L131.73 6.37867L132.206 4.45921L133.286 4.35819L137.556 6.98482L139.144 12.0529L138.985 14.8647L140.049 17.0031L141.891 18.0807L140.24 19.3603L138.588 19.5961L137.144 23.1151L134.064 23.1319L133.508 22.2564L133.619 21.0104L132.952 20.4211L132.079 19.8486V20.5726L131.524 19.916L131.349 20.5895L130.428 20.4042L128.475 26.4994L127.412 25.6744L125.872 26.2805L124.745 24.9672L123.633 24.6136L122.189 25.8933L120.68 26.2973L118.204 23.2498L117.68 21.1114L116.68 22.2732L114.092 22.1217L115.378 23.1824L115.854 25.708L115.679 26.129L114.743 25.506L113.377 25.7922L112.885 27.6443L109.44 26.5331L109.297 27.1392L107.678 25.5397L107.757 24.2432L106.646 22.4248L105.249 22.9299L101.407 22.5089L100.073 24.1927L98.5809 23.2498L97.8982 23.7717L100.613 27.9979L102.137 28.9071L102.931 28.2505L103.677 28.8735L104.042 31.5169L103.28 33.1502L102.296 33.3185L101.153 32.5945L100.28 30.894L99.3588 31.5169L96.8822 27.7959L96.3424 27.9306L97.0251 30.2541L95.9931 30.4899L95.9296 31.1633L94.5167 32.2578V32.8976L92.8497 34.8339L93.453 36.2819L93.3736 37.107L92.6274 36.8544L92.8656 37.7805L91.6272 37.8478L91.0398 37.2248L90.3413 37.6626L90.246 39.4979L89.1665 39.0096L88.9442 39.8346L87.7376 40.4408L84.7529 39.481L84.0226 40.6933L82.8637 41.0132L83.0383 41.6699L82.2128 41.1143L80.3394 42.3266L79.6726 41.4174L78.8788 42.4276L78.2597 41.9561L78.1644 42.5623L77.4341 42.5455L77.1166 43.1348L77.5135 44.6501L75.5607 46.8053L74.3065 51.1662L71.0202 53.776L70.2105 57.5813L69.4643 58.642L65.3366 60.0058L62.9552 59.1977L56.9541 60.6793L54.9854 60.1406L54.4457 61.2687L53.636 61.5549L52.0166 60.7635L50.1433 61.3192L49.3336 62.3968L47.4126 63.3565L42.5069 63.1039L40.57 62.4473L37.4107 63.4575L22.6302 65.4275L20.3123 67.2459L18.2325 67.3133L17.6768 70.1083L14.8033 74.3176L14.7239 75.8162L13.7237 75.9677L12.9299 76.8264L12.0567 78.9311L9.45307 80.0424L8.73865 79.6046L7.9131 81.423L6.21437 80.6654L5.65871 81.423L1.57858 81.2883L2.92804 75.6478L4.86491 72.7518L5.61107 70.4282L4.80141 70.1083L4.94428 69.4853L2.99154 67.5827L2.81691 66.7408L3.59483 66.4041L3.42019 65.1244L1.38807 62.7504L1.83259 62.1779L1.32456 61.9085L1.59445 61.235L0.816528 58.541L1.48332 57.3624L1.1023 55.8302L5.4682 50.7621L4.72202 48.91L5.00779 48.3039L5.88098 47.9166L7.67496 48.6743L7.88134 47.2263L9.34194 46.839L9.38957 44.6165L10.7549 44.2629L10.358 42.697L11.1994 42.2929L12.6283 42.899L13.1522 42.6128L13.2792 41.4847L12.0091 40.3734L12.152 39.4642L11.5487 39.0264L13.5332 37.1743L15.6288 36.7534L19.8519 30.3047L23.7732 26.0448L27.2342 24.4957L29.2822 24.5294L30.9968 23.8222L33.8862 24.3274L35.1722 25.5902H38.7919L39.3476 24.159L38.1886 19.9497L38.268 9.4431L37.4901 7.84355L37.5695 4.897L37.1726 4.32453L39.6016 0.637134Z" fill="#75B663" stroke="white" stroke-width="0.5"/>
</svg>
