<svg width="163" height="187" viewBox="0 0 163 187" fill="none" xmlns="http://www.w3.org/2000/svg">
<path d="M146.419 1.60056L147.022 1.41534L152.15 3.73891L152.88 3.35165L153.912 3.70523L155.849 1.81944L156.849 1.88679L158.056 2.99806L157.897 3.82309L158.707 4.24403L157.961 6.34871L156.691 6.85383L157.31 8.38603L156.484 8.70595L156.961 9.31209L156.294 10.1203L156.357 11.3494L155.802 12.2755L155.103 12.3765L155.548 13.7572L154.563 15.643L152.738 16.4006L153.643 17.5456L152.563 18.7074L152.738 19.9533L153.912 21.7886L153.341 21.9738L153.055 23.5734L154.151 23.7418L153.357 23.3377L154.087 22.8662L157.977 24.7688L157.85 25.7117L159.152 26.2L159.628 27.3786L159.31 28.2205L160.342 27.9174L162.12 28.5741L162.597 28.1026L162.565 32.6656L160.866 32.7161L158.643 33.76L157.373 31.6048L156.611 31.5712L154.817 33.3896L152.738 33.3222L152.087 34.8208L153.722 35.5616L155.865 38.3398L154.627 42.7512L153.309 42.7849L152.547 42.0945L151.547 42.4313L151.214 43.5594L149.546 43.1216L148.943 44.0308L147.483 44.1319L147.578 44.8727L145.212 45.0748L145.165 46.8764L142.259 48.8295L142.545 51.5403L143.133 51.8097L143.561 53.1062L142.323 53.6955L141.18 56.339L140.465 56.2548L140.021 56.962L140.64 57.164L141.307 59.6223L143.006 61.6596L143.434 66.9971L142.625 68.7987L143.911 69.2028L144.053 72.1156L145.974 74.456L147.657 74.776L146.816 75.7357L144.323 75.6515L144.133 76.3587L144.831 78.1603L145.689 78.6654L146.07 81.5278L143.768 82.8411L143.133 82.538L142.752 83.6324L142.99 85.0636L142.275 86.0233L141.894 88.7173L142.91 89.7276L142.053 90.9399L143.006 91.4955L142.767 93.0109L142.037 92.9604L141.72 92.1017L140.45 91.9838L140.815 92.7751L141.609 92.8425L141.72 94.038L140.402 94.2568L139.037 93.9369L139.068 92.9099L137.798 92.1858L138.814 90.9735L138.322 90.5358L136.798 91.7144L137.862 94.1558L137.751 96.2268L139.243 96.1931L140.005 98.2473L139.354 99.7458L138.243 100.116L138.941 100.722L137.957 100.958L139.719 101.379L138.941 103.551L139.449 104.629L137.481 106.969L137.925 109.023L137.211 109.545L135.226 109.629L134.464 110.539L134.909 110.976L133.702 112.946L135.306 114.596L132.766 119.227L133.385 119.816L133.607 119.378L137.782 120.186L137.862 121.028L139.561 121.382L139.021 123.133L140.259 124.244L138.91 125.305L138.036 128.268L139.942 129.127L139.957 128.268L142.069 126.955L143.244 131.417L143.799 131.737L144.45 131.198L146.546 131.08L146.324 134.431L146.895 137.125L145.577 137.108L144.927 137.782L145.419 139.549L144.831 140.913L145.641 141.284L144.101 143.237L144.768 145.678L143.99 146.385L145.879 150.309H146.863L147.245 151.235L148.197 151.117L148.562 151.588L147.213 152.548L143.164 153.541L143.895 155.057L143.736 158.441L142.037 159.384L142.291 160.192L141.339 163.324L142.323 163.981L141.196 164.3L141.021 165.378L138.417 168.796L139.402 170.631L138.068 172.164L137.036 172.281L136.465 174.891L134.306 174.807L134.607 175.901L134.02 176.154L133.686 177.585L132.908 177.451L132.162 178.174L132.575 178.781L131.067 179.303L131.257 180.666L126.987 183.765L124.462 184.034L124.272 184.842L125.002 185.33L124.494 186.088L123.367 185.516L123.034 185.937L122.272 185.044L121.922 185.65L121.732 185.179H118.096L118.176 184.017L116.08 184.32L115.905 185.33L112.19 185.044L110.206 186.324L108.094 184.118L108.428 181.491L105.856 181.542L103.601 180.397L103.189 180.801L101.95 180.144L101.712 178.966L99.3784 179.202L98.9815 179.909L99.3784 180.986L97.8066 181.744L97.6161 183.192L95.6316 183.781L96.1873 184.758L95.5999 186.122L94.7585 185.448L94.2187 185.937L93.663 185.246L89.7734 186.172L89.6464 185.566L90.5672 184.286L90.3767 183.562L88.3763 183.175L86.5664 183.731L86.1378 182.098L87.3285 180.128L84.6613 181.441L83.296 176.306L80.2478 175.177L80.8035 174.184L80.0414 173.746L81.0892 173.881L81.2162 172.854L82.0259 172.77L82.4228 173.679L84.3597 173.022L85.344 171.507L84.8042 170.446L85.344 168.83L83.804 168.729L80.2478 168.863L79.4222 168.544L77.7711 164.048L75.6755 162.953L74.3578 160.832L71.8017 161.573L71.7859 162.903L70.4047 163.189L70.6587 165.328L70.0554 165.681L70.1983 167.213L65.1656 166.927L64.1178 168.072L63.0382 167.718L63.0223 169.486L62.1809 170.513L58.9422 170.059L58.1166 170.833L56.3385 169.874L56.0687 170.547L54.6874 170.513L51.8615 172.433L50.6708 172.298L50.4485 170.968L48.1148 169.453L45.8921 172.433L45.3365 170.126L42.0342 168.813L42.066 167.331L41.6215 167.382L41.4151 166.371L38.3352 165.782L38.3193 164.587L37.2556 164.553L37.2873 162.768L39.9545 162.97L40.4308 162.415L40.0021 161.792L40.3673 161.169L38.9702 159.704L40.1609 157.279L39.9386 155.107L39.3354 154.888L39.3036 154.131L38.4621 154.434L38.3987 152.447L37.1445 152.329L37.1921 151.504L34.8583 149.972L34.9695 147.833L32.3658 147.379L31.826 148.793L25.9677 148.861L25.5867 149.416L22.9196 148.625L22.3322 147.968L21.6177 148.456L21.4272 150.342L20.2365 150.578L19.3475 150.511L19.1252 149.534L19.8396 149.669L19.8873 148.726L21.4431 147.413L19.2999 149.13L16.1564 147.547L14.1719 148.086L14.0449 146.975L14.7276 145.577L13.8861 144.146L14.6164 143.86L15.4419 144.533L15.6483 143.321L16.3945 142.631L15.7436 138.708L14.1719 137.748L13.8861 136.957L11.4095 136.249L10.1553 132.276L9.15506 130.811L9.12333 127.561L7.02769 126.652L6.82129 125.187L1.48698 125.541L1.1377 122.847L1.88388 120.894L0.61377 119.008L2.10612 118.25L2.34425 117.56L1.0583 115.556L0.883683 112.374L1.4552 111.515L2.85229 111.734L3.5191 111.263L2.26489 110.589L3.0428 109.023L1.62986 107.02L2.10612 106.464L3.97952 106.666L4.47167 106.245L4.39226 104.881L3.47148 103.753L7.4881 101.615L7.96436 99.7964L6.9007 100.285L7.39285 99.6617L6.39266 99.0555L7.99615 97.4054L9.45671 96.7488L8.72643 94.7788L9.679 93.0951L7.74213 88.8184L6.45617 89.1719L5.97986 88.65L5.74173 86.6295L7.885 85.7708L7.94852 85.1815L6.23389 84.1544L5.85288 81.8982L5.09081 81.1237L5.80525 77.8404L5.17022 77.4363L3.94774 78.3287L2.94754 76.3418L2.97933 75.5673L4.3129 74.8601L2.91581 74.4392L1.91561 73.2438L2.45539 72.5534L3.916 72.9407L4.42405 72.4187L3.23335 71.5768L3.29682 70.937L1.8521 70.5329L1.99502 69.489L3.28097 67.8053L2.31251 66.6435L3.01106 66.0879L4.10651 67.216L5.20196 67.3338L5.51945 65.8858L4.85268 63.2928L8.07551 62.5688L8.32953 60.5652L9.42498 58.3426L9.01219 57.9049L7.6945 58.309L7.51984 57.6186L8.50414 56.9788L9.80599 57.063L9.66311 56.238L10.5045 55.0425L9.55196 52.4159L11.8857 51.3214L12.4573 48.5938L14.1878 46.9774L14.664 45.26L17.5852 45.6472L18.7918 43.5089L17.998 40.9833L18.6966 40.3434L19.8396 41.1011L20.3318 40.4445L19.538 40.4108L19.5539 39.771L20.8557 38.8618L21.3478 39.3164L22.2528 39.0638L22.0464 37.7673L23.3641 37.4474L22.4433 36.6224L22.9354 35.8142L23.7292 36.9591L24.5548 36.7402L24.5389 35.8142L23.6022 35.4438L23.9674 34.8039L23.6181 34.2315L24.4913 34.0462L24.0944 33.1539L24.7612 33.2549L24.1103 32.5982L24.9517 32.0931L24.142 30.8471L24.6024 30.6283L24.9041 31.5712L25.4439 31.6217L24.6501 29.4833L25.6502 29.3318L25.555 27.9848L26.2377 27.8501L26.1741 28.5573L27.5236 29.0624L31.8101 27.8669L33.5088 27.9174L35.8426 26.8062L36.8745 28.894L39.7005 29.6012L39.6211 30.5272L40.399 31.5375L41.9073 32.3288L44.2093 31.3859L45.4 28.7256L45.0189 28.2205L45.6699 26.5199L48.9562 25.0551L48.5434 23.927L49.9722 23.1524L52.4966 23.1861L53.4491 25.2066L54.5763 25.4423L56.1957 24.6005L60.7997 25.6612L64.4036 25.6275L66.642 26.3347L67.0707 27.3955L70.2618 25.7959L72.151 27.1597L74.8658 26.0653L76.7392 26.7725L79.7556 29.0792L79.5969 30.0221L78.8348 30.9313L77.6918 31.2007L78.1204 31.8237L77.4536 32.0931L80.4542 31.3018L87.0745 33.0528L87.3126 32.0426L89.1542 32.1605L89.948 29.719L92.5517 29.618L94.0599 28.3552L95.6316 28.0521L97.6796 26.6378L97.8225 25.0887L99.0767 24.853L99.2196 23.8428L101.744 22.6642L101.585 21.7549L99.5689 22.1422L100.696 18.6063L99.4577 15.744L100.601 13.7067L102.506 13.9087L103.363 13.2689L102.776 12.2755L103.141 10.5075H102.03L101.093 7.20742L101.172 5.79307L101.776 5.11958L103.76 5.05223L105.538 6.36554L106.904 5.96145L108.221 7.19058L109.349 5.91093L111.539 6.11298L113.159 8.45338L114.651 7.99877L118.715 11.2484L119.684 13.151L122.621 11.4841L123.129 12.2923L124.859 11.6693L125.844 12.1239L126.987 10.3897L129.432 10.8275L129.59 13.151L130.702 13.4373L133.671 10.8948L135.417 10.9453L135.861 9.53098L137.973 7.8304L138.926 5.86042L139.529 6.18033L139.608 6.98853L139.021 7.34211L139.37 8.0998L141.847 5.96145L142.879 4.22719L144.72 4.66497L144.831 1.70158L145.784 1.58372L146.006 1.04492L146.419 1.60056Z" fill="#75B663" stroke="white" stroke-width="0.5"/>
</svg>
