<svg width="32" height="32" viewBox="0 0 32 32" fill="none" xmlns="http://www.w3.org/2000/svg">
<path fill-rule="evenodd" clip-rule="evenodd" d="M16.001 4.40039C12.5899 4.40039 9.82527 7.28556 9.82527 10.8448C9.82527 11.216 9.41476 12.0151 9.0674 12.6261C8.91596 12.8916 9.18147 13.2209 9.47211 13.1268C9.94301 12.975 10.4175 12.8345 10.895 12.7053C10.793 13.4356 10.8488 14.1792 11.0586 14.886C11.2684 15.5929 11.6274 16.2465 12.1113 16.8028C12.5953 17.359 13.1929 17.805 13.8639 18.1107C14.5349 18.4163 15.2636 18.5745 16.001 18.5745C16.7383 18.5745 17.467 18.4163 18.138 18.1107C18.809 17.805 19.4067 17.359 19.8906 16.8028C20.3746 16.2465 20.7335 15.5929 20.9434 14.886C21.1532 14.1792 21.209 13.4356 21.1069 12.7053C21.5845 12.8345 22.0589 12.975 22.5298 13.1268C22.8211 13.2209 23.086 12.8916 22.9345 12.6261C22.5865 12.0151 22.1767 11.216 22.1767 10.8448C22.1767 7.28556 19.412 4.40039 16.001 4.40039ZM15.8895 6.41428C15.897 6.39068 15.9118 6.37008 15.9318 6.35546C15.9518 6.34084 15.9759 6.33296 16.0006 6.33296C16.0254 6.33296 16.0495 6.34084 16.0695 6.35546C16.0895 6.37008 16.1043 6.39068 16.1118 6.41428L16.4302 7.39383C16.4377 7.41736 16.4524 7.43789 16.4724 7.45248C16.4923 7.46708 16.5163 7.47497 16.541 7.47503H17.5715C17.6843 7.47503 17.7313 7.62003 17.6398 7.68641L16.8065 8.29219C16.7866 8.30663 16.7718 8.327 16.7641 8.35038C16.7565 8.37376 16.7565 8.39895 16.764 8.42236L17.0823 9.40192C17.0904 9.42546 17.0907 9.45095 17.0832 9.47468C17.0758 9.49841 17.0609 9.51913 17.0408 9.53381C17.0207 9.54849 16.9965 9.55637 16.9716 9.5563C16.9467 9.55622 16.9225 9.54819 16.9025 9.53338L16.0693 8.92761C16.0493 8.91309 16.0253 8.90528 16.0006 8.90528C15.976 8.90528 15.952 8.91309 15.932 8.92761L15.0981 9.53338C15.0782 9.54807 15.0541 9.55602 15.0293 9.55608C15.0045 9.55615 14.9804 9.54833 14.9603 9.53376C14.9403 9.51919 14.9254 9.49862 14.9179 9.47503C14.9103 9.45144 14.9105 9.42606 14.9183 9.40256L15.2367 8.42301C15.2444 8.39957 15.2445 8.37428 15.237 8.35078C15.2295 8.32727 15.2147 8.30675 15.1948 8.29219L14.3609 7.68641C14.3407 7.67196 14.3258 7.65149 14.3181 7.62795C14.3104 7.60442 14.3103 7.57904 14.318 7.5555C14.3257 7.53195 14.3407 7.51147 14.3608 7.497C14.3809 7.48253 14.4051 7.47484 14.4298 7.47503H15.4596C15.5106 7.47503 15.555 7.44281 15.5711 7.39448L15.8895 6.41492V6.41428ZM12.2084 12.6641C12.097 13.2248 12.1114 13.8032 12.2504 14.3577C12.3894 14.9122 12.6496 15.429 13.0123 15.8709C13.375 16.3127 13.8312 16.6686 14.348 16.913C14.8648 17.1574 15.4293 17.2842 16.001 17.2842C16.5726 17.2842 17.1372 17.1574 17.654 16.913C18.1708 16.6686 18.6269 16.3127 18.9896 15.8709C19.3524 15.429 19.6126 14.9122 19.7516 14.3577C19.8906 13.8032 19.9049 13.2248 19.7935 12.6641C17.1255 12.0184 14.8764 12.0184 12.2084 12.6641Z" fill="#4C94FF"/>
<path d="M23.0896 16.0006L26.3118 14.1595V6.33398H27.6007V21.1562L23.0896 19.2229V16.0006ZM23.5575 20.9809L21.5713 27.6006H27.6007V24.0562C27.6007 22.7647 25.8846 21.7091 23.5575 20.9809Z" fill="#4C94FF"/>
<path fill-rule="evenodd" clip-rule="evenodd" d="M22.3146 20.6353C20.1751 20.1107 17.7262 19.8369 15.6595 19.871C11.0111 19.9464 4.40039 21.4389 4.40039 24.0554V27.5998H20.2253L22.3146 20.6353ZM8.33536 23.4451C8.41182 23.2924 8.5458 23.1762 8.70784 23.1222C8.86989 23.0682 9.04675 23.0807 9.19956 23.157L10.2004 23.6571L11.2012 23.157C11.2772 23.1161 11.3606 23.0908 11.4465 23.0827C11.5324 23.0746 11.6191 23.0838 11.7014 23.1098C11.7837 23.1358 11.8599 23.1781 11.9255 23.2342C11.9912 23.2902 12.0449 23.3589 12.0835 23.4361C12.1221 23.5132 12.1448 23.5974 12.1502 23.6835C12.1557 23.7697 12.1438 23.856 12.1152 23.9375C12.0867 24.0189 12.0421 24.0938 11.984 24.1577C11.926 24.2215 11.8557 24.2731 11.7773 24.3093L10.4884 24.9537C10.399 24.9984 10.3004 25.0217 10.2004 25.0217C10.1004 25.0217 10.0018 24.9984 9.91232 24.9537L8.62343 24.3093C8.47069 24.2328 8.35455 24.0989 8.30054 23.9368C8.24652 23.7748 8.25905 23.5979 8.33536 23.4451Z" fill="#4C94FF"/>
<path d="M8.35809 19.4409C8.43571 19.4043 8.50522 19.3524 8.56253 19.2885C8.61984 19.2246 8.6638 19.1499 8.69182 19.0687C8.71985 18.9876 8.73138 18.9016 8.72574 18.816C8.7201 18.7303 8.6974 18.6466 8.65897 18.5698C8.62054 18.4931 8.56716 18.4248 8.50196 18.3689C8.43677 18.3131 8.36106 18.2708 8.27931 18.2446C8.19755 18.2184 8.11138 18.2088 8.02586 18.2164C7.94035 18.2239 7.8572 18.2485 7.78132 18.2887L5.4001 19.4809C5.24866 19.5583 5.13394 19.6923 5.08093 19.8539C5.02793 20.0155 5.04094 20.1915 5.11712 20.3435C5.19331 20.4955 5.3265 20.6113 5.48766 20.6656C5.64883 20.7198 5.8249 20.7082 5.97752 20.6332L8.35809 19.4409Z" fill="#4C94FF"/>
</svg>
