<svg width="32" height="32" viewBox="0 0 32 32" fill="none" xmlns="http://www.w3.org/2000/svg">
<path d="M25.4892 9.21729C25.4286 9.03113 25.3107 8.86889 25.1524 8.75378C24.9941 8.63866 24.8034 8.57657 24.6076 8.57639H22.4964V5.32839C22.4964 4.81509 22.0817 4.40039 21.5684 4.40039H10.4324C9.91909 4.40039 9.50439 4.81509 9.50439 5.32839V8.57639H7.39319C7.19732 8.57613 7.00642 8.63805 6.84798 8.75322C6.68955 8.8684 6.57176 9.03089 6.51159 9.21729L4.40039 15.7104V26.6724C4.40039 27.1857 4.81509 27.6004 5.32839 27.6004H26.6724C27.1857 27.6004 27.6004 27.1857 27.6004 26.6724V15.7104L25.4892 9.21729ZM20.2924 19.3644C20.2924 19.492 20.188 19.5964 20.0604 19.5964H16.9284V22.7284C16.9284 22.856 16.824 22.9604 16.6964 22.9604H15.3044C15.1768 22.9604 15.0724 22.856 15.0724 22.7284V19.5964H11.9404C11.8128 19.5964 11.7084 19.492 11.7084 19.3644V17.9724C11.7084 17.8448 11.8128 17.7404 11.9404 17.7404H15.0724V14.6084C15.0724 14.4808 15.1768 14.3764 15.3044 14.3764H16.6964C16.824 14.3764 16.9284 14.4808 16.9284 14.6084V17.7404H20.0604C20.188 17.7404 20.2924 17.8448 20.2924 17.9724V19.3644ZM20.4084 8.57639H11.5924V6.48839H20.4084V8.57639Z"
      fill="#4C94FF" />
</svg>
