<svg width="32" height="32" viewBox="0 0 32 32" fill="none" xmlns="http://www.w3.org/2000/svg">
<path d="M13.7802 12.9962C12.9662 12.9962 12.3002 13.6712 12.3002 14.4962V18.2462C12.3002 18.6606 11.969 18.9962 11.5602 18.9962C11.1513 18.9962 10.8202 18.6606 10.8202 18.2462V14.6579C10.8202 13.8428 11.0385 13.0421 11.4534 12.3428L15.0493 6.26822C15.4697 5.55759 15.2431 4.6365 14.5419 4.20993C13.8736 3.80352 13.0286 4.00837 12.5856 4.64165C12.5763 4.65243 12.5569 4.6515 12.549 4.66415L7.12575 12.9095C6.63734 13.652 6.3802 14.515 6.3802 15.4047V19.1654L2.21215 20.5736C1.91743 20.673 1.66106 20.8639 1.47942 21.1192C1.29778 21.3746 1.20009 21.6814 1.2002 21.9962V26.4962C1.2002 27.0034 1.59425 27.9963 2.6802 27.9963C2.80461 27.9963 2.93041 27.9803 3.05297 27.948L11.3405 25.7627C13.6488 25.0937 15.2602 22.9286 15.2602 20.4962V14.4962C15.2602 13.6712 14.5942 12.9962 13.7802 12.9962ZM29.7882 20.5773L25.6202 19.1692V15.4084C25.6202 14.5187 25.363 13.6557 24.8746 12.9132L19.4514 4.66837C19.443 4.65571 19.4241 4.65712 19.4148 4.64587C18.9718 4.01259 18.1268 3.80774 17.4585 4.21415C16.7573 4.64025 16.5307 5.56181 16.9511 6.27244L20.547 12.347C20.9619 13.0464 21.1802 13.847 21.1802 14.6621V18.2504C21.1802 18.6648 20.849 19.0004 20.4402 19.0004C20.0313 19.0004 19.7002 18.6648 19.7002 18.2504V14.5004C19.7002 13.6754 19.0342 13.0004 18.2202 13.0004C17.4062 13.0004 16.7402 13.6754 16.7402 14.5004V20.5004C16.7402 22.9328 18.3515 25.098 20.6599 25.7664L28.9474 27.9517C29.0704 27.9841 29.1962 28 29.3202 28C30.4061 28 30.8002 27.0072 30.8002 26.5V22C30.8002 21.3545 30.3927 20.7817 29.7882 20.5773Z" fill="#4C94FF"/>
</svg>
