<svg width="143" height="160" viewBox="0 0 143 160" fill="none" xmlns="http://www.w3.org/2000/svg">
<path d="M25.0924 13.2431L25.0765 12.4854L25.8544 12.839L27.7595 12.3844L28.6486 11.3405L30.2679 11.2226L31.6809 10.4144L37.8725 11.1552L39.8253 11.0037L42.0479 9.52201L45.6835 9.3368L46.128 9.7409L47.1917 8.7475L47.287 7.38367L48.2713 8.42759L51.9704 9.10107L54.3359 10.2965L55.86 9.42099L56.7332 6.5418H59.2416L60.0354 7.83827L62.3533 6.87855L64.6553 10.7512L66.2112 10.0776L66.3223 7.68674L67.4495 7.34999L70.4342 8.17501L71.9742 7.77093L72.8473 8.86535L73.403 8.73065L74.4984 4.68968L76.1337 4.75702L76.3083 4.01619L79.3724 3.15747L80.1027 0.884431L80.8965 0.699219L82.1348 1.35588L82.0237 2.585L85.1671 4.90857L84.8655 6.77753L85.5799 6.69333L86.0085 8.19186L84.5797 10.0608L85.8339 10.6501L85.818 12.4854L87.8819 14.0681L87.3898 16.0549L84.8813 19.1699L86.2308 20.5168L86.7388 22.2343L88.3105 23.1098L87.1992 24.9956L87.2469 26.3763L88.6757 26.9151L93.3591 26.6793L94.2005 27.5212L95.7564 26.8309L99.2491 27.1171L100.773 25.8543L101.329 26.9824H102.488L102.726 23.6149L105.377 23.6991L106.076 24.8272L106.854 23.5476L108.187 24.2716L109.616 21.0051L110.632 21.6281L110.886 20.8199L114.855 21.7796L116.379 22.9246L115.093 24.2547L114.665 26.612L116.284 29.8279L116.887 33.0607L118.38 34.5256L119.221 34.3235L119.11 35.2159L117.157 36.1756L117.348 37.2027L119.666 39.1727L117.776 42.5739L114.903 44.0556L114.649 45.874L115.633 46.7327L115.871 49.2415L116.729 50.4874L118.523 50.4033L121.063 51.9523L120.634 53.2993L120.856 54.5621L121.444 54.6463L120.666 55.6229L122.222 57.0877L123.46 56.852L124.73 57.8454L125.27 56.229L126.016 55.8249L126.476 58.2158L127.223 58.6536L126.715 59.3776L125.587 59.1082L126.746 61.2634L126.064 66.0284L126.492 66.9881H127.143L127.207 67.9815L124.413 68.8571L124.73 71.0291L122.793 70.3556L121.555 74.0093L120.872 72.8475V73.7063L120.396 73.9083L122.253 77.5452L124.524 76.5349L124.571 78.1176L125.111 78.4712L122.761 82.2933L123.381 82.9668L122.777 83.9434L124.651 86.1154L125.429 85.644L127.064 86.5364L126.08 87.6645L126.651 88.2874L127.175 90.9141L128.509 91.8233L129.032 97.1103L134.351 98.9455L134.097 99.518L135.319 101.522L134.272 101.724L133.684 103.104L134.335 103.626L134.049 104.333L134.986 104.384L137.177 106.741L138.574 106.792L138.463 108.156L140.098 108.711L140.273 109.974L141.13 110.025L140.733 111.927L138.828 112.197L138.653 113.426L139.225 114.47L141.733 115.278L142.559 119.925L141.066 119.874L141.813 120.363L141.622 121.861L139.717 122.366L139.749 123.899L138.749 125.852L134.145 127.923L134.462 128.697L130.128 132.637L131.43 134.456L130.985 135.904L129.937 136.156L129.445 138.244L128.81 138.951L128.143 138.783L128.112 139.507L129.35 140.989L129.239 142.352L129.842 143.531L129.302 145.181L129.763 146.36L129.318 146.932L126.635 146.898L124.508 148.195L123.079 147.656L124.159 150.131L123.809 153.751L123.079 153.987L123.714 154.408L123.508 154.964L122.079 154.677L122.174 153.65L120.142 152.943L119.856 154.189L119.11 154.593L119.443 155.418L118.618 155.385L118.411 155.839L114.728 155.486L113.49 154.964L112.95 153.684L108.949 154.442L108.362 155.385L108.568 156.075L107.775 156.479L107.552 156.109L106.758 156.597L106.584 156.024L104.568 156.816L102.901 156.597L102.059 156.109L101.662 154.661L99.519 155.385L98.6776 154.071L100.487 153.869L100.726 153.263L101.742 153.095L101.249 151.613L100.472 152.185L99.2015 152.051L98.6458 152.758L97.4869 152.118L95.3754 152.253L96.1533 151.478L95.5817 150.923L94.8991 151.142L91.4857 147.707L90.8825 147.942L91.073 148.616L90.2792 149.458L90.5173 151.428L89.533 152.808L89.8823 153.718L89.0726 154.273L88.4058 151.512L87.5009 151.31L86.9452 151.866L84.8655 150.906L83.897 156.159L80.8012 157.22L80.6742 158.264L79.5788 157.27L80.0868 155.587L79.2136 153.532L77.8006 153.6L77.3879 152.893L75.5145 153.516L74.6255 152.556L71.1327 153.448L70.6247 151.748L68.9418 151.899L68.8307 151.327L66.8938 150.721L65.7825 149.374L65.1475 149.845L64.4807 149.256L62.3692 151.125L61.1309 151.327L61.9247 152.438L60.988 153.28L60.7022 154.795L60.4958 157.708L60.9086 158.584L59.0193 157.944L56.7015 153.785L57.7175 151.983L57.0666 149.576L54.5741 149.39L52.9388 152.623L51.3671 152.96L50.5416 152.354L50.6527 150.468L52.8277 148.953L53.812 147.016L53.8438 144.794L53.0024 143.211L51.3512 144.39L50.3034 143.716L45.1437 146.814L44.0959 145.972L44.0801 142.858L42.8576 142.049L41.7621 141.982L41.2859 143.379L39.9364 144.474L38.9204 144.339L38.3329 142.975L39.0632 139.086L38.2535 137.402L36.9676 136.661L31.3793 136.072L28.3469 133.429L27.0769 129.674L24.3621 128.428L22.4252 126.071L20.1391 125.161L16.8051 126.593L14.7095 126.424L11.9947 124.774L12.725 122.804L12.2804 122.198L8.89885 124.084L7.05723 123.006L5.99354 120.868L6.15229 118.056L4.56469 112.988L0.294067 110.361L1.19899 106.539L2.56432 104.603L1.69114 101.993L2.32619 100.848L1.21488 99.4843L1.16723 98.6256L2.23094 98.4909L2.10393 97.8848L3.247 96.0832L2.37382 94.652L2.7072 93.305V92.3284L2.65957 88.7084L1.34186 86.5532L1.46888 83.573L2.64371 82.3607L2.69133 80.9463L1.45301 79.2794L1.77052 78.3365L0.770328 77.663L3.86617 72.4098L7.15248 72.2582L6.10466 70.726L7.26363 69.2443L6.8191 67.7795L7.58114 67.0891L9.13698 67.8132L8.9941 66.2136L11.3755 67.8805L12.4868 66.7187L12.2804 64.8161L14.2808 64.4457L14.7253 63.8732L17.8053 66.2978L18.742 65.6243L20.0438 66.2304L21.044 65.1528L20.8852 64.5298L22.2029 63.5533L22.1236 61.4318L22.9015 63.065L24.1081 62.0379L24.3462 62.7788L25.0765 62.6609L26.2196 63.5196L27.7595 63.0482L28.5533 62.1894L28.2199 60.2026L27.8707 59.7312L26.8864 59.849L26.3148 57.8622L27.2674 57.0035L25.9338 55.3703L26.6482 54.2085L26.7117 52.6258L26.1084 51.464L26.4736 49.9992L25.5686 48.0629L24.0604 47.4567L23.981 46.4801L24.8383 46.3118L24.8225 45.5877L23.981 45.4362L23.8858 44.729L25.0447 44.2239L25.9497 41.109L24.7113 41.6141L23.5524 40.2335L22.8856 40.5197L21.4568 39.8125L20.5836 40.2166L20.2502 39.139L20.9011 38.1793L21.3298 36.9165L22.06 36.967L22.3934 36.0914L19.9009 35.3506L19.9168 32.4209L20.8217 31.8821L21.8378 33.2291L22.7903 32.303L22.9491 30.1142L20.9963 28.161L21.7743 26.5446L22.6951 26.09L23.1396 24.5578L23.7746 24.9788L23.8858 24.0022L23.8382 22.3016L21.4726 20.4495L21.298 17.6377L23.8223 17.2672L23.5683 16.5769L25.2035 14.7921L25.0924 13.2431Z" fill="#75B663" stroke="white" stroke-width="0.5"/>
</svg>
