<svg width="138" height="189" viewBox="0 0 138 189" fill="none" xmlns="http://www.w3.org/2000/svg">
<path d="M57.9027 6.03533L59.2522 5.83329L62.602 10.312L63.1576 13.528L65.1739 12.4167L69.3334 8.57779L71.8894 8.79668L72.3022 9.50385L73.9375 9.73957L73.9533 10.6656L79.4147 10.834L77.9541 11.5748L78.1287 11.9789L79.1448 11.558L78.5256 12.2315L80.7324 21.8793L81.7167 22.334L83.6218 20.1619L83.6059 22.9569L84.4474 24.8091L85.3999 23.7483L85.5746 21.6773L86.0032 21.4753L85.7174 19.4042L84.9236 18.293L88.2576 11.6254L89.8452 11.2718L92.7664 9.04923L95.9892 8.94821L96.3702 10.4804L97.6244 10.3626L99.2279 9.04923L103.451 3.32452L106.626 3.17298L107.118 3.69493L106.436 5.44603L107.531 5.95115L107.166 6.92772L108.722 8.27471L109.023 10.4804L111.278 11.0529L111.659 14.4035L110.96 17.5016L112.072 19.3874V20.6165L114.024 21.2732L115.104 25.9708L114.929 28.1765L117.009 27.6041L117.025 28.4459L118.914 28.1429L119.152 33.1604L116.834 37.7234L115.453 37.9422L115.485 37.3866L112.135 38.5316L113.596 46.2094L114.85 50.9744L115.31 51.1091L115.596 48.3646L116.485 48.1289L119.946 50.6377L122.407 54.4598L125.058 57.019L122.597 61.0432L122.74 63.855L123.28 64.4612L121.407 63.6866L119.914 63.7877L119.835 67.0541L121.137 67.5256L122.454 68.9399L123.598 71.9538L125.28 73.4018L125.741 74.4458L124.55 77.2408L126.058 78.3184L126.789 77.9648L127.186 79.3286L124.963 78.874L124.264 79.2781L124.423 80.5578L125.582 81.3154L124.915 81.8374L125.138 82.7803L123.058 83.0665L124.979 83.5548L126.296 82.6961L128.471 83.0665L128.535 84.9186L129.869 86.8381L128.741 89.6163L126.328 91.4684L126.281 92.6807L125.011 93.4889L124.106 93.0174L123.645 93.3373L123.344 93.7415L123.836 94.4991L122.899 95.5262L123.074 96.0313L122.2 95.863L122.391 96.3681L121.692 96.6712L124.248 99.0789L124.852 100.763L124.661 102.901L123.947 104.113L122.486 103.979L122.883 104.955L122.502 106.05L124.915 107.329L125.138 109.872L123.709 111L122.216 110.006L121.851 111.589L124.36 111.909L124.566 112.818L122.963 114.957L121.518 114.856L122.359 116.253L123.439 115.984L123.979 115.091L127.678 114.35L128.583 115.142L129.408 116.607L129.472 118.543L130.551 118.829L130.964 119.604L131.98 119.065L130.805 121.675L131.345 122.668L133.822 123.409L134.981 123.106L134.076 125.581L134.711 127.08L133.472 127.585L135.425 131.508L134.663 131.861L134.044 133.848L132.425 135.784L134.981 138.361L133.203 140.667L133.107 141.425L134.107 141.509L132.631 142.62L135.155 145.752L135.028 148.261L134.107 149.036L135.235 151.426L134.838 152.117L136.362 153.952L136.092 154.491L137.267 156.73L136.791 157.858L133.869 159.559L135.139 160.3L132.806 162.606L133.52 162.977L132.79 163.819L132.202 163.448L131.091 164.997L130.17 164.644L129.869 165.637L127.201 166.361L126.805 167.776L125.042 166.412L124.201 167.169L124.471 167.994L123.693 169.24L123.026 168.23L121.931 169.24L121.232 169.055L122.55 172.844L121.296 175.858L121.772 177.221L124.296 177.255L124.09 180.993L125.407 181.582L124.852 182.778L120.883 181.818L120.629 182.626L119.613 182.003L118.184 185.27L116.85 184.546L116.072 185.825L115.374 184.697L112.722 184.613L112.484 187.98H111.325L110.77 186.852L109.246 188.115L105.753 187.829L104.197 188.519L103.356 187.677L98.6723 187.913L97.2434 187.374L97.1958 185.994L98.3071 184.108L96.7354 183.232L96.2273 181.515L94.8779 180.168L97.3863 177.053L97.8785 175.066L95.8146 173.483L95.8304 171.648L94.5762 171.059L96.0051 169.19L95.5764 167.691L94.862 167.776L95.1637 165.907L92.0202 163.583L92.1313 162.354L90.893 161.697L90.0992 161.882L89.3689 164.156L86.3048 165.014L86.1302 165.755L84.495 165.688L83.3995 169.729L82.8439 169.863L81.9707 168.769L80.4307 169.173L77.446 168.348L76.3189 168.685L76.2077 171.076L74.6519 171.749L72.3499 167.877L70.032 168.836L69.2382 167.54H66.7297L65.8566 170.419L64.3325 171.295L61.9669 170.099L58.2679 169.426L57.2835 168.382L57.1883 169.746L56.1246 170.739L55.6801 170.335L52.0444 170.52L49.8218 172.002L47.8691 172.153L41.6774 171.412L40.2645 172.221L38.6451 172.339L37.7561 173.382L35.8509 173.837L35.073 173.483L35.0889 174.241L34.0887 174.46L33.7553 175.824L32.6916 176.009L29.6276 172.625L28.04 172.288L29.4053 169.459L26.1983 168.87L25.6586 169.897L23.7058 166.176L23.9122 165.132L23.166 162.926L23.9122 161.495L22.3563 161.714L20.9593 159.946L20.3877 160.62L19.6733 160.451L19.6416 157.909L20.1655 157.808L20.2607 156.781L21.118 156.461L19.7844 152.639L19.7368 150.921L20.3242 150.837L20.5465 150.147L21.2609 150.197L23.1025 151.477L24.7536 148.615L26.1666 149.608L26.8651 148.648L26.1825 145.062L23.3883 144.22L24.1186 142.738L23.8963 141.829L24.8171 141.711L23.9439 140.987L24.2932 139.068L26.8969 137.839L26.0396 136.727L25.9761 134.757L24.5155 135.246L24.833 136.559L23.8328 136.711L22.9755 132.737L22.2135 132.905L22.404 129.05L19.4828 130.077L18.7208 131.777L18.1968 131.811L16.6569 130.632L16.133 129.151L14.1485 128.763L14.1326 127.5L13.053 127.399L13.0213 127.854L11.2908 126.204L12.1481 126.305L11.9258 125.766L12.8307 125.413L10.9415 123.358L10.0048 122.584L7.32178 122.533L7.44879 119.216L3.76557 116.859L4.21009 114.401L6.00407 111.151L6.40096 108.104L4.68638 108.238L4.25772 106.235L1.55881 104.568L0.780873 101.891L2.68599 101.47L1.89219 99.7356L2.6066 98.1023L0.495117 96.4354L1.60643 95.1053L1.70168 93.5899L1.14601 93.0343L1.6223 92.2934L3.4004 91.8557L5.08328 87.6631L4.46412 85.4911L4.82926 83.9421L3.33691 83.2686L3.36867 81.2649L2.87652 80.743L3.32104 78.1163L2.82887 77.0724L3.7973 75.456L3.49568 74.3447L3.92431 73.2671L3.49568 72.8967L4.01957 71.8865L1.95571 69.9502L2.14621 68.721L3.06702 68.3338L3.03526 67.5088L0.923752 62.5417L2.36847 61.8177L2.22559 59.8141L5.09915 59.5783L5.36903 58.7701L7.89331 58.6859L7.30591 57.3053L7.62342 55.4363L9.90957 53.7863L9.84608 49.7284L10.624 49.3075L10.3859 48.4656L12.6402 44.2226L15.7202 41.0572L15.5932 40.1479L14.3231 39.4239L15.1169 38.5652L13.9103 34.4401L16.7997 33.8002L18.2127 31.544L18.181 29.17L16.7363 28.4459L17.4507 21.5763L18.9589 21.5258L18.7208 23.3274L20.9593 24.8932L21.6102 26.156L23.2772 26.1392L22.5151 23.6304H21.4991L21.4197 19.1854L23.8011 18.7981L25.214 16.9797L26.2777 17.3501L25.9443 15.6495L29.9133 19.2359L31.1358 19.3874L33.2632 14.252L35.1365 13.9658L35.9145 13.2754L34.6602 10.1605L35.4064 7.29814L34.3745 6.47311L36.0732 5.2103L39.3595 6.48995L39.9152 7.56754L39.7406 10.0258L41.0106 9.75641L41.6774 8.52727L42.7888 8.54411L40.8519 11.7937L46.0433 11.1034L47.7738 9.87427L49.409 10.0258L50.9173 7.44968L52.2985 7.21396L53.1399 5.73226L53.3622 3.72861L57.9186 0.445312L58.4584 1.00095L57.9027 6.03533Z" fill="#75B663" stroke="white" stroke-width="0.5"/>
</svg>
