<svg width="215" height="150" viewBox="0 0 215 150" fill="none" xmlns="http://www.w3.org/2000/svg">
<path d="M50.721 25.8204L52.7055 27.8072L55.6108 29.07L57.4842 29.0363L58.3891 30.9389L60.1513 32.3533L62.9296 32.7069L63.2789 33.3972L62.9772 35.283L63.5171 36.2259L64.8189 36.7984L65.8985 36.4785L67.2003 37.8928L68.8673 38.3811L69.9786 39.5429L71.852 39.5765L72.3759 40.0143L72.2965 41.3108L73.4396 39.324L73.1697 37.5224L74.6779 35.9396L73.8682 35.2998L72.4711 35.8891L72.2806 32.8416L75.0748 32.589L73.8365 31.8145L73.9158 30.9221L75.1542 30.7874L75.1859 29.8782L74.5191 29.7772L74.5667 28.4133L73.122 27.3021L72.7092 26.2413L73.3284 22.335L75.4558 18.8328L74.0428 17.3848L75.4558 16.0378L76.0432 14.4888L78.8374 12.6198L78.0912 9.15134L81.3458 11.6433L81.9808 11.0708L83.1398 12.0137L84.1559 11.2055L86.061 12.5525L87.2199 11.9127L86.823 10.2458L87.3945 8.98295L88.2995 9.28601L88.2201 7.65281L89.2679 7.73697L90.1887 6.62572L91.427 6.27213L92.078 7.13083L92.8083 6.9793L93.6338 5.767L94.4753 6.00272L96.2692 4.79043L97.5711 5.02615L97.6028 2.45003L98.6824 1.87756L100.143 2.5679L100.873 1.92807L100.619 1.28824L102.635 0.968352L102.874 1.52399L104.779 2.14697L104.287 2.95516L103.128 2.83731L102.969 3.46028L104.715 4.47054L105.731 3.7802L106.382 1.54082L107.541 0.648438L110.732 3.71283L110.748 4.65572L111.177 4.43686L112.494 3.84754L113.05 2.26481L114.447 3.37609L114.749 4.92513L115.193 3.79703L116.781 3.02252L117.845 4.36949L118.972 3.39292L120.56 3.52762L121.449 4.21796L120.623 4.50419L120.56 5.043L122.48 6.49102L120.321 6.94561L120.385 7.88853L122.433 8.41049L122.846 7.41709L123.957 7.60227L124.91 9.30287L126.719 9.85851L126.878 10.734L126.338 11.3739L128.72 12.603L128.609 13.2765L131.069 15.3475L131.689 14.9602V16.0547L134.705 17.8058L135.816 19.0854L136.372 19.0012L136.197 19.8936L137.277 19.4727L137.452 18.6645L137.769 19.3716L140.42 19.8263L142.119 18.7992L143.881 18.816L144.008 20.2977L146.834 20.0957L148.247 21.8299L149.041 20.5502L149.755 20.5334L150.009 21.409L151.121 21.0554L152.454 21.4258L152.867 23.2779L153.407 23.6315L154.487 21.7962L155.677 21.712L156.138 20.9375L157.376 20.5166L157.678 19.54L159.313 19.961L160.646 17.4522L163.187 20.0451L162.599 20.8533L166.219 24.6081L164.631 27.0832L166.06 28.346L164.996 30.0297L167.933 31.6124L167.378 33.9023H170.521L172.442 35.8891L173.284 35.6366L173.887 36.1249L173.379 37.455L171.41 37.6402L172.633 39.1219L171.633 41.2098L179.158 46.8503L177.538 50.1673L181.047 52.9454L178.523 56.8181L179.904 57.8956L181.38 55.8752L182.936 57.0875L182.984 57.6768L185.064 55.0333L184.397 54.545L186.604 51.2112L188.001 50.7061L187.143 50.5377L187.699 49.679L186.842 49.3422L187.064 48.955L187.842 49.0897L189.874 46.5809L194.272 50.5882L195.018 50.6387L195.716 51.851L199.241 51.2449L199.114 50.6556L200.225 50.4535L200.194 49.8474L203.718 49.679L204.083 52.2214L205.845 51.8678L207.338 52.2383L207.592 54.6124L210.132 54.6292L210.767 56.1782L212.37 56.7002L212.64 58.6365L209.687 59.1921L209.91 61.5999L208.64 61.9703L208.894 65.4388L209.497 65.4893L209.735 67.7287L208.957 67.493L208.195 67.9981L208.719 68.3853L208.068 68.6884L208.401 71.5844L207.671 72.2243L207.449 73.6723L207.925 76.6357L210.703 76.2989L210.862 77.1913L212.894 76.9051L214.291 86.8223L212.894 86.7887L212.593 87.3611L211.942 87.0244L211.545 88.2367L210.83 87.6979L212.053 96.5207L210.989 98.7937L210.053 98.7769L209.783 100.461L207.512 99.804L207.115 98.7937L205.528 99.282L204.829 98.3391L204.099 98.8442L203.766 97.2952L202.496 96.0324L202.162 96.5712L200.257 95.6451L199.527 95.8303L199.035 94.8369L198.257 95.4599H198.828L197.352 96.3018L196.272 95.5609L196.367 96.0492L195.081 96.4702L195.367 98.8442L194.685 99.8545L195.605 101.555L194.494 102.296L195.748 103.34L194.97 103.576L195.399 106.791L197.717 106.505L198.352 109.991L195.716 109.957V110.731L193.113 111.27L193.494 113.577L194.986 113.476L195.367 116.103L192.097 116.978L191.986 117.685L188.668 118.123L184.302 117.652L184.143 116.928L181.539 116.709L181.587 118.359L178.824 118.78L178.205 117.483L174.49 117.466L173.919 116.928L174.332 115.177L172.204 116.153L167.949 116.17L167.759 114.638H170.156L170.839 111.422L169.807 109.688L170.378 109.166L169.791 108.223L168.489 109.132L167.886 106.169L166.727 106.589L166.648 106.152L167.759 105.529L167.346 103.188L166.171 102.868L165.79 101.808L167.489 101.117L166.806 98.1707L162.679 99.181L163.298 98.1539L162.917 97.7835L162.488 98.1371L162.425 97.0595L163.155 96.5712L163.091 95.9145L162.155 95.2074L154.042 97.4131L153.597 94.7359L150.168 95.0221L148.104 91.3516L138.325 96.6722L138.118 95.1232L128.355 92.6986L125.926 90.8633L123.528 91.7052L122.084 90.9643L119.448 92.0924L115.686 91.9746L113.415 92.867L112.177 94.8369L109.716 95.5104L109.43 94.9548L105.7 95.4599L105.715 92.0587L103.858 92.3282L103.747 91.8399L102.556 91.8904L103.62 98.5075L101.715 98.9452L102.08 101.942L102.683 101.993L103.159 104.636L105.128 104.485L105.7 108.745L103.794 109.216L103.461 108.256L102.127 108.795L102.254 109.873L99.5873 110.26L100.397 114.554L102.731 113.409L103.271 115.698L104.763 115.631L104.969 117.45L103.747 118.392L104.445 123.41L107.875 122.77L108.208 124.993L107.748 125.178L107.859 127.417L106.525 127.586L106.922 130.414L105.16 130.953L105.684 134.001L106.525 133.95L107.176 136.762L106.747 137.553L106.414 137.082L106.493 137.958L105.89 138.227L107.208 138.9L106.589 139.709L107.843 139.49L108.256 141.106L107.811 142.537L105.747 143.581L103.223 143.699L95.7294 141.847L92.0462 140.315L88.6488 140.045L80.3932 142.958L73.5348 143.733L68.518 146.09L63.9616 147.285L56.357 148.902L54.8805 147.589L52.7055 144.07L37.2582 146.696L36.7977 144.288L34.3846 145.147L34.4163 140.668L35.226 140.365L35.4165 139.271L34.5751 139.069L33.7496 136.964L28.32 138.126L28.8121 141.729L20.2867 143.447L20.3979 144.49L21.5409 146.006L19.5247 146.915L19.4294 145.248L17.8894 144.322L18.0323 141.931L17.6354 141.611L15.7462 142.857L14.2539 142.739L14.4444 141.51L15.4128 140.449L15.2223 138.985L11.793 139.827L7.64944 138.783L7.7288 137.166L0.616333 137.57L2.52147 135.499L1.23552 126.744L6.5381 125.296L6.31586 123.393L5.76019 123.292L5.42676 121.676L6.3317 121.238L5.82366 117.45L7.07788 117.062L6.45874 113.257L7.26838 112.903L6.98262 110.024L3.66455 110.698L2.966 110.327L2.31508 108.863L3.06125 108.543L2.3627 105.209L2.91837 104.131L3.82332 104.502L3.93446 102.447L4.66474 101.808L4.93461 100.09L8.60196 99.6356L8.41145 97.4804L8.74488 97.8677L10.4754 97.6151L10.9516 99.5009L10.3642 96.5543L14.873 95.241L14.746 94.2139L15.4128 94.1129L15.3334 93.5068L12.6821 94.2308L12.4916 93.069L14.9524 92.4292L14.2062 88.5397L15.7938 88.4219L15.9208 90.2403L17.3496 90.1056L17.5719 94.2981L18.3498 94.4833L19.0325 92.9848L19.731 93.0016L18.4451 90.4424L19.6358 90.2908L19.6993 89.6678L25.8909 88.6408L25.7798 87.1927L28.5105 86.654L28.5423 86.132L29.4789 85.7447L29.6694 83.5727L32.0508 82.8487L31.257 79.6328L30.3204 79.4812L30.4315 75.0698L28.2406 75.1877L28.2247 73.5208L27.4309 73.0156L28.0183 71.9044L27.8913 70.1028L29.463 69.6313L28.1136 56.5992L28.701 56.3298L28.6533 55.5889L30.1299 55.5384L30.0822 54.6292L34.0671 54.0735L34.3687 55.3364L36.1468 54.747L35.5594 52.0699L37.6392 52.0194L38.1155 53.1307L42.5766 50.4703L43.6562 49.679L43.3386 47.1534L45.7359 46.6651L45.9741 44.3752L43.037 44.8972L42.8465 43.8701L41.9574 43.9879L39.4173 41.3613L37.671 41.5297L35.9563 40.873L35.3848 38.8525L34.5592 39.2061L34.1941 38.6505L34.0353 34.9799L35.099 34.761L35.9563 35.6366L37.9725 35.3167L39.3855 33.2625L39.8618 33.8686L41.3065 33.8013L41.6717 35.5019L42.2115 35.6198L43.6879 34.8789L44.2436 35.384L45.4343 35.1651L45.3708 34.66L46.244 34.4411L46.5933 36.8994L48.3714 37.1183L48.3555 34.559L49.1652 31.3262L49.7367 31.0231L50.721 25.8204Z" fill="#75B663" stroke="white" stroke-width="0.5"/>
</svg>
