<svg width="115" height="159" viewBox="0 0 115 159" fill="none" xmlns="http://www.w3.org/2000/svg">
<path d="M0.870866 72.9235L0.553345 71.7112L2.47434 68.108L1.17251 64.6226L2.18858 62.6526L2.26796 60.9689L4.07782 60.0765L3.85555 59.4367L2.12507 58.78L1.56941 57.1973L2.95062 53.5099L1.8393 51.6915L4.71286 48.3577L4.98275 47.1959L5.53841 46.7244L6.33221 47.2632L7.38003 46.4214L8.50722 41.1176L9.58679 40.4946L10.2377 40.9492L12.1428 38.6593L12.9684 39.2991L13.4129 39.0466L14.3337 40.1747L16.477 39.5012L19.8586 40.6461L20.3031 39.7369L23.51 37.3292L25.5739 38.2047L26.0978 39.2991L28.3046 36.6051L32.5752 37.2786L33.1468 38.2384L33.9564 38.3731L34.3533 36.9419L35.6711 37.4134L36.2108 36.521L37.4968 36.8914L40.0846 34.7362L44.2758 33.2882L45.5618 33.0693L47.3558 34.7194L48.3242 34.2816L48.2925 32.6652L49.0069 31.2677L48.6417 30.6615L49.2609 29.3651L45.7682 29.6176L43.7678 29.1293L43.2439 28.1864L43.9583 27.4793L44.5934 25.0715L43.1486 24.3812L41.3229 24.7348L41.18 23.1352L41.2435 21.8893L43.3868 22.4617L44.3711 21.4683L45.3078 22.3102L46.5302 20.1887L46.1492 18.5723L48.4195 16.4171L45.9111 15.1711L44.9426 11.9552L45.5777 10.9449L47.1018 10.6587L47.4352 8.30145L46.7049 6.39884L47.2764 5.4896L49.0704 5.33807L48.5306 2.69458L50.1658 1.60016L50.2135 1.07821L50.8644 1.31393L50.6421 0.724609L52.0551 1.04452L53.1664 2.17263L52.3885 2.71144L52.96 3.72167L54.2301 3.85637L55.8653 2.79563L57.1354 4.51303L59.3898 5.89371L60.3265 5.23705L62.692 6.3483L63.9145 6.14626L66.1053 11.3659L66.9309 15.7604L67.7882 16.215L68.8836 15.6426L69.5504 16.1477L70.0902 18.1345L71.3127 19.0269L69.5822 21.7546L69.7251 24.4485L70.3918 25.1894L70.5665 26.6542L75.1229 29.062L71.2492 33.8943L71.2809 35.3423L73.6464 38.2384L76.7581 38.5751L77.9488 39.2486L77.4567 42.2794L78.2981 42.5151L78.3775 43.3401L74.3767 42.3299L73.7417 44.7713L77.1074 48.425L77.0598 50.0414L79.8222 48.5092L83.6959 51.0853L85.0136 49.7215L84.712 52.4828L86.6965 54.1834L85.1724 55.8671L86.3314 60.7332L87.2998 61.0868L87.9031 60.6321L87.7443 58.4096L89.3319 56.8774L88.9985 55.7324L90.0622 56.1366L91.3958 55.3115L91.11 59.5714L90.0146 62.5516H90.9671L92.015 60.8005L93.8566 61.272L94.6345 62.821L95.8887 62.6358L96.3174 63.1409L95.7141 64.3195L92.8881 64.3532L91.8086 65.1277L91.5704 66.4916L92.4595 68.0069L93.9201 68.1585L94.6186 66.2222L95.7299 64.9762L96.4602 65.0941L97.254 66.2222L97.8573 66.0538L97.3652 61.6255L98.6194 61.575L101.906 62.9389L102.382 62.299L101.795 60.7668L102.191 60.4132L103.16 60.851L104.033 61.8781L102.969 63.2251L103.255 63.9491L105.97 66.138L108.081 66.4242L111.003 69.5897L113.209 71.0545L112.987 71.8627L111.558 73.0245L111.749 73.7822L113.844 74.6577L113.781 75.4996L112.146 76.9981L112.606 77.6379L110.177 81.3253L110.574 81.8978L110.495 84.8444L111.273 86.4439L111.193 96.9505L112.352 101.16L111.796 102.591H108.177L106.891 101.328L104.001 100.823L102.287 101.53L100.239 101.497L96.7778 103.046L92.8564 107.305L88.6334 113.754L86.5378 114.175L84.5532 116.027L85.1565 116.465L85.0136 117.374L86.2837 118.485L86.1567 119.614L85.6328 119.9L84.204 119.294L83.3625 119.698L83.7594 121.264L82.3941 121.617L82.3465 123.84L80.8859 124.227L80.6795 125.675L78.8855 124.917L78.0123 125.305L77.7266 125.911L78.4727 127.763L74.1068 132.831L74.4879 134.363L73.8211 135.542L74.599 138.236L74.3291 138.909L74.8371 139.179L74.3926 139.751L76.4247 142.125L76.5994 143.405L75.8214 143.742L75.9961 144.583L77.9488 146.486L77.8059 147.109L78.6156 147.429L77.8695 149.753L75.9326 152.649L74.5831 158.289L72.5192 158.559L72.1382 156.1L69.9315 153.794L69.9632 152.716L69.1694 151.655L69.5187 150.46L67.1373 150.039L66.8515 149.045L66.2165 148.827L65.4544 149.601L64.5654 148.473L62.946 148.675L62.7714 147.614L61.1203 146.671L60.8186 145.661L61.2155 144.028L60.0407 142.024L59.2469 141.62L58.7548 139.465L57.7546 139.33L57.2465 139.802L56.3575 138.135L55.4049 137.899L56.04 133.454L58.723 130.996L57.2465 127.712L55.135 126.298L54.7858 125.052L53.5792 124.564L52.0868 121.651L53.0235 120.203L52.5472 119.294L53.2775 118.587L53.1029 118.048L54.4206 116.549L53.3728 115.253L51.166 114.276L51.5471 111.986L51.1343 111.128L48.8323 109.259L47.3717 106.918L44.7045 105.437L43.9266 104.426L44.1965 103.029L43.2757 102.17L40.4497 101.547L40.545 102.726L38.8304 105.369L38.1636 104.628L34.7185 103.871L34.7502 103.264L33.1309 102.103L33.2738 100.975L32.607 100.267L32.8292 98.1796L32.0037 97.2198L31.8608 95.6035L32.7181 94.2733L31.9084 93.2967L31.8291 91.2257L32.3371 90.3165L31.6385 89.542L29.9874 90.266L29.2571 91.4278L28.6697 91.0237L27.0186 92.3202L24.9706 91.9161L23.8434 94.6437L24.0022 95.4351L23.4307 95.9234L20.827 95.2162L20.0967 93.7682L21.0175 88.6496L19.9856 87.1679L16.985 87.8077L14.0956 84.676L13.7781 80.7697L9.33278 80.5171L5.71304 76.7456L5.63366 75.348L4.951 74.7082L3.64917 74.6745L3.18876 73.5633L0.870866 72.9235Z" fill="#75B663" stroke="white" stroke-width="0.5"/>
</svg>
