<svg width="149" height="207" viewBox="0 0 149 207" fill="none" xmlns="http://www.w3.org/2000/svg">
<path d="M48.7047 1.75869L49.6414 4.30114L48.9111 5.58079L50.6575 6.80992L52.3245 7.36555L52.6261 6.70889L53.1501 7.04564L54.5154 9.18399L54.2455 12.3326L55.2139 12.5515L55.3886 13.5617L57.4207 14.0163L57.9922 16.2557L60.2625 16.5925L60.8022 18.3099L60.5959 19.7916L63.6441 22.132L63.3583 24.1525L62.2152 25.3647L62.7233 26.7117L60.7705 28.6144L61.7231 28.6986L62.7391 31.342L62.3898 32.6722L62.7074 34.5075L64.8507 35.2483L64.4855 36.8479L65.1523 38.1443L67.5654 38.0602L68.5021 40.6531L69.5658 41.7476L69.2959 42.5726L71.3757 43.4481L71.3598 45.435L70.82 46.1758L71.6615 46.361L72.4553 45.5191H73.5189L75.1383 47.2534L76.7418 47.9437L77.2974 49.257L78.2341 49.5096L79.7741 51.1597L79.3772 54.5777L80.9013 56.6992L81.1235 58.7028L80.1234 60.656L77.0593 61.5989L74.0429 60.8917L73.0585 62.2892L70.1056 63.0132L68.8673 62.5249L68.3275 63.2826L66.089 64.0403L64.3267 63.7877L61.8977 65.7746L62.3105 66.3133L63.0884 66.1113L63.4377 67.2899L64.4538 67.3741L64.4696 68.0813L66.3747 67.8624L67.232 72.1223L68.8673 71.8865L69.0895 74.1091L70.1373 73.2335L71.201 75.5234L71.328 77.9817L73.2967 78.1332L74.027 79.3287L73.8841 80.019L72.9156 80.0358L73.0744 82.7972L71.8837 83.3865L70.7089 84.9692L71.0899 86.5014L70.6295 87.3096L69.4547 87.5453L69.8198 88.4377L69.2324 88.6734L69.6611 90.3235L70.8835 90.2225L71.9472 91.4684L73.0109 91.3001L72.8363 92.3777L73.7094 92.243L75.3447 93.169L75.5828 94.2466L74.2175 96.2503L72.5823 96.1156L72.9315 97.3279L72.5981 98.3549L72.1854 98.2708L71.9313 99.3484L70.5025 99.9377L71.0899 101.335L70.0262 101.79L69.8675 102.547L74.1381 105.006L75.297 104.871L78.1706 101.857L80.8854 103.288L81.4887 102.952L83.6478 104.433L84.9814 104.618L85.4894 103.81L86.5214 103.827L88.6329 105.393L89.8394 103.575L93.0305 104.214L93.4751 108.777L96.047 110.916L96.7455 110.158L99.111 110.747L99.8096 109.838L100.905 111L102.096 111.185L102.27 110.023L103.715 108.575L104.493 109.165L105.684 108.76L106.35 107.851L107.779 108.036L108.065 106.892L110.018 105.359L111.574 105.528L113.098 106.656L113.336 108.003L114.495 106.959L115.035 105.595L117.781 105.679L119.194 106.336L118.162 109.08L118.48 111.101L117.892 111.774L118.639 112.717L118.829 114.468L120.417 115.361L119.829 116.674L120.591 117.718L120.433 118.543L119.48 118.358L119.099 119.065L119.924 118.998L121.258 121.793L122.56 122.365L124.56 120.648L125.687 121.338L125.814 120.614L127.481 119.957L127.529 119.486L129.783 120.85L131.276 120.631L131.847 121.675L132.863 122.096L133.054 124.184L131.768 124.79L131.085 125.85L128.307 125.143L130.053 128.645L128.783 131.592L129.085 132.383L130.911 132.636L130.958 133.242L132.117 133.41L132.641 134.219L132.8 135.313L131.609 135.936L132.498 137.3L131.704 138.192L132.863 138.933L133.641 140.448L133.419 144.523L135.419 146.173L136.801 146.14L137.388 146.661L136.499 149.507L136.737 150.197L135.578 151.174L135.737 151.864L136.34 151.999L135.88 153.329L136.356 154.558L137.721 155.737L137.309 157.673L135.975 156.73L132.53 158.01L132.34 159.104L133.991 162.404L132.276 164.492L134.26 166.109L134.642 168.853L136.785 172.574L141.357 175.622L141.77 174.746L142.595 175.975L142.548 181.633L144.104 182.593L143.627 183.367L144.85 184.63L146.803 184.664L146.517 185.27L147.771 185.606L147.485 187.021L146.691 187.273L146.469 188.25H145.517L144.755 187.661L144.977 187.223L143.072 186.735L141.96 187.627L138.976 187.846L139.912 189.159L139.357 190.136L138.293 189.395L137.785 189.9L135.848 188.014L134.864 187.913L133.991 186.398L132.99 187.593L131.562 187.627L131.657 189.732L128.926 187.627L127.148 190.254L128.894 191.516L127.466 192.543L125.513 192.442L125.052 195.069L124.02 195.035L123.782 195.759L121.766 194.749L121.48 195.557L119.258 194.379L117.241 196.669L114.971 197.713L115.051 198.992L113.526 201.215L112.828 201.046L112.764 199.986L111.653 199.649L111.463 200.221L111.113 199.699L109.113 199.497L109.7 201.77L108.049 202.376L103.048 201.316L102.429 201.905L100.635 201.77L100.445 202.259L97.3647 203.067L97.7457 202.04L96.9043 201.652L95.142 202.797L95.1262 206.098L93.999 206.013L94.2053 205.458L93.7449 205.155L92.967 206.131L92.4908 205.475L91.3794 206.047L89.1409 204.666L88.2677 205.256L86.823 204.111L85.9657 202.174L86.3468 200.811L85.553 199.901L87.5533 197.544L88.2042 195.81L87.0611 194.109L86.0133 193.857L85.8863 194.53L85.2989 194.076L84.902 190.742L81.5998 190.27L79.5836 188.401L78.9168 187.677L79.4724 185.926L77.7896 184.074L78.25 183.3L71.3916 177.289L70.8042 169.779L69.2642 168.399L68.3116 169.426L66.7557 169.156L63.8981 170.621L63.8028 172.221L62.7867 173.13L62.0565 172.389L63.009 171.008L60.8499 170.099L58.8336 171.564L59.04 170.52L54.9917 167.27L52.9437 170.065L51.6418 168.55H50.6575L47.3077 170.065L47.5458 170.79L48.9588 170.975L49.4033 171.615L49.1016 172.288L46.2916 173.467L44.4817 175.083L43.4022 175.167L42.1797 174.191L34.4481 171.901L32.67 172.372L31.8762 173.214L30.6061 171.716L29.6694 173.467L29.3678 172.423L28.574 172.153L27.0658 172.776L27.0181 173.585L26.272 172.978L25.8433 171.53L23.9541 171.615L23.7953 169.611L20.8741 169.544L20.6836 168.55L19.8263 168.281L18.6198 166.698L16.6829 167.961L16.4606 170.554L15.5716 171.059L13.984 170.621L13.0155 169.308L10.0467 170.924L9.25289 169.897L7.39543 169.628L6.41113 167.792L9.01476 164.374L9.18943 163.297L10.3166 162.977L9.3323 162.32L10.2849 159.189L10.0309 158.38L11.7296 157.437L11.8883 154.053L11.158 152.538L15.2064 151.544L16.5559 150.585L16.1907 150.113L15.2382 150.231L14.8572 149.305H13.8728L11.9836 145.382L12.7615 144.675L12.0947 142.233L13.6347 140.28L12.825 139.91L13.4124 138.546L12.9203 136.778L13.5712 136.104L14.8889 136.121L14.3173 133.427L14.5396 130.077L12.444 130.195L11.7931 130.733L11.2374 130.413L10.0626 125.951L7.9511 127.265L7.93521 128.123L6.03007 127.265L6.90328 124.301L8.25275 123.241L7.01442 122.129L7.5542 120.378L5.85546 120.025L5.7761 119.183L1.6007 118.375L1.37842 118.812L0.759277 118.223L3.2994 113.593L1.69596 111.943L2.9025 109.973L2.45797 109.535L3.22004 108.626L5.20454 108.542L5.91897 108.02L5.47445 105.965L7.44306 103.625L6.93501 102.547L7.71297 100.375L5.95071 99.9545L6.93501 99.7188L6.23647 99.1126L7.3478 98.7422L7.99873 97.2437L7.23666 95.1895L5.74431 95.2232L5.85546 93.1522L4.79174 90.7108L6.31588 89.5321L6.80803 89.9699L5.79194 91.1822L7.06205 91.9062L7.03027 92.9333L8.39563 93.2532L9.71331 93.0343L9.60217 91.8389L8.80837 91.7715L8.44325 90.9802L9.71331 91.098L10.0309 91.9567L10.7611 92.0072L10.9993 90.4919L10.0467 89.9362L10.904 88.7239L9.88797 87.7137L10.269 85.0197L10.9834 84.06L10.7452 82.6288L11.1263 81.5344L11.7613 81.8374L14.0634 80.5241L13.6823 77.6618L12.825 77.1566L12.1265 75.355L12.317 74.6479L14.8095 74.7321L15.651 73.7723L13.9681 73.4524L12.0471 71.112L11.9042 68.1991L10.6183 67.795L11.4279 65.9934L10.9993 60.656L9.30057 58.6186L8.63376 56.1604L8.01457 55.9583L8.4591 55.2512L9.17353 55.3354L10.3166 52.6919L11.5549 52.1026L11.1263 50.8061L10.5389 50.5367L10.2531 47.8259L13.1584 45.8727L13.206 44.0711L15.5716 43.8691L15.4763 43.1282L16.9369 43.0272L17.5402 42.118L19.2072 42.5558L19.5406 41.4276L20.5408 41.0909L21.3028 41.7812L22.6205 41.7476L23.8588 37.3362L21.7156 34.558L20.0803 33.8171L20.7313 32.3186L22.811 32.386L24.605 30.5675L25.3671 30.6012L26.6371 32.7564L28.8598 31.7125L30.5585 31.6619L30.5902 27.099L30.114 27.5705L28.3359 26.9138L27.3039 27.2169L27.6214 26.375L27.1452 25.1964L25.8433 24.7081L25.9704 23.7652L22.0807 21.8626L21.3504 22.334L22.1442 22.7381L21.0488 22.5697L21.3346 20.9702L21.9061 20.785L20.7313 18.9497L20.5566 17.7037L21.6362 16.5419L20.7313 15.397L22.557 14.6393L23.5413 12.7535L23.0968 11.3729L23.7953 11.2718L24.351 10.3458L24.2875 9.11664L24.9543 8.30845L24.478 7.7023L25.3035 7.38239L24.6844 5.85019L25.9545 5.34506L26.7006 3.24039L27.7326 3.57713L27.3357 2.4827L28.3041 1.20306L28.7963 2.04493L31.3523 2.16279L31.7016 3.47611L31.2094 4.25063L30.2092 4.41901L29.5266 6.20377L33.6702 7.33188L34.0353 6.38898L33.0193 5.31139L34.972 6.38898L36.258 4.33482L39.0839 3.79602L40.2111 2.92048L40.4016 2.11228L42.1003 1.64083L42.9576 2.41535L46.1487 1.06836L48.7047 1.75869Z" fill="#75B663" stroke="white" stroke-width="0.5"/>
</svg>
