<svg width="96" height="189" viewBox="0 0 96 189" fill="none" xmlns="http://www.w3.org/2000/svg">
<path d="M5.40536 37.8706L6.00865 38.4767L9.02508 37.8369L9.91416 36.3889L9.99352 34.8062L11.0255 33.4928L12.9941 31.6239L14.0419 31.5229L14.8833 30.3947L20.7098 30.5463L20.1065 30.2095L20.043 28.9972L21.202 28.9131L20.8527 28.1554L21.6783 27.465L21.8847 26.3033L22.869 26.539L22.8372 25.7139L23.5993 25.6971L23.3135 24.569L25.1233 23.7271L25.9171 21.2352L28.4097 21.5214L29.0765 19.08L30.2195 19.3157L30.8546 16.6049L31.823 16.8743L32.1247 14.1972L33.1884 14.3655L32.6803 13.1701L33.109 11.419L33.6488 11.2506L33.4265 12.8502L35.8555 12.2777L36.046 11.5705L34.5854 12.0588L34.7918 10.3582L35.284 10.3414L35.7127 9.19645L37.5384 9.14593L37.9353 7.58005L38.4433 7.41167L39.5387 8.64081L41.9837 5.37436L43.6665 6.60349L46.3019 7.34432L46.6829 6.38459L47.7943 5.8963L48.2864 4.11156L51.0806 4.76821L51.2235 2.6467L53.5573 1.09766L54.3511 1.67012L54.367 4.06103L57.7803 3.89266L58.5582 6.5698L61.2571 8.23672L61.6858 10.2404L63.4004 10.1057L63.0035 13.1532L61.2095 16.4029L60.765 18.8611L64.4482 21.2184L64.3212 24.5353L67.0042 24.5858L67.9409 25.3604L69.8302 27.4145L68.9252 27.7681L69.1475 28.3069L68.2902 28.2059L70.0207 29.856L70.0524 29.4013L71.132 29.5024L71.1479 30.7652L73.1324 31.1524L73.6563 32.6341L75.1963 33.8127L75.7202 33.7791L76.4822 32.0785L79.4034 31.0514L79.2129 34.9072L79.9749 34.7388L80.8322 38.7124L81.8324 38.5609L81.5149 37.2476L82.9755 36.7593L83.039 38.7293L83.8963 39.8405L81.2926 41.0697L80.9434 42.9891L81.8165 43.7132L80.8957 43.831L81.118 44.7402L80.3877 46.2219L83.1819 47.0638L83.8645 50.6502L83.166 51.6099L81.753 50.6165L80.1019 53.4788L78.2603 52.1992L77.5459 52.1487L77.3236 52.839L76.7362 52.9232L76.7839 54.6406L78.1174 58.4627L77.2601 58.7826L77.1649 59.8097L76.641 59.9108L76.6727 62.4532L77.3871 62.6216L77.9587 61.9481L79.3558 63.716L80.9116 63.4971L80.1654 64.9283L80.9116 67.134L80.7052 68.1779L82.658 71.899L83.1977 70.8719L86.4047 71.4612L85.0394 74.2899L86.627 74.6266L89.691 78.011L90.7547 77.8258L91.0881 76.4619L92.0883 76.243L92.1994 77.7921L90.5642 79.5768L90.8182 80.2672L88.2939 80.6376L88.4686 83.4494L90.8341 85.3016L90.8817 87.0021L90.7706 87.9787L90.1356 87.5578L89.691 89.09L88.7702 89.5446L87.9923 91.161L89.945 93.1141L89.7863 95.303L88.8337 96.229L87.8177 94.882L86.9127 95.4209L86.8969 98.3505L89.3894 99.0914L89.056 99.9669L88.3257 99.9164L87.897 101.179L87.2461 102.173L87.5795 103.217L88.4527 102.812L89.8815 103.52L90.5483 103.233L91.7073 104.614L92.9456 104.109L92.0407 107.224L90.8817 107.729L90.977 108.436L91.8184 108.588L91.8343 109.312L90.977 109.48L91.0564 110.457L92.5646 111.063L93.4695 112.999L93.1044 114.464L93.7077 115.626L93.6441 117.208L92.9297 118.37L94.2633 120.003L93.3108 120.862L93.8823 122.849L94.8666 122.731L95.2159 123.203L95.5493 125.189L94.7555 126.048L93.2155 126.52L92.0724 125.661L91.3421 125.779L91.104 125.038L89.8974 126.065L89.1195 124.432L89.1989 126.553L87.8812 127.53L88.0399 128.153L87.0397 129.23L85.7379 128.624L84.8012 129.298L81.7213 126.873L81.2768 127.446L79.2764 127.816L79.4828 129.719L78.3714 130.88L75.9901 129.214L76.1329 130.813L74.5771 130.089L73.815 130.779L74.2596 132.244L73.1006 133.726L74.1484 135.258L70.8621 135.41L67.7663 140.663L68.7665 141.336L68.449 142.279L69.6873 143.946L69.6396 145.361L68.4648 146.573L68.3378 149.553L69.6555 151.708L69.7031 155.328V156.305L69.3698 157.652L70.2429 159.083L69.0999 160.885L69.2269 161.491L68.1632 161.626L68.2108 162.484L69.3221 163.848L68.6871 164.993L69.5603 167.603L68.1949 169.539L67.29 173.361L66.2104 173.462L65.7341 175.382L64.4799 176.005L62.3684 173.984L60.4792 174.018L60.0505 175.314L61.4953 177.419L60.4792 178.951L56.0974 177.453L54.8115 178.025L53.6049 179.541L51.8585 179.625L47.2704 178.463L46.7623 176.948L45.5399 178.025L43.4125 178.143L42.0313 180.416L40.8088 181.005L38.6973 179.507L37.6336 177.453L37.9512 175.533L36.7922 175.062L35.4269 176.308L36.3794 178.817L35.4745 180.551L34.3949 180.382L33.8393 177.722L32.7597 176.964L32.2834 177.705L33.2836 178.749L33.5218 179.995L33.3471 181.191L32.6962 181.78L31.3785 181.729L28.9654 179.254L27.7111 179.238L26.9173 179.877L26.6951 180.77L27.2031 181.477L29.8226 181.056L30.1084 182.386L31.6801 183.901L31.9977 185.046L31.1086 185.737L28.9495 185.787L27.6794 184.003L26.4411 183.918L26.2664 185.013L27.2507 187.774L25.8219 188.65L23.2659 188.094L19.6779 180.719L17.3759 181.309L16.9631 180.517L15.5501 181.005L14.1372 179.086L13.5498 180.871L12.9147 180.888L13.1846 179.557L11.6605 178.665L12.8353 177.099L11.9939 177.234L10.9937 175.045L9.31086 174.035L10.9143 173.429L10.6762 172.873L9.12036 172.671L10.1523 171.257L8.13603 171.896L8.39005 169.943L6.83421 170.061L6.7707 168.731L5.78639 168.899L5.53237 168.377L6.48494 167.468L5.9769 166.492L6.67544 164.118L5.56413 162.754L6.59606 163.057L6.73896 162.653L5.92927 161.996L6.26268 160.7L5.15136 160.396L4.73857 158.898L5.13547 158.511L6.21505 159.521L5.70701 157.534L6.89771 157.955L7.45338 157.214L6.18329 156.978L5.26248 154.284L4.45281 153.83L5.05608 151.793L4.59569 150.311L5.53237 149.183L4.9291 148.964L4.08765 149.654L3.46848 148.425H4.11941L3.96066 146.994L4.70683 145.361L3.08748 143.744L4.97672 142.785L3.45262 142.38L3.1351 141.69L3.86538 141.101L4.80209 141.438L5.1196 140.831L4.21466 139.417L4.7227 138.44L3.50024 136.723L5.10373 135.191L3.84952 134.854L4.46868 132.85L4.08765 130.291L4.50044 129.837L3.7384 127.547L4.88145 127.361L3.7384 126.469L3.9924 125.61L3.45262 124.314L4.00829 123.017L3.75427 122.293L4.40519 122.142L4.46868 120.206L6.65958 120.239L6.61195 119.347L7.38986 118.555L6.58019 117.309L7.29461 117.461L6.97709 116.569L7.54863 116.299L6.88184 115.525L6.92946 114.296L5.7229 113.066L5.73876 111.198L6.61195 111.332L6.05628 110.221L6.62782 109.345L5.42125 108.571L6.10391 106.601L4.00829 103.991L3.86538 99.5628L1.22999 96.8857L3.02396 93.4845L4.1353 92.7605L4.50044 93.6529L5.31011 93.3499L4.70683 90.8579L5.07198 90.1507L4.30994 88.2818L5.7229 86.9685L6.07215 85.8572L7.40575 85.9582L7.45338 84.6112L8.27893 84.224L8.1043 83.1632L6.46905 81.1932L3.81776 79.3748L5.02435 77.3038L6.69133 76.2767L6.38969 73.7174L5.61175 73.1955L5.1196 70.653L3.08748 67.4202L4.35756 65.5513L2.18253 64.3558L2.08728 63.7833L0.690186 63.0425V62.3522L2.35717 60.921L1.32524 57.7556L1.49988 56.0381L2.56357 55.1626L2.62706 54.3712L4.3258 54.5228L4.88145 52.4181L3.07158 51.6941L4.19879 50.7007L5.21485 50.6502L5.24661 49.8083H5.73876L5.48474 48.5623L4.40519 47.771L4.35756 45.1612L8.26304 44.8749V43.8983L6.16742 42.1978L6.62782 41.1875L5.53237 41.238L4.80209 40.2783L5.29424 39.79L4.94497 38.3757L5.40536 37.8706Z" fill="#75B663" stroke="white" stroke-width="0.5"/>
</svg>
