<svg width="94" height="156" viewBox="0 0 94 156" fill="none" xmlns="http://www.w3.org/2000/svg">
<path d="M34.5686 24.5083L35.3783 20.8209L38.9663 20.1811L39.3473 18.5142L40.3316 17.5713L40.1411 16.4937L42.078 15.8202L41.8557 14.7595L40.3475 14.4564L39.9823 13.5977L39.8871 11.5772L41.3953 10.2134L42.8083 10.3986L42.7606 11.1394L45.6501 11.6782L46.8249 9.45568L49.6032 11.4425L52.699 9.11894L54.6359 9.5062L54.9534 8.32758L56.9538 9.03475L58.6208 8.44544L59.9543 8.78219L61.8912 7.974L62.939 5.4147L65.8285 2.0809L67.3526 2.06406L68.0828 3.04063L69.7816 3.66361L70.1467 4.45497L72.8933 2.13141L78.3229 4.55599L79.974 1.42423L81.4822 1.25586L81.2282 4.45497L79.5295 4.35395L79.8787 5.63358L79.2278 7.3005L81.4028 8.86638L80.9424 9.37149L81.2917 10.7858L80.7995 11.2741L81.5298 12.2339L82.6253 12.1834L82.1649 13.1936L84.2605 14.8942V15.8707L80.355 16.157L80.4026 18.7668L81.4822 19.5581L81.7362 20.8041H81.2441L81.2123 21.646L80.1962 21.6965L79.069 22.6899L80.8789 23.4139L80.3233 25.5186L78.6245 25.367L78.561 26.1584L77.4973 27.0339L77.3227 28.7514L78.3546 31.9168L76.6876 33.348V34.0383L78.0847 34.7791L78.18 35.3516L80.355 36.5471L79.0849 38.416L81.1171 41.6488L81.6092 44.1913L82.3871 44.7132L82.6888 47.2725L81.0218 48.2996L79.8152 50.3706L82.4665 52.1891L84.1017 54.159L84.2764 55.2198L83.4508 55.607L83.4032 56.954L82.0696 56.853L81.7204 57.9643L80.3074 59.2776L81.0694 61.1465L80.7043 61.8537L81.3076 64.3457L80.4979 64.6487L80.1328 63.7563L79.0214 64.4803L77.2274 67.8815L79.8628 70.5586L80.0057 74.9869L82.1014 77.5967L81.4187 79.5667L82.6253 80.3412L82.0537 81.2167L82.6094 82.328L81.7362 82.1933L81.7204 84.0623L82.9269 85.2914L82.8793 86.5205L83.5461 87.295L82.9745 87.5645L83.2921 88.4568L82.5776 88.3053L83.3873 89.5513L82.6094 90.3426L82.657 91.235L80.4661 91.2013L80.4026 93.1376L79.7517 93.2892L80.0057 94.0132L79.4501 95.3097L79.9898 96.6061L79.7358 97.4649L80.8789 98.3572L79.7358 98.5424L80.4979 100.832L80.0851 101.287L80.4661 103.846L79.847 105.85L81.1012 106.187L79.4977 107.719L80.7202 109.436L80.2121 110.413L81.1171 111.827L80.7995 112.433L79.8628 112.097L79.1326 112.686L79.4501 113.376L80.9742 113.78L79.0849 114.74L80.7043 116.356L79.9581 117.99L80.1169 119.421H79.4659L80.0851 120.65L80.9266 119.96L81.5298 120.179L80.5931 121.307L81.0535 122.788L80.4503 124.826L81.2599 125.28L82.1807 127.974L83.4508 128.21L82.8952 128.951L81.7045 128.53L82.2125 130.517L81.1329 129.506L80.736 129.894L81.1488 131.392L82.2601 131.695L81.9267 132.992L82.7364 133.648L82.5935 134.053L81.5616 133.749L82.6729 135.113L81.9743 137.487L82.4824 138.464L81.5298 139.373L81.7838 139.895L82.7682 139.727L82.8317 141.057L84.3875 140.939L84.1335 142.892L86.1497 142.252L85.1178 143.667L86.6737 143.869L86.9118 144.424L85.3083 145.031L86.9912 146.041L87.9914 148.23L88.8328 148.095L87.658 149.661L89.1821 150.553L88.9122 151.883L89.5472 151.867L90.1346 150.082L91.5476 152.001L92.9605 151.513L93.3733 152.304L90.6109 152.54L88.5311 154.897L87.0547 154.14L85.7687 154.796L83.9747 152.136L80.1486 153.399L78.5928 153.129L77.4656 151.412L77.2909 147.001L75.8462 145.249L74.9731 145.805L74.7031 147.034L76.2907 149.796L76.386 151.042L74.6555 152.321L71.9566 148.331L73.1314 146.411L72.798 143.482L72.3059 142.892L71.258 143.296L70.7024 146.074L68.2416 145.081L66.0666 147.624L64.6695 148.044L62.8914 146.933L61.5578 147.152L61.796 145.014L59.0653 141.107L58.0334 140.468L57.4142 140.484L56.5569 141.528L55.3821 144.104L54.1279 141.579L49.6032 140.636L49.1428 139.996L50.778 138.498L50.8415 137.656L48.7459 136.78L48.5554 136.023L49.9842 134.861L50.2065 134.053L47.9997 132.588L45.0785 129.422L42.967 129.136L40.2522 126.947L39.9665 126.223L41.0302 124.876L40.157 123.849L39.1885 123.411L38.7916 123.765L39.3791 125.297L38.9028 125.937L35.6164 124.573L34.3622 124.624L34.8544 129.052L34.2511 129.22L33.4573 128.092L32.727 127.974L31.6157 129.22L30.9172 131.157L29.4566 131.005L28.5675 129.49L28.8056 128.126L29.8852 127.351L32.7111 127.318L33.3144 126.139L32.8858 125.634L31.6316 125.819L30.8536 124.27L29.012 123.799L27.9642 125.55H27.0117L28.1071 122.569L28.3929 118.31L27.0593 119.135L25.9956 118.73L26.329 119.875L24.7414 121.408L24.9001 123.63L24.2969 124.085L23.3284 123.731L22.1695 118.865L23.6936 117.181L21.7091 115.481L22.0107 112.72L20.693 114.083L16.8193 111.507L14.0568 113.039L14.1045 111.423L10.7388 107.769L11.3738 105.328L15.3746 106.338L15.2952 105.513L14.4537 105.277L14.9459 102.247L13.7552 101.573L10.6435 101.236L8.27798 98.3404L8.24622 96.8924L12.12 92.06L7.56355 89.6523L7.38892 88.1874L6.72213 87.4466L6.57925 84.7526L8.30973 82.0249L7.08728 81.1325L6.54749 79.1457L5.8807 78.6406L4.78525 79.2131L3.92795 78.7585L3.1024 74.3639L0.911519 69.1443L1.18141 64.6487L0.578125 62.6114L4.65826 62.4093L4.94402 61.2812L6.59512 60.6246L7.23016 61.618L7.10315 60.1026L8.40499 60.0858L8.9924 59.1766L10.7546 60.1195L10.4371 59.2439L11.0087 58.6883L12.501 59.2103L12.2787 58.5367L13.2154 58.6546L13.9933 56.9204L15.1682 56.5163L15.7873 51.5492L16.9463 48.1649L18.2322 48.6532L19.4388 50.4211L22.0901 47.5419L19.8833 45.1342L20.693 43.703L20.2643 40.184L23.1062 41.1269L23.8365 39.6283L25.043 39.7125L25.4876 39.1737L28.2182 40.4702L29.1073 40.3187V39.4094L29.7741 39.2242L31.2982 40.1166L31.8697 37.7931L35.807 36.6986L36.8071 33.9878L35.9816 32.6576L36.569 30.8392L38.617 30.1152L37.4422 29.307L37.8391 27.6569L37.3152 26.2426L34.5686 24.5083Z" fill="#75B663" stroke="white" stroke-width="0.5"/>
</svg>
